%
M48
M72
T01C0.0315
T02C0.0354
T03C0.0400
%
T01
X2856Y8761
X2856Y10631
X2324Y11872
X2620Y14175
X5470Y13789
X6502Y13076
X7383Y12502
X6978Y12037
X5293Y9809
X9057Y13305
X9943Y11517
X9533Y5395
T02
X10887Y5415
X10887Y4234
X10887Y9155
X10887Y10336
X10887Y12698
X10887Y13880
X8761Y15257
X7580Y15257
X4828Y15261
X3647Y15261
X1124Y13880
X1124Y12698
X1124Y10336
X1124Y9155
X1124Y5415
X1124Y4234
T03
X1281Y1675
X2281Y1675
X3281Y1675
X4281Y1675
M30
