G75*
%MOIN*%
%OFA0B0*%
%FSLAX24Y24*%
%IPPOS*%
%LPD*%
%AMOC8*
5,1,8,0,0,1.08239X$1,22.5*
%
%ADD10C,0.0000*%
%ADD11R,0.0434X0.0473*%
%ADD12R,0.1300X0.1694*%
%ADD13C,0.0476*%
%ADD14R,0.0316X0.0631*%
%ADD15R,0.0434X0.0355*%
%ADD16C,0.0394*%
%ADD17C,0.1700*%
D10*
X004037Y000100D02*
X000100Y013880D01*
X021754Y013880D01*
X017817Y000100D01*
X004037Y000100D01*
X005632Y013088D02*
X005634Y013114D01*
X005640Y013140D01*
X005650Y013165D01*
X005663Y013188D01*
X005679Y013208D01*
X005699Y013226D01*
X005721Y013241D01*
X005744Y013253D01*
X005770Y013261D01*
X005796Y013265D01*
X005822Y013265D01*
X005848Y013261D01*
X005874Y013253D01*
X005898Y013241D01*
X005919Y013226D01*
X005939Y013208D01*
X005955Y013188D01*
X005968Y013165D01*
X005978Y013140D01*
X005984Y013114D01*
X005986Y013088D01*
X005984Y013062D01*
X005978Y013036D01*
X005968Y013011D01*
X005955Y012988D01*
X005939Y012968D01*
X005919Y012950D01*
X005897Y012935D01*
X005874Y012923D01*
X005848Y012915D01*
X005822Y012911D01*
X005796Y012911D01*
X005770Y012915D01*
X005744Y012923D01*
X005720Y012935D01*
X005699Y012950D01*
X005679Y012968D01*
X005663Y012988D01*
X005650Y013011D01*
X005640Y013036D01*
X005634Y013062D01*
X005632Y013088D01*
X006813Y013088D02*
X006815Y013114D01*
X006821Y013140D01*
X006831Y013165D01*
X006844Y013188D01*
X006860Y013208D01*
X006880Y013226D01*
X006902Y013241D01*
X006925Y013253D01*
X006951Y013261D01*
X006977Y013265D01*
X007003Y013265D01*
X007029Y013261D01*
X007055Y013253D01*
X007079Y013241D01*
X007100Y013226D01*
X007120Y013208D01*
X007136Y013188D01*
X007149Y013165D01*
X007159Y013140D01*
X007165Y013114D01*
X007167Y013088D01*
X007165Y013062D01*
X007159Y013036D01*
X007149Y013011D01*
X007136Y012988D01*
X007120Y012968D01*
X007100Y012950D01*
X007078Y012935D01*
X007055Y012923D01*
X007029Y012915D01*
X007003Y012911D01*
X006977Y012911D01*
X006951Y012915D01*
X006925Y012923D01*
X006901Y012935D01*
X006880Y012950D01*
X006860Y012968D01*
X006844Y012988D01*
X006831Y013011D01*
X006821Y013036D01*
X006815Y013062D01*
X006813Y013088D01*
D11*
X005946Y004824D03*
X005277Y004824D03*
D12*
X005159Y007187D03*
X016694Y007187D03*
D13*
X011600Y011915D03*
X010261Y011915D03*
D14*
X007285Y012399D03*
X006694Y012399D03*
X005513Y012399D03*
D15*
X004962Y012655D03*
X004962Y013521D03*
X007836Y013521D03*
X007836Y012655D03*
D16*
X006990Y013088D03*
X005809Y013088D03*
D17*
X002069Y012305D03*
X019785Y012305D03*
M02*
