G75*
%MOIN*%
%OFA0B0*%
%FSLAX24Y24*%
%IPPOS*%
%LPD*%
%AMOC8*
5,1,8,0,0,1.08239X$1,22.5*
%
%ADD10C,0.0000*%
%ADD11C,0.0040*%
%ADD12C,0.0050*%
D10*
X004037Y000100D02*
X000100Y013880D01*
X021754Y013880D01*
X017817Y000100D01*
X004037Y000100D01*
X005632Y013088D02*
X005634Y013114D01*
X005640Y013140D01*
X005650Y013165D01*
X005663Y013188D01*
X005679Y013208D01*
X005699Y013226D01*
X005721Y013241D01*
X005744Y013253D01*
X005770Y013261D01*
X005796Y013265D01*
X005822Y013265D01*
X005848Y013261D01*
X005874Y013253D01*
X005898Y013241D01*
X005919Y013226D01*
X005939Y013208D01*
X005955Y013188D01*
X005968Y013165D01*
X005978Y013140D01*
X005984Y013114D01*
X005986Y013088D01*
X005984Y013062D01*
X005978Y013036D01*
X005968Y013011D01*
X005955Y012988D01*
X005939Y012968D01*
X005919Y012950D01*
X005897Y012935D01*
X005874Y012923D01*
X005848Y012915D01*
X005822Y012911D01*
X005796Y012911D01*
X005770Y012915D01*
X005744Y012923D01*
X005720Y012935D01*
X005699Y012950D01*
X005679Y012968D01*
X005663Y012988D01*
X005650Y013011D01*
X005640Y013036D01*
X005634Y013062D01*
X005632Y013088D01*
X006813Y013088D02*
X006815Y013114D01*
X006821Y013140D01*
X006831Y013165D01*
X006844Y013188D01*
X006860Y013208D01*
X006880Y013226D01*
X006902Y013241D01*
X006925Y013253D01*
X006951Y013261D01*
X006977Y013265D01*
X007003Y013265D01*
X007029Y013261D01*
X007055Y013253D01*
X007079Y013241D01*
X007100Y013226D01*
X007120Y013208D01*
X007136Y013188D01*
X007149Y013165D01*
X007159Y013140D01*
X007165Y013114D01*
X007167Y013088D01*
X007165Y013062D01*
X007159Y013036D01*
X007149Y013011D01*
X007136Y012988D01*
X007120Y012968D01*
X007100Y012950D01*
X007078Y012935D01*
X007055Y012923D01*
X007029Y012915D01*
X007003Y012911D01*
X006977Y012911D01*
X006951Y012915D01*
X006925Y012923D01*
X006901Y012935D01*
X006880Y012950D01*
X006860Y012968D01*
X006844Y012988D01*
X006831Y013011D01*
X006821Y013036D01*
X006815Y013062D01*
X006813Y013088D01*
D11*
X008660Y010876D02*
X008890Y010876D01*
X008967Y010799D01*
X008967Y010645D01*
X008890Y010569D01*
X008660Y010569D01*
X008660Y010415D02*
X008660Y010876D01*
X009120Y010799D02*
X009120Y010492D01*
X009197Y010415D01*
X009351Y010415D01*
X009427Y010492D01*
X009581Y010415D02*
X009888Y010415D01*
X009734Y010415D02*
X009734Y010876D01*
X009581Y010722D01*
X009427Y010799D02*
X009351Y010876D01*
X009197Y010876D01*
X009120Y010799D01*
X011557Y010706D02*
X011557Y010246D01*
X011787Y010246D01*
X011864Y010323D01*
X011864Y010630D01*
X011787Y010706D01*
X011557Y010706D01*
X012017Y010706D02*
X012017Y010476D01*
X012171Y010553D01*
X012248Y010553D01*
X012324Y010476D01*
X012324Y010323D01*
X012248Y010246D01*
X012094Y010246D01*
X012017Y010323D01*
X012017Y010706D02*
X012324Y010706D01*
X015888Y010435D02*
X015888Y009974D01*
X016118Y009974D01*
X016195Y010051D01*
X016195Y010358D01*
X016118Y010435D01*
X015888Y010435D01*
X016348Y010358D02*
X016348Y010281D01*
X016425Y010205D01*
X016655Y010205D01*
X016655Y010358D02*
X016655Y010051D01*
X016578Y009974D01*
X016425Y009974D01*
X016348Y010051D01*
X016348Y010358D02*
X016425Y010435D01*
X016578Y010435D01*
X016655Y010358D01*
X016571Y008034D02*
X016724Y008034D01*
X016801Y007957D01*
X016494Y007650D01*
X016571Y007573D01*
X016724Y007573D01*
X016801Y007650D01*
X016801Y007957D01*
X016571Y008034D02*
X016494Y007957D01*
X016494Y007650D01*
X016340Y007573D02*
X016033Y007573D01*
X015880Y007573D02*
X015727Y007727D01*
X015803Y007727D02*
X015573Y007727D01*
X015573Y007573D02*
X015573Y008034D01*
X015803Y008034D01*
X015880Y007957D01*
X015880Y007803D01*
X015803Y007727D01*
X016033Y007880D02*
X016187Y008034D01*
X016187Y007573D01*
X016114Y007021D02*
X016267Y007021D01*
X016344Y006945D01*
X016344Y006868D01*
X016267Y006791D01*
X016114Y006791D01*
X016037Y006868D01*
X016037Y006945D01*
X016114Y007021D01*
X015884Y006945D02*
X015807Y007021D01*
X015577Y007021D01*
X015577Y006561D01*
X015807Y006561D01*
X015884Y006638D01*
X015884Y006945D01*
X016114Y006791D02*
X016037Y006714D01*
X016037Y006638D01*
X016114Y006561D01*
X016267Y006561D01*
X016344Y006638D01*
X016344Y006714D01*
X016267Y006791D01*
X016122Y004081D02*
X015968Y004081D01*
X015891Y004004D01*
X015891Y003927D01*
X015968Y003851D01*
X016198Y003851D01*
X016198Y004004D02*
X016198Y003697D01*
X016122Y003620D01*
X015968Y003620D01*
X015891Y003697D01*
X015738Y003620D02*
X015585Y003774D01*
X015661Y003774D02*
X015431Y003774D01*
X015431Y003620D02*
X015431Y004081D01*
X015661Y004081D01*
X015738Y004004D01*
X015738Y003851D01*
X015661Y003774D01*
X016122Y004081D02*
X016198Y004004D01*
X014289Y004086D02*
X013982Y003779D01*
X013982Y003703D01*
X013829Y003779D02*
X013829Y004086D01*
X013752Y004163D01*
X013522Y004163D01*
X013522Y003703D01*
X013752Y003703D01*
X013829Y003779D01*
X013982Y004163D02*
X014289Y004163D01*
X014289Y004086D01*
X013624Y003241D02*
X013317Y003241D01*
X013164Y003165D02*
X013164Y003011D01*
X013087Y002934D01*
X012857Y002934D01*
X012857Y002781D02*
X012857Y003241D01*
X013087Y003241D01*
X013164Y003165D01*
X013010Y002934D02*
X013164Y002781D01*
X013317Y002781D02*
X013317Y002858D01*
X013624Y003165D01*
X013624Y003241D01*
X014494Y001471D02*
X014724Y001471D01*
X014801Y001394D01*
X014801Y001240D01*
X014724Y001164D01*
X014494Y001164D01*
X014648Y001164D02*
X014801Y001010D01*
X014954Y001087D02*
X014954Y001164D01*
X015031Y001240D01*
X015185Y001240D01*
X015261Y001164D01*
X015261Y001087D01*
X015185Y001010D01*
X015031Y001010D01*
X014954Y001087D01*
X015031Y001240D02*
X014954Y001317D01*
X014954Y001394D01*
X015031Y001471D01*
X015185Y001471D01*
X015261Y001394D01*
X015261Y001317D01*
X015185Y001240D01*
X014494Y001010D02*
X014494Y001471D01*
X010069Y001478D02*
X009915Y001402D01*
X009762Y001248D01*
X009992Y001248D01*
X010069Y001171D01*
X010069Y001095D01*
X009992Y001018D01*
X009838Y001018D01*
X009762Y001095D01*
X009762Y001248D01*
X009608Y001248D02*
X009531Y001171D01*
X009301Y001171D01*
X009301Y001018D02*
X009301Y001478D01*
X009531Y001478D01*
X009608Y001402D01*
X009608Y001248D01*
X009455Y001171D02*
X009608Y001018D01*
X007265Y001213D02*
X006958Y001213D01*
X007189Y001443D01*
X007189Y000983D01*
X006805Y000983D02*
X006651Y001136D01*
X006728Y001136D02*
X006498Y001136D01*
X006498Y000983D02*
X006498Y001443D01*
X006728Y001443D01*
X006805Y001366D01*
X006805Y001213D01*
X006728Y001136D01*
X008266Y002577D02*
X008266Y003037D01*
X008496Y003037D01*
X008573Y002961D01*
X008573Y002807D01*
X008496Y002731D01*
X008266Y002731D01*
X008419Y002731D02*
X008573Y002577D01*
X008726Y002654D02*
X008803Y002577D01*
X008956Y002577D01*
X009033Y002654D01*
X009033Y002807D01*
X008956Y002884D01*
X008880Y002884D01*
X008726Y002807D01*
X008726Y003037D01*
X009033Y003037D01*
X008379Y003740D02*
X008303Y003663D01*
X008149Y003663D01*
X008073Y003740D01*
X007919Y003740D02*
X007919Y004047D01*
X007842Y004124D01*
X007612Y004124D01*
X007612Y003663D01*
X007842Y003663D01*
X007919Y003740D01*
X008226Y003894D02*
X008303Y003894D01*
X008379Y003817D01*
X008379Y003740D01*
X008303Y003894D02*
X008379Y003970D01*
X008379Y004047D01*
X008303Y004124D01*
X008149Y004124D01*
X008073Y004047D01*
X006230Y004010D02*
X006153Y003933D01*
X006230Y003857D01*
X006230Y003780D01*
X006153Y003703D01*
X006000Y003703D01*
X005923Y003780D01*
X005770Y003703D02*
X005616Y003857D01*
X005693Y003857D02*
X005770Y003933D01*
X005770Y004087D01*
X005693Y004163D01*
X005463Y004163D01*
X005463Y003703D01*
X005463Y003857D02*
X005693Y003857D01*
X006076Y003933D02*
X006153Y003933D01*
X006230Y004010D02*
X006230Y004087D01*
X006153Y004163D01*
X006000Y004163D01*
X005923Y004087D01*
X006506Y006254D02*
X006736Y006254D01*
X006813Y006331D01*
X006813Y006638D01*
X006736Y006714D01*
X006506Y006714D01*
X006506Y006254D01*
X006966Y006254D02*
X007273Y006561D01*
X007273Y006638D01*
X007196Y006714D01*
X007043Y006714D01*
X006966Y006638D01*
X006966Y006254D02*
X007273Y006254D01*
X009671Y006498D02*
X009901Y006498D01*
X009978Y006575D01*
X009978Y006882D01*
X009901Y006958D01*
X009671Y006958D01*
X009671Y006498D01*
X010132Y006728D02*
X010439Y006728D01*
X010362Y006498D02*
X010362Y006958D01*
X010132Y006728D01*
X011447Y006514D02*
X011677Y006514D01*
X011754Y006590D01*
X011754Y006897D01*
X011677Y006974D01*
X011447Y006974D01*
X011447Y006514D01*
X011907Y006590D02*
X011907Y006744D01*
X012137Y006744D01*
X012214Y006667D01*
X012214Y006590D01*
X012137Y006514D01*
X011984Y006514D01*
X011907Y006590D01*
X011907Y006744D02*
X012061Y006897D01*
X012214Y006974D01*
X005990Y010211D02*
X005683Y010211D01*
X005836Y010211D02*
X005836Y010671D01*
X005683Y010517D01*
X005529Y010594D02*
X005453Y010671D01*
X005222Y010671D01*
X005222Y010211D01*
X005453Y010211D01*
X005529Y010287D01*
X005529Y010594D01*
X003118Y007703D02*
X002964Y007703D01*
X002888Y007626D01*
X002734Y007626D02*
X002734Y007473D01*
X002657Y007396D01*
X002427Y007396D01*
X002427Y007242D02*
X002427Y007703D01*
X002657Y007703D01*
X002734Y007626D01*
X002581Y007396D02*
X002734Y007242D01*
X002888Y007242D02*
X003194Y007549D01*
X003194Y007626D01*
X003118Y007703D01*
X003194Y007242D02*
X002888Y007242D01*
D12*
X004242Y006202D02*
X004242Y004628D01*
X005285Y004628D01*
X005698Y004628D02*
X005817Y004628D01*
X005817Y004746D01*
X005817Y005159D02*
X005817Y006202D01*
X004242Y006202D01*
X004293Y008368D02*
X003250Y008368D01*
X003250Y009943D01*
X004824Y009943D01*
X004824Y008899D01*
X004824Y008486D02*
X004824Y008368D01*
X004706Y008368D01*
X008368Y006202D02*
X008368Y004628D01*
X009411Y004628D01*
X009824Y004628D02*
X009943Y004628D01*
X009943Y004746D01*
X009943Y005159D02*
X009943Y006202D01*
X008368Y006202D01*
X010139Y008368D02*
X011183Y008368D01*
X011596Y008368D02*
X011714Y008368D01*
X011714Y008486D01*
X011714Y008899D02*
X011714Y009943D01*
X010139Y009943D01*
X010139Y008368D01*
X011911Y006202D02*
X011911Y004628D01*
X012954Y004628D01*
X013368Y004628D02*
X013486Y004628D01*
X013486Y004746D01*
X013486Y005159D02*
X013486Y006202D01*
X011911Y006202D01*
X016045Y006202D02*
X016045Y004628D01*
X017088Y004628D01*
X017502Y004628D02*
X017620Y004628D01*
X017620Y004746D01*
X017620Y005159D02*
X017620Y006202D01*
X016045Y006202D01*
X017029Y008368D02*
X018072Y008368D01*
X018486Y008368D02*
X018604Y008368D01*
X018604Y008486D01*
X018604Y008899D02*
X018604Y009943D01*
X017029Y009943D01*
X017029Y008368D01*
X011474Y011069D02*
X010387Y011069D01*
X011474Y011068D02*
X011526Y011104D01*
X011576Y011143D01*
X011623Y011185D01*
X011667Y011229D01*
X011708Y011276D01*
X011747Y011326D01*
X011782Y011378D01*
X011814Y011433D01*
X011842Y011489D01*
X011867Y011546D01*
X011888Y011606D01*
X011906Y011666D01*
X011919Y011727D01*
X011929Y011790D01*
X011935Y011852D01*
X011937Y011915D01*
X011935Y011978D01*
X011929Y012040D01*
X011919Y012103D01*
X011906Y012164D01*
X011888Y012224D01*
X011867Y012284D01*
X011842Y012341D01*
X011814Y012397D01*
X011782Y012452D01*
X011747Y012504D01*
X011708Y012554D01*
X011667Y012601D01*
X011623Y012645D01*
X011576Y012687D01*
X011526Y012726D01*
X011474Y012762D01*
X011474Y012761D02*
X010387Y012761D01*
X010388Y012762D02*
X010336Y012726D01*
X010286Y012687D01*
X010239Y012645D01*
X010195Y012601D01*
X010154Y012554D01*
X010115Y012504D01*
X010080Y012452D01*
X010048Y012397D01*
X010020Y012341D01*
X009995Y012284D01*
X009974Y012224D01*
X009956Y012164D01*
X009943Y012103D01*
X009933Y012040D01*
X009927Y011978D01*
X009925Y011915D01*
X009927Y011852D01*
X009933Y011790D01*
X009943Y011727D01*
X009956Y011666D01*
X009974Y011606D01*
X009995Y011546D01*
X010020Y011489D01*
X010048Y011433D01*
X010080Y011378D01*
X010115Y011326D01*
X010154Y011276D01*
X010195Y011229D01*
X010239Y011185D01*
X010286Y011143D01*
X010336Y011104D01*
X010388Y011068D01*
X007876Y003250D02*
X006301Y003250D01*
X006301Y001675D01*
X007344Y001675D01*
X007757Y001675D02*
X007876Y001675D01*
X007876Y001793D01*
X007876Y002206D02*
X007876Y003250D01*
X013978Y003250D02*
X013978Y001675D01*
X015021Y001675D01*
X015435Y001675D02*
X015553Y001675D01*
X015553Y001793D01*
X015553Y002206D02*
X015553Y003250D01*
X013978Y003250D01*
M02*
