G75*
G70*
%OFA0B0*%
%FSLAX24Y24*%
%IPPOS*%
%LPD*%
%AMOC8*
5,1,8,0,0,1.08239X$1,22.5*
%
%ADD10C,0.0050*%
%ADD11C,0.0040*%
%ADD12C,0.0080*%
%ADD13R,0.0200X0.0200*%
D10*
X001163Y000742D02*
X004785Y000742D01*
X005927Y001962D01*
X005927Y007868D01*
X004785Y009088D01*
X001163Y009088D01*
X004195Y010212D02*
X004270Y010137D01*
X004345Y010137D01*
X004420Y010212D01*
X004420Y010588D01*
X004345Y010588D02*
X004495Y010588D01*
X004655Y010588D02*
X004881Y010588D01*
X004956Y010513D01*
X004956Y010362D01*
X004881Y010287D01*
X004655Y010287D01*
X004655Y010137D02*
X004655Y010588D01*
X005116Y010438D02*
X005266Y010588D01*
X005266Y010137D01*
X005116Y010137D02*
X005416Y010137D01*
X008892Y009374D02*
X008967Y009299D01*
X009042Y009299D01*
X009117Y009374D01*
X009117Y009749D01*
X009042Y009749D02*
X009192Y009749D01*
X009352Y009749D02*
X009578Y009749D01*
X009653Y009674D01*
X009653Y009524D01*
X009578Y009449D01*
X009352Y009449D01*
X009352Y009299D02*
X009352Y009749D01*
X009813Y009674D02*
X009888Y009749D01*
X010038Y009749D01*
X010113Y009674D01*
X010113Y009599D01*
X009813Y009299D01*
X010113Y009299D01*
D11*
X006514Y001376D02*
X006514Y000915D01*
X006667Y000915D02*
X006360Y000915D01*
X006207Y000992D02*
X006207Y001376D01*
X006360Y001222D02*
X006514Y001376D01*
X006207Y000992D02*
X006130Y000915D01*
X005977Y000915D01*
X005900Y000992D01*
X005900Y001376D01*
X001435Y009774D02*
X001128Y009774D01*
X001281Y009774D02*
X001281Y010234D01*
X001128Y010080D01*
X000974Y010004D02*
X000974Y010157D01*
X000897Y010234D01*
X000667Y010234D01*
X000667Y009774D01*
X000667Y009927D02*
X000897Y009927D01*
X000974Y010004D01*
D12*
X006049Y010283D02*
X006049Y010783D01*
X006299Y011033D01*
X006799Y011033D01*
X007049Y010783D01*
X007299Y011033D01*
X007799Y011033D01*
X008049Y010783D01*
X008299Y011033D01*
X008799Y011033D01*
X009049Y010783D01*
X009299Y011033D01*
X009799Y011033D01*
X010049Y010783D01*
X010049Y010283D01*
X009799Y010033D01*
X009299Y010033D01*
X009049Y010283D01*
X008799Y010033D01*
X008299Y010033D01*
X008049Y010283D01*
X007799Y010033D01*
X007299Y010033D01*
X007049Y010283D01*
X006799Y010033D01*
X006299Y010033D01*
X006049Y010283D01*
X006299Y009104D02*
X006799Y009104D01*
X007049Y008854D01*
X007299Y009104D01*
X007799Y009104D01*
X008049Y008854D01*
X008299Y009104D01*
X008799Y009104D01*
X009049Y008854D01*
X009299Y009104D01*
X009799Y009104D01*
X010049Y008854D01*
X010049Y008354D01*
X009799Y008104D01*
X009299Y008104D01*
X009049Y008354D01*
X008799Y008104D01*
X008299Y008104D01*
X008049Y008354D01*
X007799Y008104D01*
X007299Y008104D01*
X007049Y008354D01*
X006799Y008104D01*
X006299Y008104D01*
X006049Y008354D01*
X006049Y008854D01*
X006299Y009104D01*
X008299Y007096D02*
X008049Y006846D01*
X008049Y006346D01*
X008299Y006096D01*
X008799Y006096D01*
X009049Y006346D01*
X009299Y006096D01*
X009799Y006096D01*
X010049Y006346D01*
X010049Y006846D01*
X009799Y007096D01*
X009299Y007096D01*
X009049Y006846D01*
X008799Y007096D01*
X008299Y007096D01*
D13*
X008549Y006596D03*
X009549Y006596D03*
X009549Y008604D03*
X008549Y008604D03*
X007549Y008604D03*
X006549Y008604D03*
X006549Y010533D03*
X007549Y010533D03*
X008549Y010533D03*
X009549Y010533D03*
M02*
