G75*
G70*
%OFA0B0*%
%FSLAX24Y24*%
%IPPOS*%
%LPD*%
%AMOC8*
5,1,8,0,0,1.08239X$1,22.5*
%
%ADD10C,0.0030*%
D10*
X002036Y005666D02*
X002036Y005909D01*
X002036Y005788D02*
X001915Y005909D01*
X001854Y005909D01*
X002156Y005848D02*
X002156Y005788D01*
X002398Y005788D01*
X002398Y005848D02*
X002338Y005909D01*
X002216Y005909D01*
X002156Y005848D01*
X002216Y005666D02*
X002338Y005666D01*
X002398Y005727D01*
X002398Y005848D01*
X002518Y005909D02*
X002518Y005727D01*
X002579Y005666D01*
X002640Y005727D01*
X002700Y005666D01*
X002761Y005727D01*
X002761Y005909D01*
X002881Y005848D02*
X002881Y005727D01*
X002941Y005666D01*
X003063Y005666D01*
X003123Y005727D01*
X003123Y005848D01*
X003063Y005909D01*
X002941Y005909D01*
X002881Y005848D01*
X003243Y005848D02*
X003304Y005788D01*
X003486Y005788D01*
X003486Y005666D02*
X003486Y006030D01*
X003304Y006030D01*
X003243Y005970D01*
X003243Y005848D01*
X003606Y005666D02*
X003728Y005666D01*
X003667Y005666D02*
X003667Y006030D01*
X003728Y006030D01*
X003909Y006030D02*
X003909Y005666D01*
X003969Y005666D02*
X003848Y005666D01*
X004089Y005666D02*
X004271Y005666D01*
X004332Y005727D01*
X004271Y005788D01*
X004089Y005788D01*
X004089Y005848D02*
X004089Y005666D01*
X004089Y005848D02*
X004150Y005909D01*
X004271Y005909D01*
X004452Y006030D02*
X004452Y005666D01*
X004573Y005788D01*
X004694Y005666D01*
X004694Y006030D01*
X004814Y005909D02*
X004814Y005666D01*
X004996Y005666D01*
X005057Y005727D01*
X005057Y005909D01*
X005177Y005909D02*
X005359Y005909D01*
X005419Y005848D01*
X005419Y005727D01*
X005359Y005666D01*
X005177Y005666D01*
X005237Y005440D02*
X005359Y005440D01*
X005419Y005379D01*
X005237Y005440D02*
X005177Y005379D01*
X005177Y005318D01*
X005419Y005076D01*
X005177Y005076D01*
X005539Y005076D02*
X005661Y005197D01*
X005600Y005197D02*
X005782Y005197D01*
X005782Y005076D02*
X005782Y005440D01*
X005600Y005440D01*
X005539Y005379D01*
X005539Y005258D01*
X005600Y005197D01*
X005661Y005666D02*
X005661Y005848D01*
X005600Y005909D01*
X005539Y005848D01*
X005539Y005666D01*
X005661Y005848D02*
X005721Y005909D01*
X005782Y005909D01*
X005782Y005666D01*
X005721Y006257D02*
X005600Y006257D01*
X005539Y006317D01*
X005539Y006560D01*
X005782Y006317D01*
X005721Y006257D01*
X005782Y006317D02*
X005782Y006560D01*
X005721Y006621D01*
X005600Y006621D01*
X005539Y006560D01*
X005419Y006560D02*
X005359Y006621D01*
X005237Y006621D01*
X005177Y006560D01*
X005177Y006499D01*
X005237Y006439D01*
X005177Y006378D01*
X005177Y006317D01*
X005237Y006257D01*
X005359Y006257D01*
X005419Y006317D01*
X005298Y006439D02*
X005237Y006439D01*
X005057Y006257D02*
X004814Y006621D01*
X004694Y006499D02*
X004573Y006621D01*
X004573Y006257D01*
X004694Y006257D02*
X004452Y006257D01*
X004332Y006317D02*
X004089Y006560D01*
X004089Y006317D01*
X004150Y006257D01*
X004271Y006257D01*
X004332Y006317D01*
X004332Y006560D01*
X004271Y006621D01*
X004150Y006621D01*
X004089Y006560D01*
X003969Y006257D02*
X003727Y006621D01*
X003607Y006560D02*
X003546Y006621D01*
X003425Y006621D01*
X003364Y006560D01*
X003364Y006499D01*
X003607Y006257D01*
X003364Y006257D01*
X003244Y006317D02*
X003002Y006560D01*
X003002Y006317D01*
X003062Y006257D01*
X003184Y006257D01*
X003244Y006317D01*
X003244Y006560D01*
X003184Y006621D01*
X003062Y006621D01*
X003002Y006560D01*
X002882Y006499D02*
X002760Y006621D01*
X002760Y006257D01*
X002639Y006257D02*
X002882Y006257D01*
X002519Y006439D02*
X002277Y006439D01*
X002337Y006257D02*
X002337Y006621D01*
X002519Y006439D01*
X003909Y006030D02*
X003969Y006030D01*
X003969Y006847D02*
X004090Y006847D01*
X004151Y006908D01*
X004151Y007029D01*
X004090Y007090D01*
X003969Y007090D01*
X003908Y007029D01*
X003908Y006969D01*
X004151Y006969D01*
X004270Y006969D02*
X004513Y006969D01*
X004513Y007029D02*
X004452Y007090D01*
X004331Y007090D01*
X004270Y007029D01*
X004270Y006969D01*
X004331Y006847D02*
X004452Y006847D01*
X004513Y006908D01*
X004513Y007029D01*
X004633Y006847D02*
X004876Y006847D01*
X004876Y007211D01*
X005359Y006908D02*
X005359Y006847D01*
X005419Y006847D01*
X005419Y006908D01*
X005359Y006908D01*
X005661Y007029D02*
X005782Y007029D01*
X005782Y006847D02*
X005782Y007211D01*
X005539Y007211D01*
M02*
