G75*
G70*
%OFA0B0*%
%FSLAX24Y24*%
%IPPOS*%
%LPD*%
%AMOC8*
5,1,8,0,0,1.08239X$1,22.5*
%
%ADD10C,0.0030*%
D10*
X000800Y006753D02*
X000800Y006995D01*
X000800Y006874D02*
X000678Y006995D01*
X000618Y006995D01*
X000919Y006935D02*
X000919Y006874D01*
X001162Y006874D01*
X001162Y006813D02*
X001162Y006935D01*
X001102Y006995D01*
X000980Y006995D01*
X000919Y006935D01*
X000980Y006753D02*
X001102Y006753D01*
X001162Y006813D01*
X001282Y006813D02*
X001282Y006995D01*
X001282Y006813D02*
X001343Y006753D01*
X001403Y006813D01*
X001464Y006753D01*
X001525Y006813D01*
X001525Y006995D01*
X001645Y006935D02*
X001705Y006995D01*
X001827Y006995D01*
X001887Y006935D01*
X001887Y006813D01*
X001827Y006753D01*
X001705Y006753D01*
X001645Y006813D01*
X001645Y006935D01*
X002007Y006935D02*
X002068Y006874D01*
X002250Y006874D01*
X002250Y006753D02*
X002250Y007117D01*
X002068Y007117D01*
X002007Y007056D01*
X002007Y006935D01*
X002370Y006753D02*
X002491Y006753D01*
X002431Y006753D02*
X002431Y007117D01*
X002491Y007117D01*
X002672Y007117D02*
X002672Y006753D01*
X002612Y006753D02*
X002733Y006753D01*
X002853Y006753D02*
X002853Y006935D01*
X002914Y006995D01*
X003035Y006995D01*
X003035Y006874D02*
X002853Y006874D01*
X002853Y006753D02*
X003035Y006753D01*
X003096Y006813D01*
X003035Y006874D01*
X003215Y006753D02*
X003215Y007117D01*
X003215Y007343D02*
X003458Y007343D01*
X003215Y007586D01*
X003215Y007647D01*
X003276Y007707D01*
X003397Y007707D01*
X003458Y007647D01*
X003578Y007707D02*
X003821Y007343D01*
X003940Y007343D02*
X004183Y007343D01*
X003940Y007586D01*
X003940Y007647D01*
X004001Y007707D01*
X004122Y007707D01*
X004183Y007647D01*
X004424Y007707D02*
X004424Y007343D01*
X004303Y007343D02*
X004546Y007343D01*
X004546Y007586D02*
X004424Y007707D01*
X004546Y007934D02*
X004546Y008298D01*
X004303Y008298D01*
X004424Y008116D02*
X004546Y008116D01*
X004183Y007995D02*
X004122Y007995D01*
X004122Y007934D01*
X004183Y007934D01*
X004183Y007995D01*
X003639Y007934D02*
X003397Y007934D01*
X003277Y007995D02*
X003277Y008116D01*
X003216Y008177D01*
X003095Y008177D01*
X003034Y008116D01*
X003034Y008055D01*
X003277Y008055D01*
X003277Y007995D02*
X003216Y007934D01*
X003095Y007934D01*
X002914Y007995D02*
X002914Y008116D01*
X002854Y008177D01*
X002732Y008177D01*
X002672Y008116D01*
X002672Y008055D01*
X002914Y008055D01*
X002914Y007995D02*
X002854Y007934D01*
X002732Y007934D01*
X002853Y007707D02*
X003096Y007707D01*
X003096Y007525D01*
X002974Y007586D01*
X002914Y007586D01*
X002853Y007525D01*
X002853Y007404D01*
X002914Y007343D01*
X003035Y007343D01*
X003096Y007404D01*
X003458Y007117D02*
X003458Y006753D01*
X003337Y006874D01*
X003215Y006753D01*
X003578Y006753D02*
X003578Y006995D01*
X003578Y006753D02*
X003760Y006753D01*
X003821Y006813D01*
X003821Y006995D01*
X003940Y006995D02*
X004122Y006995D01*
X004183Y006935D01*
X004183Y006813D01*
X004122Y006753D01*
X003940Y006753D01*
X004303Y006753D02*
X004303Y006935D01*
X004364Y006995D01*
X004424Y006935D01*
X004424Y006753D01*
X004546Y006753D02*
X004546Y006995D01*
X004485Y006995D01*
X004424Y006935D01*
X003639Y007934D02*
X003639Y008298D01*
X002490Y007707D02*
X002733Y007343D01*
X002733Y007117D02*
X002672Y007117D01*
X002371Y007343D02*
X002128Y007586D01*
X002128Y007647D01*
X002189Y007707D01*
X002310Y007707D01*
X002371Y007647D01*
X002371Y007343D02*
X002128Y007343D01*
X002008Y007404D02*
X002008Y007647D01*
X001947Y007707D01*
X001826Y007707D01*
X001765Y007647D01*
X002008Y007404D01*
X001947Y007343D01*
X001826Y007343D01*
X001765Y007404D01*
X001765Y007647D01*
X001646Y007586D02*
X001524Y007707D01*
X001524Y007343D01*
X001403Y007343D02*
X001646Y007343D01*
X001283Y007404D02*
X001222Y007343D01*
X001101Y007343D01*
X001040Y007404D01*
X001040Y007465D01*
X001101Y007525D01*
X001162Y007525D01*
X001101Y007525D02*
X001040Y007586D01*
X001040Y007647D01*
X001101Y007707D01*
X001222Y007707D01*
X001283Y007647D01*
M02*
