G75*
G70*
%OFA0B0*%
%FSLAX24Y24*%
%IPPOS*%
%LPD*%
%AMOC8*
5,1,8,0,0,1.08239X$1,22.5*
%
%ADD10C,0.0050*%
%ADD11C,0.0040*%
%ADD12C,0.0080*%
D10*
X000927Y001210D02*
X000927Y004832D01*
X002147Y005974D01*
X008053Y005974D01*
X009273Y004832D01*
X009273Y001210D01*
X006593Y007275D02*
X006293Y007275D01*
X006443Y007275D02*
X006443Y007725D01*
X006293Y007575D01*
X006133Y007500D02*
X006058Y007425D01*
X005833Y007425D01*
X005833Y007275D02*
X005833Y007725D01*
X006058Y007725D01*
X006133Y007650D01*
X006133Y007500D01*
X005673Y007725D02*
X005522Y007725D01*
X005597Y007725D02*
X005597Y007350D01*
X005522Y007275D01*
X005447Y007275D01*
X005372Y007350D01*
X005356Y009775D02*
X005656Y010075D01*
X005656Y010150D01*
X005581Y010225D01*
X005431Y010225D01*
X005356Y010150D01*
X005196Y010150D02*
X005196Y010000D01*
X005121Y009925D01*
X004896Y009925D01*
X004896Y009775D02*
X004896Y010225D01*
X005121Y010225D01*
X005196Y010150D01*
X005356Y009775D02*
X005656Y009775D01*
X004735Y010225D02*
X004585Y010225D01*
X004660Y010225D02*
X004660Y009850D01*
X004585Y009775D01*
X004510Y009775D01*
X004435Y009850D01*
D11*
X003998Y010750D02*
X003691Y010750D01*
X003537Y010827D02*
X003537Y011210D01*
X003691Y011057D02*
X003844Y011210D01*
X003844Y010750D01*
X003537Y010827D02*
X003460Y010750D01*
X003307Y010750D01*
X003230Y010827D01*
X003230Y011210D01*
X001998Y001348D02*
X001998Y000888D01*
X002151Y000888D02*
X001844Y000888D01*
X001691Y001118D02*
X001614Y001041D01*
X001384Y001041D01*
X001384Y000888D02*
X001384Y001348D01*
X001614Y001348D01*
X001691Y001271D01*
X001691Y001118D01*
X001844Y001195D02*
X001998Y001348D01*
D12*
X006299Y008104D02*
X006049Y008354D01*
X006049Y008854D01*
X006299Y009104D01*
X006799Y009104D01*
X007049Y008854D01*
X007299Y009104D01*
X007799Y009104D01*
X008049Y008854D01*
X008299Y009104D01*
X008799Y009104D01*
X009049Y008854D01*
X009299Y009104D01*
X009799Y009104D01*
X010049Y008854D01*
X010049Y008354D01*
X009799Y008104D01*
X009299Y008104D01*
X009049Y008354D01*
X008799Y008104D01*
X008299Y008104D01*
X008049Y008354D01*
X007799Y008104D01*
X007299Y008104D01*
X007049Y008354D01*
X006799Y008104D01*
X006299Y008104D01*
X006299Y010033D02*
X006049Y010283D01*
X006049Y010783D01*
X006299Y011033D01*
X006799Y011033D01*
X007049Y010783D01*
X007299Y011033D01*
X007799Y011033D01*
X008049Y010783D01*
X008299Y011033D01*
X008799Y011033D01*
X009049Y010783D01*
X009299Y011033D01*
X009799Y011033D01*
X010049Y010783D01*
X010049Y010283D01*
X009799Y010033D01*
X009299Y010033D01*
X009049Y010283D01*
X008799Y010033D01*
X008299Y010033D01*
X008049Y010283D01*
X007799Y010033D01*
X007299Y010033D01*
X007049Y010283D01*
X006799Y010033D01*
X006299Y010033D01*
X008299Y007096D02*
X008799Y007096D01*
X009049Y006846D01*
X009299Y007096D01*
X009799Y007096D01*
X010049Y006846D01*
X010049Y006346D01*
X009799Y006096D01*
X009299Y006096D01*
X009049Y006346D01*
X008799Y006096D01*
X008299Y006096D01*
X008049Y006346D01*
X008049Y006846D01*
X008299Y007096D01*
M02*
