G75*
G70*
%OFA0B0*%
%FSLAX24Y24*%
%IPPOS*%
%LPD*%
%AMOC8*
5,1,8,0,0,1.08239X$1,22.5*
%
%ADD10C,0.5039*%
%ADD11C,0.0906*%
%ADD12R,0.0740X0.0740*%
%ADD13C,0.0740*%
%ADD14R,0.0748X0.0846*%
%ADD15R,0.0512X0.0472*%
%ADD16R,0.0531X0.0157*%
%ADD17C,0.0160*%
D10*
X005100Y003021D03*
D11*
X001006Y002391D03*
X001006Y003612D03*
X009194Y003612D03*
X009194Y002391D03*
D12*
X009549Y008604D03*
X009549Y010533D03*
D13*
X008549Y010533D03*
X007549Y010533D03*
X006549Y010533D03*
X006549Y008604D03*
X007549Y008604D03*
X008549Y008604D03*
X008549Y006596D03*
X009549Y006596D03*
D14*
X001104Y009088D03*
X001104Y010797D03*
D15*
X002285Y010927D03*
X002285Y008958D03*
D16*
X002120Y009431D03*
X002120Y009687D03*
X002120Y009943D03*
X002120Y010198D03*
X002120Y010454D03*
D17*
X004187Y010454D01*
X005009Y011277D01*
X007805Y011277D01*
X008549Y010533D01*
X009549Y010533D02*
X008446Y009431D01*
X002120Y009431D01*
X003565Y006163D02*
X006108Y006163D01*
X008549Y008604D01*
X009549Y008604D02*
X008486Y007541D01*
X007974Y007541D01*
X005100Y004667D01*
X005100Y003021D01*
X003565Y006163D02*
X001013Y003612D01*
X001006Y003612D01*
M02*
