G75*
G70*
%OFA0B0*%
%FSLAX24Y24*%
%IPPOS*%
%LPD*%
%AMOC8*
5,1,8,0,0,1.08239X$1,22.5*
%
%ADD10C,0.0050*%
%ADD11C,0.0040*%
%ADD12C,0.0060*%
%ADD13R,0.0340X0.0160*%
D10*
X004923Y007285D02*
X004923Y008939D01*
X004923Y009234D02*
X004923Y009450D01*
X005139Y009450D01*
X005435Y009450D02*
X007088Y009450D01*
X007088Y007285D01*
X004923Y007285D01*
X001714Y008506D02*
X000533Y008506D01*
X000533Y010986D01*
X001714Y010986D01*
X001714Y008506D01*
X002998Y014671D02*
X002998Y015852D01*
X005478Y015852D01*
X005478Y014671D01*
X002998Y014671D01*
X006931Y014667D02*
X006931Y015848D01*
X009411Y015848D01*
X009411Y014667D01*
X006931Y014667D01*
X010297Y010986D02*
X011478Y010986D01*
X011478Y008506D01*
X010297Y008506D01*
X010297Y010986D01*
D11*
X008202Y008533D02*
X008202Y008073D01*
X007972Y008073D01*
X007895Y008149D01*
X007895Y008456D01*
X007972Y008533D01*
X008202Y008533D01*
X007742Y008533D02*
X007742Y008303D01*
X007588Y008380D01*
X007511Y008380D01*
X007435Y008303D01*
X007435Y008149D01*
X007511Y008073D01*
X007665Y008073D01*
X007742Y008149D01*
X007742Y008533D02*
X007435Y008533D01*
X008304Y004816D02*
X008611Y004816D01*
X008611Y004586D01*
X008458Y004663D01*
X008381Y004663D01*
X008304Y004586D01*
X008304Y004433D01*
X008381Y004356D01*
X008535Y004356D01*
X008611Y004433D01*
X008765Y004356D02*
X008918Y004509D01*
X008842Y004509D02*
X009072Y004509D01*
X009072Y004356D02*
X009072Y004816D01*
X008842Y004816D01*
X008765Y004739D01*
X008765Y004586D01*
X008842Y004509D01*
X007217Y004651D02*
X007217Y004190D01*
X007217Y004344D02*
X006987Y004344D01*
X006910Y004421D01*
X006910Y004574D01*
X006987Y004651D01*
X007217Y004651D01*
X007064Y004344D02*
X006910Y004190D01*
X006757Y004267D02*
X006757Y004421D01*
X006527Y004421D01*
X006450Y004344D01*
X006450Y004267D01*
X006527Y004190D01*
X006680Y004190D01*
X006757Y004267D01*
X006757Y004421D02*
X006604Y004574D01*
X006450Y004651D01*
X005355Y004718D02*
X005355Y004257D01*
X005355Y004411D02*
X005125Y004411D01*
X005048Y004488D01*
X005048Y004641D01*
X005125Y004718D01*
X005355Y004718D01*
X005202Y004411D02*
X005048Y004257D01*
X004895Y004257D02*
X004895Y004334D01*
X004588Y004641D01*
X004588Y004718D01*
X004895Y004718D01*
X003867Y006844D02*
X003867Y007304D01*
X003637Y007304D01*
X003560Y007228D01*
X003560Y007074D01*
X003637Y006997D01*
X003867Y006997D01*
X003714Y006997D02*
X003560Y006844D01*
X003407Y006921D02*
X003407Y006997D01*
X003330Y007074D01*
X003176Y007074D01*
X003100Y006997D01*
X003100Y006921D01*
X003176Y006844D01*
X003330Y006844D01*
X003407Y006921D01*
X003330Y007074D02*
X003407Y007151D01*
X003407Y007228D01*
X003330Y007304D01*
X003176Y007304D01*
X003100Y007228D01*
X003100Y007151D01*
X003176Y007074D01*
X001777Y007405D02*
X001700Y007329D01*
X001547Y007329D01*
X001470Y007405D01*
X001470Y007482D01*
X001547Y007559D01*
X001700Y007559D01*
X001777Y007636D01*
X001777Y007712D01*
X001700Y007789D01*
X001547Y007789D01*
X001470Y007712D01*
X001316Y007789D02*
X001316Y007329D01*
X001163Y007482D01*
X001010Y007329D01*
X001010Y007789D01*
X000856Y007712D02*
X000856Y007636D01*
X000779Y007559D01*
X000626Y007559D01*
X000549Y007482D01*
X000549Y007405D01*
X000626Y007329D01*
X000779Y007329D01*
X000856Y007405D01*
X000856Y007482D01*
X000779Y007559D01*
X000626Y007559D02*
X000549Y007636D01*
X000549Y007712D01*
X000626Y007789D01*
X000779Y007789D01*
X000856Y007712D01*
X001088Y015596D02*
X001088Y015673D01*
X000781Y015980D01*
X000781Y016057D01*
X001088Y016057D01*
X001241Y016057D02*
X001241Y015596D01*
X001395Y015750D01*
X001548Y015596D01*
X001548Y016057D01*
X001701Y015980D02*
X001778Y016057D01*
X001932Y016057D01*
X002008Y015980D01*
X002008Y015903D01*
X001932Y015827D01*
X001778Y015827D01*
X001701Y015750D01*
X001701Y015673D01*
X001778Y015596D01*
X001932Y015596D01*
X002008Y015673D01*
X010178Y007726D02*
X010485Y007726D01*
X010485Y007496D01*
X010332Y007573D01*
X010255Y007573D01*
X010178Y007496D01*
X010178Y007342D01*
X010255Y007266D01*
X010409Y007266D01*
X010485Y007342D01*
X010639Y007266D02*
X010639Y007726D01*
X010792Y007419D02*
X010639Y007266D01*
X010792Y007419D02*
X010946Y007266D01*
X010946Y007726D01*
X011099Y007649D02*
X011176Y007726D01*
X011329Y007726D01*
X011406Y007649D01*
X011406Y007573D01*
X011329Y007496D01*
X011176Y007496D01*
X011099Y007419D01*
X011099Y007342D01*
X011176Y007266D01*
X011329Y007266D01*
X011406Y007342D01*
X011322Y015581D02*
X011475Y015581D01*
X011552Y015657D01*
X011475Y015811D02*
X011322Y015811D01*
X011245Y015734D01*
X011245Y015657D01*
X011322Y015581D01*
X011475Y015811D02*
X011552Y015888D01*
X011552Y015964D01*
X011475Y016041D01*
X011322Y016041D01*
X011245Y015964D01*
X011091Y016041D02*
X011091Y015581D01*
X010938Y015734D01*
X010784Y015581D01*
X010784Y016041D01*
X010631Y015811D02*
X010401Y015811D01*
X010324Y015734D01*
X010324Y015657D01*
X010401Y015581D01*
X010554Y015581D01*
X010631Y015657D01*
X010631Y015811D01*
X010477Y015964D01*
X010324Y016041D01*
D12*
X003306Y005979D02*
X003306Y005639D01*
X003587Y005639D02*
X003587Y005979D01*
X004881Y005782D02*
X004881Y005442D01*
X005161Y005442D02*
X005161Y005782D01*
X006850Y005782D02*
X006850Y005442D01*
X007130Y005442D02*
X007130Y005782D01*
X008424Y005639D02*
X008424Y005979D01*
X008705Y005979D02*
X008705Y005639D01*
D13*
X008565Y005559D03*
X008565Y006059D03*
X006990Y005862D03*
X006990Y005362D03*
X005021Y005362D03*
X005021Y005862D03*
X003446Y006059D03*
X003446Y005559D03*
M02*
