G75*
G70*
%OFA0B0*%
%FSLAX24Y24*%
%IPPOS*%
%LPD*%
%AMOC8*
5,1,8,0,0,1.08239X$1,22.5*
%
%ADD10R,0.0740X0.0740*%
%ADD11C,0.0740*%
%ADD12R,0.0591X0.0276*%
%ADD13R,0.0315X0.0394*%
%ADD14R,0.0276X0.0591*%
%ADD15R,0.0394X0.0315*%
%ADD16R,0.0433X0.0394*%
%ADD17R,0.1969X0.1142*%
%ADD18R,0.0441X0.0276*%
%ADD19R,0.0394X0.0276*%
%ADD20C,0.0472*%
%ADD21C,0.0160*%
D10*
X001281Y001675D03*
D11*
X002281Y001675D03*
X003281Y001675D03*
X004281Y001675D03*
D12*
X001813Y008860D03*
X001813Y010041D03*
X001813Y010631D03*
X010198Y010631D03*
X010198Y009450D03*
X010198Y008860D03*
D13*
X010454Y008309D03*
X011320Y008309D03*
X011320Y011183D03*
X010454Y011183D03*
X001557Y011183D03*
X000691Y011183D03*
X000691Y008309D03*
X001557Y008309D03*
D14*
X003352Y014572D03*
X004533Y014572D03*
X005124Y014572D03*
X007285Y014569D03*
X008466Y014569D03*
X009057Y014569D03*
D15*
X009608Y014824D03*
X009608Y015691D03*
X006734Y015691D03*
X006734Y014824D03*
X005675Y014828D03*
X005675Y015694D03*
X002801Y015694D03*
X002801Y014828D03*
D16*
X003446Y006143D03*
X003446Y005474D03*
X005021Y005277D03*
X005021Y005946D03*
X006990Y005946D03*
X006990Y005277D03*
X008565Y005474D03*
X008565Y006143D03*
D17*
X006006Y008368D03*
D18*
X006769Y009214D03*
X006769Y007521D03*
X005242Y007521D03*
X005242Y009214D03*
D19*
X005757Y009214D03*
X006254Y009214D03*
X006254Y007521D03*
X005757Y007521D03*
D20*
X005293Y009809D03*
X006978Y012037D03*
X007383Y012502D03*
X006502Y013076D03*
X005470Y013789D03*
X002856Y010631D03*
X002324Y011872D03*
X002620Y014175D03*
X002856Y008761D03*
X009057Y013305D03*
X009943Y011517D03*
X009533Y005395D03*
D21*
X000946Y001009D02*
X000588Y001368D01*
X000588Y002017D01*
X002730Y004159D01*
X002730Y008635D01*
X002856Y008761D01*
X001872Y008761D01*
X001813Y008860D01*
X001813Y010041D02*
X004415Y010041D01*
X005242Y009214D01*
X005293Y009809D02*
X005076Y009809D01*
X002856Y012029D01*
X002856Y013155D01*
X002620Y013391D01*
X002620Y014175D01*
X002954Y014175D01*
X003352Y014572D01*
X004533Y014572D02*
X004533Y014155D01*
X005761Y012927D01*
X005761Y009218D01*
X005757Y009214D01*
X006246Y009222D02*
X006254Y009214D01*
X006246Y009222D02*
X006246Y012179D01*
X008466Y014399D01*
X008466Y014569D01*
X009057Y014569D02*
X009057Y013305D01*
X008254Y012502D01*
X007383Y012502D01*
X006978Y012037D02*
X009423Y012037D01*
X009943Y011517D01*
X009943Y010927D01*
X010198Y010631D01*
X010198Y009450D02*
X007006Y009450D01*
X006769Y009214D01*
X006769Y007521D02*
X006793Y007498D01*
X006793Y007100D01*
X007750Y006143D01*
X008565Y006143D01*
X008565Y005474D02*
X007187Y005474D01*
X006990Y005277D01*
X005021Y005277D01*
X003643Y005277D01*
X003446Y005474D01*
X003446Y003840D01*
X001281Y001675D01*
X001604Y001009D02*
X000946Y001009D01*
X001604Y001009D02*
X002269Y001675D01*
X002281Y001675D01*
X005021Y005946D02*
X005757Y006683D01*
X005757Y007521D01*
X006246Y007462D02*
X006246Y006691D01*
X006990Y005946D01*
X006246Y007462D02*
X006254Y007470D01*
X006254Y007521D01*
X005242Y007521D02*
X005214Y007494D01*
X005214Y007061D01*
X004297Y006143D01*
X003446Y006143D01*
X002856Y010631D02*
X002856Y012029D01*
X002324Y011872D02*
X002324Y011163D01*
X001793Y010631D01*
X001813Y010631D01*
X005124Y014135D02*
X005470Y013789D01*
X005124Y014135D02*
X005124Y014572D01*
X006502Y013076D02*
X007285Y013860D01*
X007285Y014569D01*
X010167Y008860D02*
X009399Y008092D01*
X009399Y006309D01*
X009366Y006275D01*
X009533Y006108D01*
X009533Y005395D01*
X009366Y006275D02*
X008565Y005474D01*
X010167Y008860D02*
X010198Y008860D01*
M02*
