G75*
%MOIN*%
%OFA0B0*%
%FSLAX24Y24*%
%IPPOS*%
%LPD*%
%AMOC8*
5,1,8,0,0,1.08239X$1,22.5*
%
%ADD10C,0.0000*%
%ADD11C,0.0060*%
%ADD12C,0.0050*%
%ADD13C,0.0030*%
%ADD14C,0.0120*%
D10*
X000104Y000119D02*
X000100Y008390D01*
X004041Y008390D01*
X004041Y000123D01*
X000104Y000119D01*
X000714Y004453D02*
X000716Y004479D01*
X000722Y004505D01*
X000732Y004530D01*
X000745Y004553D01*
X000761Y004573D01*
X000781Y004591D01*
X000803Y004606D01*
X000826Y004618D01*
X000852Y004626D01*
X000878Y004630D01*
X000904Y004630D01*
X000930Y004626D01*
X000956Y004618D01*
X000980Y004606D01*
X001001Y004591D01*
X001021Y004573D01*
X001037Y004553D01*
X001050Y004530D01*
X001060Y004505D01*
X001066Y004479D01*
X001068Y004453D01*
X001066Y004427D01*
X001060Y004401D01*
X001050Y004376D01*
X001037Y004353D01*
X001021Y004333D01*
X001001Y004315D01*
X000979Y004300D01*
X000956Y004288D01*
X000930Y004280D01*
X000904Y004276D01*
X000878Y004276D01*
X000852Y004280D01*
X000826Y004288D01*
X000802Y004300D01*
X000781Y004315D01*
X000761Y004333D01*
X000745Y004353D01*
X000732Y004376D01*
X000722Y004401D01*
X000716Y004427D01*
X000714Y004453D01*
X000714Y005634D02*
X000716Y005660D01*
X000722Y005686D01*
X000732Y005711D01*
X000745Y005734D01*
X000761Y005754D01*
X000781Y005772D01*
X000803Y005787D01*
X000826Y005799D01*
X000852Y005807D01*
X000878Y005811D01*
X000904Y005811D01*
X000930Y005807D01*
X000956Y005799D01*
X000980Y005787D01*
X001001Y005772D01*
X001021Y005754D01*
X001037Y005734D01*
X001050Y005711D01*
X001060Y005686D01*
X001066Y005660D01*
X001068Y005634D01*
X001066Y005608D01*
X001060Y005582D01*
X001050Y005557D01*
X001037Y005534D01*
X001021Y005514D01*
X001001Y005496D01*
X000979Y005481D01*
X000956Y005469D01*
X000930Y005461D01*
X000904Y005457D01*
X000878Y005457D01*
X000852Y005461D01*
X000826Y005469D01*
X000802Y005481D01*
X000781Y005496D01*
X000761Y005514D01*
X000745Y005534D01*
X000732Y005557D01*
X000722Y005582D01*
X000716Y005608D01*
X000714Y005634D01*
D11*
X001019Y004425D02*
X000919Y004325D01*
X000919Y002975D01*
X000919Y002475D02*
X000919Y001825D01*
X001019Y001725D01*
X001269Y001725D01*
X002019Y001725D01*
X001869Y001875D02*
X001269Y001875D01*
X001269Y001725D01*
X001716Y001410D02*
X001466Y001160D01*
X001466Y000660D01*
X001716Y000410D01*
X002216Y000410D01*
X002466Y000660D01*
X002716Y000410D01*
X003216Y000410D01*
X003466Y000660D01*
X003466Y001160D01*
X003216Y001410D01*
X002716Y001410D01*
X002466Y001160D01*
X002466Y000660D01*
X002466Y001160D02*
X002216Y001410D01*
X001716Y001410D01*
X002119Y002475D02*
X002119Y002775D01*
X002419Y002775D01*
X002419Y002925D01*
X002569Y003075D01*
X002869Y003075D01*
X002869Y003375D01*
X002569Y003375D01*
X002419Y003525D01*
X002419Y003675D01*
X002419Y003975D01*
X002119Y003975D01*
X002119Y003675D01*
X002119Y003525D01*
X001969Y003375D01*
X001669Y003375D01*
X001669Y003075D01*
X001969Y003075D01*
X002119Y002925D01*
X002119Y002775D01*
X002119Y002475D02*
X002419Y002475D01*
X002419Y002775D01*
X002669Y001875D02*
X003269Y001875D01*
X003269Y001725D01*
X003519Y001725D01*
X003619Y001825D01*
X003619Y002475D01*
X003619Y002975D02*
X003619Y004325D01*
X003519Y004425D01*
X001019Y004425D01*
X002119Y003675D02*
X002419Y003675D01*
X002519Y001725D02*
X003269Y001725D01*
X002822Y007103D02*
X002322Y007103D01*
X002072Y007353D01*
X001822Y007103D01*
X001322Y007103D01*
X001072Y007353D01*
X001072Y007853D01*
X001322Y008103D01*
X001822Y008103D01*
X002072Y007853D01*
X002322Y008103D01*
X002822Y008103D01*
X003072Y007853D01*
X003072Y007353D01*
X002822Y007103D01*
X002072Y007353D02*
X002072Y007853D01*
D12*
X001620Y006375D02*
X001620Y005288D01*
X001619Y005288D02*
X001655Y005236D01*
X001694Y005186D01*
X001736Y005139D01*
X001780Y005095D01*
X001827Y005054D01*
X001877Y005015D01*
X001929Y004980D01*
X001984Y004948D01*
X002040Y004920D01*
X002097Y004895D01*
X002157Y004874D01*
X002217Y004856D01*
X002278Y004843D01*
X002341Y004833D01*
X002403Y004827D01*
X002466Y004825D01*
X002529Y004827D01*
X002591Y004833D01*
X002654Y004843D01*
X002715Y004856D01*
X002775Y004874D01*
X002835Y004895D01*
X002892Y004920D01*
X002948Y004948D01*
X003003Y004980D01*
X003055Y005015D01*
X003105Y005054D01*
X003152Y005095D01*
X003196Y005139D01*
X003238Y005186D01*
X003277Y005236D01*
X003313Y005288D01*
X003313Y006375D01*
X003313Y006374D02*
X003277Y006426D01*
X003238Y006476D01*
X003196Y006523D01*
X003152Y006567D01*
X003105Y006608D01*
X003055Y006647D01*
X003003Y006682D01*
X002948Y006714D01*
X002892Y006742D01*
X002835Y006767D01*
X002775Y006788D01*
X002715Y006806D01*
X002654Y006819D01*
X002591Y006829D01*
X002529Y006835D01*
X002466Y006837D01*
X002403Y006835D01*
X002341Y006829D01*
X002278Y006819D01*
X002217Y006806D01*
X002157Y006788D01*
X002097Y006767D01*
X002040Y006742D01*
X001984Y006714D01*
X001929Y006682D01*
X001877Y006647D01*
X001827Y006608D01*
X001780Y006567D01*
X001736Y006523D01*
X001694Y006476D01*
X001655Y006426D01*
X001619Y006374D01*
X001258Y002341D02*
X001258Y002000D01*
X001371Y002000D02*
X001144Y002000D01*
X001144Y002227D02*
X001258Y002341D01*
X003244Y002284D02*
X003301Y002341D01*
X003414Y002341D01*
X003471Y002284D01*
X003471Y002227D01*
X003414Y002170D01*
X003471Y002114D01*
X003471Y002057D01*
X003414Y002000D01*
X003301Y002000D01*
X003244Y002057D01*
X003358Y002170D02*
X003414Y002170D01*
D13*
X001484Y006504D02*
X001291Y006504D01*
X001388Y006504D02*
X001388Y006794D01*
X001291Y006697D01*
X001190Y006746D02*
X001141Y006794D01*
X001045Y006794D01*
X000996Y006746D01*
X000996Y006552D01*
X001045Y006504D01*
X001141Y006504D01*
X001190Y006552D01*
X000895Y006649D02*
X000847Y006600D01*
X000702Y006600D01*
X000702Y006504D02*
X000702Y006794D01*
X000847Y006794D01*
X000895Y006746D01*
X000895Y006649D01*
X000786Y004861D02*
X000641Y004861D01*
X000641Y004571D01*
X000641Y004667D02*
X000786Y004667D01*
X000834Y004716D01*
X000834Y004813D01*
X000786Y004861D01*
X000737Y004667D02*
X000834Y004571D01*
X000935Y004571D02*
X001129Y004571D01*
X001032Y004571D02*
X001032Y004861D01*
X000935Y004764D01*
D14*
X001419Y003975D02*
X001519Y003875D01*
X001329Y003225D02*
X001179Y003225D01*
X002269Y004145D02*
X002269Y004295D01*
X002969Y003875D02*
X003069Y003975D01*
X003209Y003225D02*
X003359Y003225D01*
M02*
