G75*
%MOIN*%
%OFA0B0*%
%FSLAX24Y24*%
%IPPOS*%
%LPD*%
%AMOC8*
5,1,8,0,0,1.08239X$1,22.5*
%
%ADD10C,0.0000*%
%ADD11C,0.0060*%
%ADD12C,0.0050*%
%ADD13C,0.0030*%
%ADD14C,0.0120*%
D10*
X000123Y000103D02*
X000123Y006993D01*
X004847Y006993D01*
X004847Y000103D01*
X000123Y000103D01*
X000930Y003843D02*
X000932Y003869D01*
X000938Y003895D01*
X000948Y003920D01*
X000961Y003943D01*
X000977Y003963D01*
X000997Y003981D01*
X001019Y003996D01*
X001042Y004008D01*
X001068Y004016D01*
X001094Y004020D01*
X001120Y004020D01*
X001146Y004016D01*
X001172Y004008D01*
X001196Y003996D01*
X001217Y003981D01*
X001237Y003963D01*
X001253Y003943D01*
X001266Y003920D01*
X001276Y003895D01*
X001282Y003869D01*
X001284Y003843D01*
X001282Y003817D01*
X001276Y003791D01*
X001266Y003766D01*
X001253Y003743D01*
X001237Y003723D01*
X001217Y003705D01*
X001195Y003690D01*
X001172Y003678D01*
X001146Y003670D01*
X001120Y003666D01*
X001094Y003666D01*
X001068Y003670D01*
X001042Y003678D01*
X001018Y003690D01*
X000997Y003705D01*
X000977Y003723D01*
X000961Y003743D01*
X000948Y003766D01*
X000938Y003791D01*
X000932Y003817D01*
X000930Y003843D01*
X000930Y005024D02*
X000932Y005050D01*
X000938Y005076D01*
X000948Y005101D01*
X000961Y005124D01*
X000977Y005144D01*
X000997Y005162D01*
X001019Y005177D01*
X001042Y005189D01*
X001068Y005197D01*
X001094Y005201D01*
X001120Y005201D01*
X001146Y005197D01*
X001172Y005189D01*
X001196Y005177D01*
X001217Y005162D01*
X001237Y005144D01*
X001253Y005124D01*
X001266Y005101D01*
X001276Y005076D01*
X001282Y005050D01*
X001284Y005024D01*
X001282Y004998D01*
X001276Y004972D01*
X001266Y004947D01*
X001253Y004924D01*
X001237Y004904D01*
X001217Y004886D01*
X001195Y004871D01*
X001172Y004859D01*
X001146Y004851D01*
X001120Y004847D01*
X001094Y004847D01*
X001068Y004851D01*
X001042Y004859D01*
X001018Y004871D01*
X000997Y004886D01*
X000977Y004904D01*
X000961Y004924D01*
X000948Y004947D01*
X000938Y004972D01*
X000932Y004998D01*
X000930Y005024D01*
D11*
X001749Y005936D02*
X001749Y006436D01*
X001999Y006686D01*
X002499Y006686D01*
X002749Y006436D01*
X002999Y006686D01*
X003499Y006686D01*
X003749Y006436D01*
X003749Y005936D01*
X003499Y005686D01*
X002999Y005686D01*
X002749Y005936D01*
X002499Y005686D01*
X001999Y005686D01*
X001749Y005936D01*
X002749Y005936D02*
X002749Y006436D01*
X001825Y003028D02*
X001725Y002928D01*
X001725Y001578D01*
X001410Y001428D02*
X001410Y000928D01*
X001160Y000678D01*
X000660Y000678D01*
X000410Y000928D01*
X000410Y001428D01*
X000660Y001678D01*
X000410Y001928D01*
X000410Y002428D01*
X000660Y002678D01*
X001160Y002678D01*
X001410Y002428D01*
X001410Y001928D01*
X001160Y001678D01*
X001410Y001428D01*
X001160Y001678D02*
X000660Y001678D01*
X001725Y001078D02*
X001725Y000428D01*
X001825Y000328D01*
X002075Y000328D01*
X002825Y000328D01*
X002675Y000478D02*
X002075Y000478D01*
X002075Y000328D01*
X002925Y001078D02*
X002925Y001378D01*
X003225Y001378D01*
X003225Y001528D01*
X003375Y001678D01*
X003675Y001678D01*
X003675Y001978D01*
X003375Y001978D01*
X003225Y002128D01*
X003225Y002278D01*
X003225Y002578D01*
X002925Y002578D01*
X002925Y002278D01*
X002925Y002128D01*
X002775Y001978D01*
X002475Y001978D01*
X002475Y001678D01*
X002775Y001678D01*
X002925Y001528D01*
X002925Y001378D01*
X002925Y001078D02*
X003225Y001078D01*
X003225Y001378D01*
X003225Y002278D02*
X002925Y002278D01*
X001825Y003028D02*
X004325Y003028D01*
X004425Y002928D01*
X004425Y001578D01*
X004425Y001078D02*
X004425Y000428D01*
X004325Y000328D01*
X004075Y000328D01*
X003325Y000328D01*
X003475Y000478D02*
X004075Y000478D01*
X004075Y000328D01*
D12*
X004107Y000603D02*
X004050Y000660D01*
X004107Y000603D02*
X004220Y000603D01*
X004277Y000660D01*
X004277Y000716D01*
X004220Y000773D01*
X004164Y000773D01*
X004220Y000773D02*
X004277Y000830D01*
X004277Y000887D01*
X004220Y000943D01*
X004107Y000943D01*
X004050Y000887D01*
X002177Y000603D02*
X001950Y000603D01*
X002064Y000603D02*
X002064Y000943D01*
X001950Y000830D01*
X002426Y003891D02*
X002426Y004977D01*
X002425Y004977D02*
X002461Y005029D01*
X002500Y005079D01*
X002542Y005126D01*
X002586Y005170D01*
X002633Y005211D01*
X002683Y005250D01*
X002735Y005285D01*
X002790Y005317D01*
X002846Y005345D01*
X002903Y005370D01*
X002963Y005391D01*
X003023Y005409D01*
X003084Y005422D01*
X003147Y005432D01*
X003209Y005438D01*
X003272Y005440D01*
X003335Y005438D01*
X003397Y005432D01*
X003460Y005422D01*
X003521Y005409D01*
X003581Y005391D01*
X003641Y005370D01*
X003698Y005345D01*
X003754Y005317D01*
X003809Y005285D01*
X003861Y005250D01*
X003911Y005211D01*
X003958Y005170D01*
X004002Y005126D01*
X004044Y005079D01*
X004083Y005029D01*
X004119Y004977D01*
X004119Y003891D01*
X004083Y003839D01*
X004044Y003789D01*
X004002Y003742D01*
X003958Y003698D01*
X003911Y003657D01*
X003861Y003618D01*
X003809Y003583D01*
X003754Y003551D01*
X003698Y003523D01*
X003641Y003498D01*
X003581Y003477D01*
X003521Y003459D01*
X003460Y003446D01*
X003397Y003436D01*
X003335Y003430D01*
X003272Y003428D01*
X003209Y003430D01*
X003147Y003436D01*
X003084Y003446D01*
X003023Y003459D01*
X002963Y003477D01*
X002903Y003498D01*
X002846Y003523D01*
X002790Y003551D01*
X002735Y003583D01*
X002683Y003618D01*
X002633Y003657D01*
X002586Y003698D01*
X002542Y003742D01*
X002500Y003789D01*
X002461Y003839D01*
X002425Y003891D01*
D13*
X001935Y003173D02*
X001741Y003173D01*
X001838Y003173D02*
X001838Y003464D01*
X001741Y003367D01*
X001640Y003415D02*
X001640Y003318D01*
X001592Y003270D01*
X001447Y003270D01*
X001543Y003270D02*
X001640Y003173D01*
X001447Y003173D02*
X001447Y003464D01*
X001592Y003464D01*
X001640Y003415D01*
X001508Y005106D02*
X001508Y005397D01*
X001653Y005397D01*
X001701Y005348D01*
X001701Y005251D01*
X001653Y005203D01*
X001508Y005203D01*
X001802Y005155D02*
X001851Y005106D01*
X001947Y005106D01*
X001996Y005155D01*
X002097Y005106D02*
X002290Y005106D01*
X002194Y005106D02*
X002194Y005397D01*
X002097Y005300D01*
X001996Y005348D02*
X001947Y005397D01*
X001851Y005397D01*
X001802Y005348D01*
X001802Y005155D01*
D14*
X003075Y002898D02*
X003075Y002748D01*
X003775Y002478D02*
X003875Y002578D01*
X004015Y001828D02*
X004165Y001828D01*
X002325Y002478D02*
X002225Y002578D01*
X002135Y001828D02*
X001985Y001828D01*
M02*
