G75*
%MOIN*%
%OFA0B0*%
%FSLAX24Y24*%
%IPPOS*%
%LPD*%
%AMOC8*
5,1,8,0,0,1.08239X$1,22.5*
%
%ADD10C,0.0000*%
%ADD11C,0.0050*%
%ADD12C,0.0030*%
D10*
X000123Y000103D02*
X000123Y006993D01*
X004847Y006993D01*
X004847Y000103D01*
X000123Y000103D01*
X000930Y003843D02*
X000932Y003869D01*
X000938Y003895D01*
X000948Y003920D01*
X000961Y003943D01*
X000977Y003963D01*
X000997Y003981D01*
X001019Y003996D01*
X001042Y004008D01*
X001068Y004016D01*
X001094Y004020D01*
X001120Y004020D01*
X001146Y004016D01*
X001172Y004008D01*
X001196Y003996D01*
X001217Y003981D01*
X001237Y003963D01*
X001253Y003943D01*
X001266Y003920D01*
X001276Y003895D01*
X001282Y003869D01*
X001284Y003843D01*
X001282Y003817D01*
X001276Y003791D01*
X001266Y003766D01*
X001253Y003743D01*
X001237Y003723D01*
X001217Y003705D01*
X001195Y003690D01*
X001172Y003678D01*
X001146Y003670D01*
X001120Y003666D01*
X001094Y003666D01*
X001068Y003670D01*
X001042Y003678D01*
X001018Y003690D01*
X000997Y003705D01*
X000977Y003723D01*
X000961Y003743D01*
X000948Y003766D01*
X000938Y003791D01*
X000932Y003817D01*
X000930Y003843D01*
X000930Y005024D02*
X000932Y005050D01*
X000938Y005076D01*
X000948Y005101D01*
X000961Y005124D01*
X000977Y005144D01*
X000997Y005162D01*
X001019Y005177D01*
X001042Y005189D01*
X001068Y005197D01*
X001094Y005201D01*
X001120Y005201D01*
X001146Y005197D01*
X001172Y005189D01*
X001196Y005177D01*
X001217Y005162D01*
X001237Y005144D01*
X001253Y005124D01*
X001266Y005101D01*
X001276Y005076D01*
X001282Y005050D01*
X001284Y005024D01*
X001282Y004998D01*
X001276Y004972D01*
X001266Y004947D01*
X001253Y004924D01*
X001237Y004904D01*
X001217Y004886D01*
X001195Y004871D01*
X001172Y004859D01*
X001146Y004851D01*
X001120Y004847D01*
X001094Y004847D01*
X001068Y004851D01*
X001042Y004859D01*
X001018Y004871D01*
X000997Y004886D01*
X000977Y004904D01*
X000961Y004924D01*
X000948Y004947D01*
X000938Y004972D01*
X000932Y004998D01*
X000930Y005024D01*
D11*
X000516Y005674D02*
X000516Y003194D01*
X001697Y003194D01*
X001697Y005674D01*
X000516Y005674D01*
D12*
X000557Y006272D02*
X000751Y006272D01*
X000654Y006272D02*
X000654Y006562D01*
X000751Y006465D01*
X000852Y006562D02*
X000852Y006272D01*
X000948Y006368D01*
X001045Y006272D01*
X001045Y006562D01*
X001146Y006514D02*
X001195Y006562D01*
X001292Y006562D01*
X001340Y006514D01*
X001340Y006465D01*
X001292Y006417D01*
X001195Y006417D01*
X001146Y006368D01*
X001146Y006320D01*
X001195Y006272D01*
X001292Y006272D01*
X001340Y006320D01*
M02*
