G75*
%MOIN*%
%OFA0B0*%
%FSLAX24Y24*%
%IPPOS*%
%LPD*%
%AMOC8*
5,1,8,0,0,1.08239X$1,22.5*
%
%ADD10C,0.0000*%
%ADD11C,0.0060*%
%ADD12C,0.0050*%
%ADD13C,0.0030*%
%ADD14C,0.0120*%
D10*
X000104Y000119D02*
X000100Y008390D01*
X003647Y008390D01*
X003647Y000123D01*
X000104Y000119D01*
X000714Y004749D02*
X000716Y004775D01*
X000722Y004801D01*
X000732Y004826D01*
X000745Y004849D01*
X000761Y004869D01*
X000781Y004887D01*
X000803Y004902D01*
X000826Y004914D01*
X000852Y004922D01*
X000878Y004926D01*
X000904Y004926D01*
X000930Y004922D01*
X000956Y004914D01*
X000980Y004902D01*
X001001Y004887D01*
X001021Y004869D01*
X001037Y004849D01*
X001050Y004826D01*
X001060Y004801D01*
X001066Y004775D01*
X001068Y004749D01*
X001066Y004723D01*
X001060Y004697D01*
X001050Y004672D01*
X001037Y004649D01*
X001021Y004629D01*
X001001Y004611D01*
X000979Y004596D01*
X000956Y004584D01*
X000930Y004576D01*
X000904Y004572D01*
X000878Y004572D01*
X000852Y004576D01*
X000826Y004584D01*
X000802Y004596D01*
X000781Y004611D01*
X000761Y004629D01*
X000745Y004649D01*
X000732Y004672D01*
X000722Y004697D01*
X000716Y004723D01*
X000714Y004749D01*
X000714Y005930D02*
X000716Y005956D01*
X000722Y005982D01*
X000732Y006007D01*
X000745Y006030D01*
X000761Y006050D01*
X000781Y006068D01*
X000803Y006083D01*
X000826Y006095D01*
X000852Y006103D01*
X000878Y006107D01*
X000904Y006107D01*
X000930Y006103D01*
X000956Y006095D01*
X000980Y006083D01*
X001001Y006068D01*
X001021Y006050D01*
X001037Y006030D01*
X001050Y006007D01*
X001060Y005982D01*
X001066Y005956D01*
X001068Y005930D01*
X001066Y005904D01*
X001060Y005878D01*
X001050Y005853D01*
X001037Y005830D01*
X001021Y005810D01*
X001001Y005792D01*
X000979Y005777D01*
X000956Y005765D01*
X000930Y005757D01*
X000904Y005753D01*
X000878Y005753D01*
X000852Y005757D01*
X000826Y005765D01*
X000802Y005777D01*
X000781Y005792D01*
X000761Y005810D01*
X000745Y005830D01*
X000732Y005853D01*
X000722Y005878D01*
X000716Y005904D01*
X000714Y005930D01*
D11*
X000822Y004327D02*
X000722Y004227D01*
X000722Y002877D01*
X000722Y002377D02*
X000722Y001727D01*
X000822Y001627D01*
X001072Y001627D01*
X001822Y001627D01*
X001822Y001410D02*
X002072Y001160D01*
X002322Y001410D01*
X002822Y001410D01*
X003072Y001160D01*
X003072Y000660D01*
X002822Y000410D01*
X002322Y000410D01*
X002072Y000660D01*
X001822Y000410D01*
X001322Y000410D01*
X001072Y000660D01*
X001072Y001160D01*
X001322Y001410D01*
X001822Y001410D01*
X001672Y001777D02*
X001072Y001777D01*
X001072Y001627D01*
X001472Y002977D02*
X001772Y002977D01*
X001922Y002827D01*
X001922Y002677D01*
X001922Y002377D01*
X002222Y002377D01*
X002222Y002677D01*
X002222Y002827D01*
X002372Y002977D01*
X002672Y002977D01*
X002672Y003277D01*
X002372Y003277D01*
X002222Y003427D01*
X002222Y003577D01*
X002222Y003877D01*
X001922Y003877D01*
X001922Y003577D01*
X001922Y003427D01*
X001772Y003277D01*
X001472Y003277D01*
X001472Y002977D01*
X001922Y002677D02*
X002222Y002677D01*
X002222Y003577D02*
X001922Y003577D01*
X002472Y001777D02*
X003072Y001777D01*
X003072Y001627D01*
X003322Y001627D01*
X003422Y001727D01*
X003422Y002377D01*
X003422Y002877D02*
X003422Y004227D01*
X003322Y004327D01*
X000822Y004327D01*
X001720Y007103D02*
X001470Y007353D01*
X001470Y007853D01*
X001720Y008103D01*
X002220Y008103D01*
X002470Y007853D01*
X002720Y008103D01*
X003220Y008103D01*
X003470Y007853D01*
X003470Y007353D01*
X003220Y007103D01*
X002720Y007103D01*
X002470Y007353D01*
X002220Y007103D01*
X001720Y007103D01*
X002470Y007353D02*
X002470Y007853D01*
X002322Y001627D02*
X003072Y001627D01*
X002072Y001160D02*
X002072Y000660D01*
D12*
X001174Y001902D02*
X000947Y001902D01*
X001061Y001902D02*
X001061Y002242D01*
X000947Y002129D01*
X001620Y005190D02*
X001620Y006276D01*
X001619Y006276D02*
X001655Y006328D01*
X001694Y006378D01*
X001736Y006425D01*
X001780Y006469D01*
X001827Y006510D01*
X001877Y006549D01*
X001929Y006584D01*
X001984Y006616D01*
X002040Y006644D01*
X002097Y006669D01*
X002157Y006690D01*
X002217Y006708D01*
X002278Y006721D01*
X002341Y006731D01*
X002403Y006737D01*
X002466Y006739D01*
X002529Y006737D01*
X002591Y006731D01*
X002654Y006721D01*
X002715Y006708D01*
X002775Y006690D01*
X002835Y006669D01*
X002892Y006644D01*
X002948Y006616D01*
X003003Y006584D01*
X003055Y006549D01*
X003105Y006510D01*
X003152Y006469D01*
X003196Y006425D01*
X003238Y006378D01*
X003277Y006328D01*
X003313Y006276D01*
X003313Y005190D01*
X003277Y005138D01*
X003238Y005088D01*
X003196Y005041D01*
X003152Y004997D01*
X003105Y004956D01*
X003055Y004917D01*
X003003Y004882D01*
X002948Y004850D01*
X002892Y004822D01*
X002835Y004797D01*
X002775Y004776D01*
X002715Y004758D01*
X002654Y004745D01*
X002591Y004735D01*
X002529Y004729D01*
X002466Y004727D01*
X002403Y004729D01*
X002341Y004735D01*
X002278Y004745D01*
X002217Y004758D01*
X002157Y004776D01*
X002097Y004797D01*
X002040Y004822D01*
X001984Y004850D01*
X001929Y004882D01*
X001877Y004917D01*
X001827Y004956D01*
X001780Y004997D01*
X001736Y005041D01*
X001694Y005088D01*
X001655Y005138D01*
X001619Y005190D01*
X003104Y002242D02*
X003047Y002186D01*
X003104Y002242D02*
X003218Y002242D01*
X003274Y002186D01*
X003274Y002129D01*
X003218Y002072D01*
X003274Y002015D01*
X003274Y001959D01*
X003218Y001902D01*
X003104Y001902D01*
X003047Y001959D01*
X003161Y002072D02*
X003218Y002072D01*
D13*
X003196Y004449D02*
X003100Y004545D01*
X003148Y004545D02*
X003003Y004545D01*
X003003Y004449D02*
X003003Y004739D01*
X003148Y004739D01*
X003196Y004690D01*
X003196Y004594D01*
X003148Y004545D01*
X003297Y004449D02*
X003491Y004449D01*
X003394Y004449D02*
X003394Y004739D01*
X003297Y004642D01*
X001484Y006405D02*
X001291Y006405D01*
X001388Y006405D02*
X001388Y006696D01*
X001291Y006599D01*
X001190Y006647D02*
X001141Y006696D01*
X001045Y006696D01*
X000996Y006647D01*
X000996Y006454D01*
X001045Y006405D01*
X001141Y006405D01*
X001190Y006454D01*
X000895Y006550D02*
X000847Y006502D01*
X000702Y006502D01*
X000702Y006405D02*
X000702Y006696D01*
X000847Y006696D01*
X000895Y006647D01*
X000895Y006550D01*
D14*
X002072Y004197D02*
X002072Y004047D01*
X002772Y003777D02*
X002872Y003877D01*
X003012Y003127D02*
X003162Y003127D01*
X001322Y003777D02*
X001222Y003877D01*
X001132Y003127D02*
X000982Y003127D01*
M02*
