G75*
%MOIN*%
%OFA0B0*%
%FSLAX24Y24*%
%IPPOS*%
%LPD*%
%AMOC8*
5,1,8,0,0,1.08239X$1,22.5*
%
%ADD10C,0.0000*%
D10*
X000104Y000119D02*
X000100Y008390D01*
X003647Y008390D01*
X003647Y000123D01*
X000104Y000119D01*
X000714Y004749D02*
X000716Y004775D01*
X000722Y004801D01*
X000732Y004826D01*
X000745Y004849D01*
X000761Y004869D01*
X000781Y004887D01*
X000803Y004902D01*
X000826Y004914D01*
X000852Y004922D01*
X000878Y004926D01*
X000904Y004926D01*
X000930Y004922D01*
X000956Y004914D01*
X000980Y004902D01*
X001001Y004887D01*
X001021Y004869D01*
X001037Y004849D01*
X001050Y004826D01*
X001060Y004801D01*
X001066Y004775D01*
X001068Y004749D01*
X001066Y004723D01*
X001060Y004697D01*
X001050Y004672D01*
X001037Y004649D01*
X001021Y004629D01*
X001001Y004611D01*
X000979Y004596D01*
X000956Y004584D01*
X000930Y004576D01*
X000904Y004572D01*
X000878Y004572D01*
X000852Y004576D01*
X000826Y004584D01*
X000802Y004596D01*
X000781Y004611D01*
X000761Y004629D01*
X000745Y004649D01*
X000732Y004672D01*
X000722Y004697D01*
X000716Y004723D01*
X000714Y004749D01*
X000714Y005930D02*
X000716Y005956D01*
X000722Y005982D01*
X000732Y006007D01*
X000745Y006030D01*
X000761Y006050D01*
X000781Y006068D01*
X000803Y006083D01*
X000826Y006095D01*
X000852Y006103D01*
X000878Y006107D01*
X000904Y006107D01*
X000930Y006103D01*
X000956Y006095D01*
X000980Y006083D01*
X001001Y006068D01*
X001021Y006050D01*
X001037Y006030D01*
X001050Y006007D01*
X001060Y005982D01*
X001066Y005956D01*
X001068Y005930D01*
X001066Y005904D01*
X001060Y005878D01*
X001050Y005853D01*
X001037Y005830D01*
X001021Y005810D01*
X001001Y005792D01*
X000979Y005777D01*
X000956Y005765D01*
X000930Y005757D01*
X000904Y005753D01*
X000878Y005753D01*
X000852Y005757D01*
X000826Y005765D01*
X000802Y005777D01*
X000781Y005792D01*
X000761Y005810D01*
X000745Y005830D01*
X000732Y005853D01*
X000722Y005878D01*
X000716Y005904D01*
X000714Y005930D01*
M02*
