G75*
%MOIN*%
%OFA0B0*%
%FSLAX25Y25*%
%IPPOS*%
%LPD*%
%AMOC8*
5,1,8,0,0,1.08239X$1,22.5*
%
%ADD10C,0.00000*%
D10*
X0001039Y0001187D02*
X0001000Y0083903D01*
X0036472Y0083903D01*
X0036472Y0001226D01*
X0001039Y0001187D01*
X0007141Y0047486D02*
X0007143Y0047570D01*
X0007149Y0047653D01*
X0007159Y0047736D01*
X0007173Y0047819D01*
X0007190Y0047901D01*
X0007212Y0047982D01*
X0007237Y0048061D01*
X0007266Y0048140D01*
X0007299Y0048217D01*
X0007335Y0048292D01*
X0007375Y0048366D01*
X0007418Y0048438D01*
X0007465Y0048507D01*
X0007515Y0048574D01*
X0007568Y0048639D01*
X0007624Y0048701D01*
X0007682Y0048761D01*
X0007744Y0048818D01*
X0007808Y0048871D01*
X0007875Y0048922D01*
X0007944Y0048969D01*
X0008015Y0049014D01*
X0008088Y0049054D01*
X0008163Y0049091D01*
X0008240Y0049125D01*
X0008318Y0049155D01*
X0008397Y0049181D01*
X0008478Y0049204D01*
X0008560Y0049222D01*
X0008642Y0049237D01*
X0008725Y0049248D01*
X0008808Y0049255D01*
X0008892Y0049258D01*
X0008976Y0049257D01*
X0009059Y0049252D01*
X0009143Y0049243D01*
X0009225Y0049230D01*
X0009307Y0049214D01*
X0009388Y0049193D01*
X0009469Y0049169D01*
X0009547Y0049141D01*
X0009625Y0049109D01*
X0009701Y0049073D01*
X0009775Y0049034D01*
X0009847Y0048992D01*
X0009917Y0048946D01*
X0009985Y0048897D01*
X0010050Y0048845D01*
X0010113Y0048790D01*
X0010173Y0048732D01*
X0010231Y0048671D01*
X0010285Y0048607D01*
X0010337Y0048541D01*
X0010385Y0048473D01*
X0010430Y0048402D01*
X0010471Y0048329D01*
X0010510Y0048255D01*
X0010544Y0048179D01*
X0010575Y0048101D01*
X0010602Y0048022D01*
X0010626Y0047941D01*
X0010645Y0047860D01*
X0010661Y0047778D01*
X0010673Y0047695D01*
X0010681Y0047611D01*
X0010685Y0047528D01*
X0010685Y0047444D01*
X0010681Y0047361D01*
X0010673Y0047277D01*
X0010661Y0047194D01*
X0010645Y0047112D01*
X0010626Y0047031D01*
X0010602Y0046950D01*
X0010575Y0046871D01*
X0010544Y0046793D01*
X0010510Y0046717D01*
X0010471Y0046643D01*
X0010430Y0046570D01*
X0010385Y0046499D01*
X0010337Y0046431D01*
X0010285Y0046365D01*
X0010231Y0046301D01*
X0010173Y0046240D01*
X0010113Y0046182D01*
X0010050Y0046127D01*
X0009985Y0046075D01*
X0009917Y0046026D01*
X0009847Y0045980D01*
X0009775Y0045938D01*
X0009701Y0045899D01*
X0009625Y0045863D01*
X0009547Y0045831D01*
X0009469Y0045803D01*
X0009388Y0045779D01*
X0009307Y0045758D01*
X0009225Y0045742D01*
X0009143Y0045729D01*
X0009059Y0045720D01*
X0008976Y0045715D01*
X0008892Y0045714D01*
X0008808Y0045717D01*
X0008725Y0045724D01*
X0008642Y0045735D01*
X0008560Y0045750D01*
X0008478Y0045768D01*
X0008397Y0045791D01*
X0008318Y0045817D01*
X0008240Y0045847D01*
X0008163Y0045881D01*
X0008088Y0045918D01*
X0008015Y0045958D01*
X0007944Y0046003D01*
X0007875Y0046050D01*
X0007808Y0046101D01*
X0007744Y0046154D01*
X0007682Y0046211D01*
X0007624Y0046271D01*
X0007568Y0046333D01*
X0007515Y0046398D01*
X0007465Y0046465D01*
X0007418Y0046534D01*
X0007375Y0046606D01*
X0007335Y0046680D01*
X0007299Y0046755D01*
X0007266Y0046832D01*
X0007237Y0046911D01*
X0007212Y0046990D01*
X0007190Y0047071D01*
X0007173Y0047153D01*
X0007159Y0047236D01*
X0007149Y0047319D01*
X0007143Y0047402D01*
X0007141Y0047486D01*
X0007141Y0059297D02*
X0007143Y0059381D01*
X0007149Y0059464D01*
X0007159Y0059547D01*
X0007173Y0059630D01*
X0007190Y0059712D01*
X0007212Y0059793D01*
X0007237Y0059872D01*
X0007266Y0059951D01*
X0007299Y0060028D01*
X0007335Y0060103D01*
X0007375Y0060177D01*
X0007418Y0060249D01*
X0007465Y0060318D01*
X0007515Y0060385D01*
X0007568Y0060450D01*
X0007624Y0060512D01*
X0007682Y0060572D01*
X0007744Y0060629D01*
X0007808Y0060682D01*
X0007875Y0060733D01*
X0007944Y0060780D01*
X0008015Y0060825D01*
X0008088Y0060865D01*
X0008163Y0060902D01*
X0008240Y0060936D01*
X0008318Y0060966D01*
X0008397Y0060992D01*
X0008478Y0061015D01*
X0008560Y0061033D01*
X0008642Y0061048D01*
X0008725Y0061059D01*
X0008808Y0061066D01*
X0008892Y0061069D01*
X0008976Y0061068D01*
X0009059Y0061063D01*
X0009143Y0061054D01*
X0009225Y0061041D01*
X0009307Y0061025D01*
X0009388Y0061004D01*
X0009469Y0060980D01*
X0009547Y0060952D01*
X0009625Y0060920D01*
X0009701Y0060884D01*
X0009775Y0060845D01*
X0009847Y0060803D01*
X0009917Y0060757D01*
X0009985Y0060708D01*
X0010050Y0060656D01*
X0010113Y0060601D01*
X0010173Y0060543D01*
X0010231Y0060482D01*
X0010285Y0060418D01*
X0010337Y0060352D01*
X0010385Y0060284D01*
X0010430Y0060213D01*
X0010471Y0060140D01*
X0010510Y0060066D01*
X0010544Y0059990D01*
X0010575Y0059912D01*
X0010602Y0059833D01*
X0010626Y0059752D01*
X0010645Y0059671D01*
X0010661Y0059589D01*
X0010673Y0059506D01*
X0010681Y0059422D01*
X0010685Y0059339D01*
X0010685Y0059255D01*
X0010681Y0059172D01*
X0010673Y0059088D01*
X0010661Y0059005D01*
X0010645Y0058923D01*
X0010626Y0058842D01*
X0010602Y0058761D01*
X0010575Y0058682D01*
X0010544Y0058604D01*
X0010510Y0058528D01*
X0010471Y0058454D01*
X0010430Y0058381D01*
X0010385Y0058310D01*
X0010337Y0058242D01*
X0010285Y0058176D01*
X0010231Y0058112D01*
X0010173Y0058051D01*
X0010113Y0057993D01*
X0010050Y0057938D01*
X0009985Y0057886D01*
X0009917Y0057837D01*
X0009847Y0057791D01*
X0009775Y0057749D01*
X0009701Y0057710D01*
X0009625Y0057674D01*
X0009547Y0057642D01*
X0009469Y0057614D01*
X0009388Y0057590D01*
X0009307Y0057569D01*
X0009225Y0057553D01*
X0009143Y0057540D01*
X0009059Y0057531D01*
X0008976Y0057526D01*
X0008892Y0057525D01*
X0008808Y0057528D01*
X0008725Y0057535D01*
X0008642Y0057546D01*
X0008560Y0057561D01*
X0008478Y0057579D01*
X0008397Y0057602D01*
X0008318Y0057628D01*
X0008240Y0057658D01*
X0008163Y0057692D01*
X0008088Y0057729D01*
X0008015Y0057769D01*
X0007944Y0057814D01*
X0007875Y0057861D01*
X0007808Y0057912D01*
X0007744Y0057965D01*
X0007682Y0058022D01*
X0007624Y0058082D01*
X0007568Y0058144D01*
X0007515Y0058209D01*
X0007465Y0058276D01*
X0007418Y0058345D01*
X0007375Y0058417D01*
X0007335Y0058491D01*
X0007299Y0058566D01*
X0007266Y0058643D01*
X0007237Y0058722D01*
X0007212Y0058801D01*
X0007190Y0058882D01*
X0007173Y0058964D01*
X0007159Y0059047D01*
X0007149Y0059130D01*
X0007143Y0059213D01*
X0007141Y0059297D01*
M02*
