G75*
%MOIN*%
%OFA0B0*%
%FSLAX25Y25*%
%IPPOS*%
%LPD*%
%AMOC8*
5,1,8,0,0,1.08239X$1,22.5*
%
%ADD10C,0.00000*%
%ADD11C,0.00500*%
%ADD12C,0.00300*%
D10*
X0001000Y0001000D02*
X0001000Y0124071D01*
X0048244Y0124071D01*
X0048244Y0001039D01*
X0001000Y0001000D01*
X0016945Y0012850D02*
X0016947Y0012934D01*
X0016953Y0013017D01*
X0016963Y0013100D01*
X0016977Y0013183D01*
X0016994Y0013265D01*
X0017016Y0013346D01*
X0017041Y0013425D01*
X0017070Y0013504D01*
X0017103Y0013581D01*
X0017139Y0013656D01*
X0017179Y0013730D01*
X0017222Y0013802D01*
X0017269Y0013871D01*
X0017319Y0013938D01*
X0017372Y0014003D01*
X0017428Y0014065D01*
X0017486Y0014125D01*
X0017548Y0014182D01*
X0017612Y0014235D01*
X0017679Y0014286D01*
X0017748Y0014333D01*
X0017819Y0014378D01*
X0017892Y0014418D01*
X0017967Y0014455D01*
X0018044Y0014489D01*
X0018122Y0014519D01*
X0018201Y0014545D01*
X0018282Y0014568D01*
X0018364Y0014586D01*
X0018446Y0014601D01*
X0018529Y0014612D01*
X0018612Y0014619D01*
X0018696Y0014622D01*
X0018780Y0014621D01*
X0018863Y0014616D01*
X0018947Y0014607D01*
X0019029Y0014594D01*
X0019111Y0014578D01*
X0019192Y0014557D01*
X0019273Y0014533D01*
X0019351Y0014505D01*
X0019429Y0014473D01*
X0019505Y0014437D01*
X0019579Y0014398D01*
X0019651Y0014356D01*
X0019721Y0014310D01*
X0019789Y0014261D01*
X0019854Y0014209D01*
X0019917Y0014154D01*
X0019977Y0014096D01*
X0020035Y0014035D01*
X0020089Y0013971D01*
X0020141Y0013905D01*
X0020189Y0013837D01*
X0020234Y0013766D01*
X0020275Y0013693D01*
X0020314Y0013619D01*
X0020348Y0013543D01*
X0020379Y0013465D01*
X0020406Y0013386D01*
X0020430Y0013305D01*
X0020449Y0013224D01*
X0020465Y0013142D01*
X0020477Y0013059D01*
X0020485Y0012975D01*
X0020489Y0012892D01*
X0020489Y0012808D01*
X0020485Y0012725D01*
X0020477Y0012641D01*
X0020465Y0012558D01*
X0020449Y0012476D01*
X0020430Y0012395D01*
X0020406Y0012314D01*
X0020379Y0012235D01*
X0020348Y0012157D01*
X0020314Y0012081D01*
X0020275Y0012007D01*
X0020234Y0011934D01*
X0020189Y0011863D01*
X0020141Y0011795D01*
X0020089Y0011729D01*
X0020035Y0011665D01*
X0019977Y0011604D01*
X0019917Y0011546D01*
X0019854Y0011491D01*
X0019789Y0011439D01*
X0019721Y0011390D01*
X0019651Y0011344D01*
X0019579Y0011302D01*
X0019505Y0011263D01*
X0019429Y0011227D01*
X0019351Y0011195D01*
X0019273Y0011167D01*
X0019192Y0011143D01*
X0019111Y0011122D01*
X0019029Y0011106D01*
X0018947Y0011093D01*
X0018863Y0011084D01*
X0018780Y0011079D01*
X0018696Y0011078D01*
X0018612Y0011081D01*
X0018529Y0011088D01*
X0018446Y0011099D01*
X0018364Y0011114D01*
X0018282Y0011132D01*
X0018201Y0011155D01*
X0018122Y0011181D01*
X0018044Y0011211D01*
X0017967Y0011245D01*
X0017892Y0011282D01*
X0017819Y0011322D01*
X0017748Y0011367D01*
X0017679Y0011414D01*
X0017612Y0011465D01*
X0017548Y0011518D01*
X0017486Y0011575D01*
X0017428Y0011635D01*
X0017372Y0011697D01*
X0017319Y0011762D01*
X0017269Y0011829D01*
X0017222Y0011898D01*
X0017179Y0011970D01*
X0017139Y0012044D01*
X0017103Y0012119D01*
X0017070Y0012196D01*
X0017041Y0012275D01*
X0017016Y0012354D01*
X0016994Y0012435D01*
X0016977Y0012517D01*
X0016963Y0012600D01*
X0016953Y0012683D01*
X0016947Y0012766D01*
X0016945Y0012850D01*
X0028756Y0012850D02*
X0028758Y0012934D01*
X0028764Y0013017D01*
X0028774Y0013100D01*
X0028788Y0013183D01*
X0028805Y0013265D01*
X0028827Y0013346D01*
X0028852Y0013425D01*
X0028881Y0013504D01*
X0028914Y0013581D01*
X0028950Y0013656D01*
X0028990Y0013730D01*
X0029033Y0013802D01*
X0029080Y0013871D01*
X0029130Y0013938D01*
X0029183Y0014003D01*
X0029239Y0014065D01*
X0029297Y0014125D01*
X0029359Y0014182D01*
X0029423Y0014235D01*
X0029490Y0014286D01*
X0029559Y0014333D01*
X0029630Y0014378D01*
X0029703Y0014418D01*
X0029778Y0014455D01*
X0029855Y0014489D01*
X0029933Y0014519D01*
X0030012Y0014545D01*
X0030093Y0014568D01*
X0030175Y0014586D01*
X0030257Y0014601D01*
X0030340Y0014612D01*
X0030423Y0014619D01*
X0030507Y0014622D01*
X0030591Y0014621D01*
X0030674Y0014616D01*
X0030758Y0014607D01*
X0030840Y0014594D01*
X0030922Y0014578D01*
X0031003Y0014557D01*
X0031084Y0014533D01*
X0031162Y0014505D01*
X0031240Y0014473D01*
X0031316Y0014437D01*
X0031390Y0014398D01*
X0031462Y0014356D01*
X0031532Y0014310D01*
X0031600Y0014261D01*
X0031665Y0014209D01*
X0031728Y0014154D01*
X0031788Y0014096D01*
X0031846Y0014035D01*
X0031900Y0013971D01*
X0031952Y0013905D01*
X0032000Y0013837D01*
X0032045Y0013766D01*
X0032086Y0013693D01*
X0032125Y0013619D01*
X0032159Y0013543D01*
X0032190Y0013465D01*
X0032217Y0013386D01*
X0032241Y0013305D01*
X0032260Y0013224D01*
X0032276Y0013142D01*
X0032288Y0013059D01*
X0032296Y0012975D01*
X0032300Y0012892D01*
X0032300Y0012808D01*
X0032296Y0012725D01*
X0032288Y0012641D01*
X0032276Y0012558D01*
X0032260Y0012476D01*
X0032241Y0012395D01*
X0032217Y0012314D01*
X0032190Y0012235D01*
X0032159Y0012157D01*
X0032125Y0012081D01*
X0032086Y0012007D01*
X0032045Y0011934D01*
X0032000Y0011863D01*
X0031952Y0011795D01*
X0031900Y0011729D01*
X0031846Y0011665D01*
X0031788Y0011604D01*
X0031728Y0011546D01*
X0031665Y0011491D01*
X0031600Y0011439D01*
X0031532Y0011390D01*
X0031462Y0011344D01*
X0031390Y0011302D01*
X0031316Y0011263D01*
X0031240Y0011227D01*
X0031162Y0011195D01*
X0031084Y0011167D01*
X0031003Y0011143D01*
X0030922Y0011122D01*
X0030840Y0011106D01*
X0030758Y0011093D01*
X0030674Y0011084D01*
X0030591Y0011079D01*
X0030507Y0011078D01*
X0030423Y0011081D01*
X0030340Y0011088D01*
X0030257Y0011099D01*
X0030175Y0011114D01*
X0030093Y0011132D01*
X0030012Y0011155D01*
X0029933Y0011181D01*
X0029855Y0011211D01*
X0029778Y0011245D01*
X0029703Y0011282D01*
X0029630Y0011322D01*
X0029559Y0011367D01*
X0029490Y0011414D01*
X0029423Y0011465D01*
X0029359Y0011518D01*
X0029297Y0011575D01*
X0029239Y0011635D01*
X0029183Y0011697D01*
X0029130Y0011762D01*
X0029080Y0011829D01*
X0029033Y0011898D01*
X0028990Y0011970D01*
X0028950Y0012044D01*
X0028914Y0012119D01*
X0028881Y0012196D01*
X0028852Y0012275D01*
X0028827Y0012354D01*
X0028805Y0012435D01*
X0028788Y0012517D01*
X0028774Y0012600D01*
X0028764Y0012683D01*
X0028758Y0012766D01*
X0028756Y0012850D01*
D11*
X0045622Y0002578D02*
X0045622Y0036078D01*
X0045622Y0002578D02*
X0003622Y0002578D01*
X0003622Y0036078D01*
D12*
X0030525Y0048571D02*
X0030525Y0051474D01*
X0032460Y0051474D02*
X0030525Y0048571D01*
X0032460Y0048571D02*
X0032460Y0051474D01*
X0033457Y0051474D02*
X0034424Y0051474D01*
X0033940Y0051474D02*
X0033940Y0048571D01*
X0033457Y0048571D02*
X0034424Y0048571D01*
M02*
