G75*
%MOIN*%
%OFA0B0*%
%FSLAX25Y25*%
%IPPOS*%
%LPD*%
%AMOC8*
5,1,8,0,0,1.08239X$1,22.5*
%
%ADD10C,0.00000*%
D10*
X0001031Y0001000D02*
X0001031Y0081709D01*
X0046307Y0081709D01*
X0046307Y0001000D01*
X0001031Y0001000D01*
X0007134Y0028559D02*
X0007136Y0028643D01*
X0007142Y0028726D01*
X0007152Y0028809D01*
X0007166Y0028892D01*
X0007183Y0028974D01*
X0007205Y0029055D01*
X0007230Y0029134D01*
X0007259Y0029213D01*
X0007292Y0029290D01*
X0007328Y0029365D01*
X0007368Y0029439D01*
X0007411Y0029511D01*
X0007458Y0029580D01*
X0007508Y0029647D01*
X0007561Y0029712D01*
X0007617Y0029774D01*
X0007675Y0029834D01*
X0007737Y0029891D01*
X0007801Y0029944D01*
X0007868Y0029995D01*
X0007937Y0030042D01*
X0008008Y0030087D01*
X0008081Y0030127D01*
X0008156Y0030164D01*
X0008233Y0030198D01*
X0008311Y0030228D01*
X0008390Y0030254D01*
X0008471Y0030277D01*
X0008553Y0030295D01*
X0008635Y0030310D01*
X0008718Y0030321D01*
X0008801Y0030328D01*
X0008885Y0030331D01*
X0008969Y0030330D01*
X0009052Y0030325D01*
X0009136Y0030316D01*
X0009218Y0030303D01*
X0009300Y0030287D01*
X0009381Y0030266D01*
X0009462Y0030242D01*
X0009540Y0030214D01*
X0009618Y0030182D01*
X0009694Y0030146D01*
X0009768Y0030107D01*
X0009840Y0030065D01*
X0009910Y0030019D01*
X0009978Y0029970D01*
X0010043Y0029918D01*
X0010106Y0029863D01*
X0010166Y0029805D01*
X0010224Y0029744D01*
X0010278Y0029680D01*
X0010330Y0029614D01*
X0010378Y0029546D01*
X0010423Y0029475D01*
X0010464Y0029402D01*
X0010503Y0029328D01*
X0010537Y0029252D01*
X0010568Y0029174D01*
X0010595Y0029095D01*
X0010619Y0029014D01*
X0010638Y0028933D01*
X0010654Y0028851D01*
X0010666Y0028768D01*
X0010674Y0028684D01*
X0010678Y0028601D01*
X0010678Y0028517D01*
X0010674Y0028434D01*
X0010666Y0028350D01*
X0010654Y0028267D01*
X0010638Y0028185D01*
X0010619Y0028104D01*
X0010595Y0028023D01*
X0010568Y0027944D01*
X0010537Y0027866D01*
X0010503Y0027790D01*
X0010464Y0027716D01*
X0010423Y0027643D01*
X0010378Y0027572D01*
X0010330Y0027504D01*
X0010278Y0027438D01*
X0010224Y0027374D01*
X0010166Y0027313D01*
X0010106Y0027255D01*
X0010043Y0027200D01*
X0009978Y0027148D01*
X0009910Y0027099D01*
X0009840Y0027053D01*
X0009768Y0027011D01*
X0009694Y0026972D01*
X0009618Y0026936D01*
X0009540Y0026904D01*
X0009462Y0026876D01*
X0009381Y0026852D01*
X0009300Y0026831D01*
X0009218Y0026815D01*
X0009136Y0026802D01*
X0009052Y0026793D01*
X0008969Y0026788D01*
X0008885Y0026787D01*
X0008801Y0026790D01*
X0008718Y0026797D01*
X0008635Y0026808D01*
X0008553Y0026823D01*
X0008471Y0026841D01*
X0008390Y0026864D01*
X0008311Y0026890D01*
X0008233Y0026920D01*
X0008156Y0026954D01*
X0008081Y0026991D01*
X0008008Y0027031D01*
X0007937Y0027076D01*
X0007868Y0027123D01*
X0007801Y0027174D01*
X0007737Y0027227D01*
X0007675Y0027284D01*
X0007617Y0027344D01*
X0007561Y0027406D01*
X0007508Y0027471D01*
X0007458Y0027538D01*
X0007411Y0027607D01*
X0007368Y0027679D01*
X0007328Y0027753D01*
X0007292Y0027828D01*
X0007259Y0027905D01*
X0007230Y0027984D01*
X0007205Y0028063D01*
X0007183Y0028144D01*
X0007166Y0028226D01*
X0007152Y0028309D01*
X0007142Y0028392D01*
X0007136Y0028475D01*
X0007134Y0028559D01*
X0007134Y0040370D02*
X0007136Y0040454D01*
X0007142Y0040537D01*
X0007152Y0040620D01*
X0007166Y0040703D01*
X0007183Y0040785D01*
X0007205Y0040866D01*
X0007230Y0040945D01*
X0007259Y0041024D01*
X0007292Y0041101D01*
X0007328Y0041176D01*
X0007368Y0041250D01*
X0007411Y0041322D01*
X0007458Y0041391D01*
X0007508Y0041458D01*
X0007561Y0041523D01*
X0007617Y0041585D01*
X0007675Y0041645D01*
X0007737Y0041702D01*
X0007801Y0041755D01*
X0007868Y0041806D01*
X0007937Y0041853D01*
X0008008Y0041898D01*
X0008081Y0041938D01*
X0008156Y0041975D01*
X0008233Y0042009D01*
X0008311Y0042039D01*
X0008390Y0042065D01*
X0008471Y0042088D01*
X0008553Y0042106D01*
X0008635Y0042121D01*
X0008718Y0042132D01*
X0008801Y0042139D01*
X0008885Y0042142D01*
X0008969Y0042141D01*
X0009052Y0042136D01*
X0009136Y0042127D01*
X0009218Y0042114D01*
X0009300Y0042098D01*
X0009381Y0042077D01*
X0009462Y0042053D01*
X0009540Y0042025D01*
X0009618Y0041993D01*
X0009694Y0041957D01*
X0009768Y0041918D01*
X0009840Y0041876D01*
X0009910Y0041830D01*
X0009978Y0041781D01*
X0010043Y0041729D01*
X0010106Y0041674D01*
X0010166Y0041616D01*
X0010224Y0041555D01*
X0010278Y0041491D01*
X0010330Y0041425D01*
X0010378Y0041357D01*
X0010423Y0041286D01*
X0010464Y0041213D01*
X0010503Y0041139D01*
X0010537Y0041063D01*
X0010568Y0040985D01*
X0010595Y0040906D01*
X0010619Y0040825D01*
X0010638Y0040744D01*
X0010654Y0040662D01*
X0010666Y0040579D01*
X0010674Y0040495D01*
X0010678Y0040412D01*
X0010678Y0040328D01*
X0010674Y0040245D01*
X0010666Y0040161D01*
X0010654Y0040078D01*
X0010638Y0039996D01*
X0010619Y0039915D01*
X0010595Y0039834D01*
X0010568Y0039755D01*
X0010537Y0039677D01*
X0010503Y0039601D01*
X0010464Y0039527D01*
X0010423Y0039454D01*
X0010378Y0039383D01*
X0010330Y0039315D01*
X0010278Y0039249D01*
X0010224Y0039185D01*
X0010166Y0039124D01*
X0010106Y0039066D01*
X0010043Y0039011D01*
X0009978Y0038959D01*
X0009910Y0038910D01*
X0009840Y0038864D01*
X0009768Y0038822D01*
X0009694Y0038783D01*
X0009618Y0038747D01*
X0009540Y0038715D01*
X0009462Y0038687D01*
X0009381Y0038663D01*
X0009300Y0038642D01*
X0009218Y0038626D01*
X0009136Y0038613D01*
X0009052Y0038604D01*
X0008969Y0038599D01*
X0008885Y0038598D01*
X0008801Y0038601D01*
X0008718Y0038608D01*
X0008635Y0038619D01*
X0008553Y0038634D01*
X0008471Y0038652D01*
X0008390Y0038675D01*
X0008311Y0038701D01*
X0008233Y0038731D01*
X0008156Y0038765D01*
X0008081Y0038802D01*
X0008008Y0038842D01*
X0007937Y0038887D01*
X0007868Y0038934D01*
X0007801Y0038985D01*
X0007737Y0039038D01*
X0007675Y0039095D01*
X0007617Y0039155D01*
X0007561Y0039217D01*
X0007508Y0039282D01*
X0007458Y0039349D01*
X0007411Y0039418D01*
X0007368Y0039490D01*
X0007328Y0039564D01*
X0007292Y0039639D01*
X0007259Y0039716D01*
X0007230Y0039795D01*
X0007205Y0039874D01*
X0007183Y0039955D01*
X0007166Y0040037D01*
X0007152Y0040120D01*
X0007142Y0040203D01*
X0007136Y0040286D01*
X0007134Y0040370D01*
M02*
