G75*
%MOIN*%
%OFA0B0*%
%FSLAX24Y24*%
%IPPOS*%
%LPD*%
%AMOC8*
5,1,8,0,0,1.08239X$1,22.5*
%
%ADD10C,0.0000*%
%ADD11C,0.0060*%
%ADD12C,0.0040*%
%ADD13C,0.0050*%
D10*
X004037Y000100D02*
X000100Y013880D01*
X021754Y013880D01*
X017817Y000100D01*
X004037Y000100D01*
X005632Y013088D02*
X005634Y013114D01*
X005640Y013140D01*
X005650Y013165D01*
X005663Y013188D01*
X005679Y013208D01*
X005699Y013226D01*
X005721Y013241D01*
X005744Y013253D01*
X005770Y013261D01*
X005796Y013265D01*
X005822Y013265D01*
X005848Y013261D01*
X005874Y013253D01*
X005898Y013241D01*
X005919Y013226D01*
X005939Y013208D01*
X005955Y013188D01*
X005968Y013165D01*
X005978Y013140D01*
X005984Y013114D01*
X005986Y013088D01*
X005984Y013062D01*
X005978Y013036D01*
X005968Y013011D01*
X005955Y012988D01*
X005939Y012968D01*
X005919Y012950D01*
X005897Y012935D01*
X005874Y012923D01*
X005848Y012915D01*
X005822Y012911D01*
X005796Y012911D01*
X005770Y012915D01*
X005744Y012923D01*
X005720Y012935D01*
X005699Y012950D01*
X005679Y012968D01*
X005663Y012988D01*
X005650Y013011D01*
X005640Y013036D01*
X005634Y013062D01*
X005632Y013088D01*
X006813Y013088D02*
X006815Y013114D01*
X006821Y013140D01*
X006831Y013165D01*
X006844Y013188D01*
X006860Y013208D01*
X006880Y013226D01*
X006902Y013241D01*
X006925Y013253D01*
X006951Y013261D01*
X006977Y013265D01*
X007003Y013265D01*
X007029Y013261D01*
X007055Y013253D01*
X007079Y013241D01*
X007100Y013226D01*
X007120Y013208D01*
X007136Y013188D01*
X007149Y013165D01*
X007159Y013140D01*
X007165Y013114D01*
X007167Y013088D01*
X007165Y013062D01*
X007159Y013036D01*
X007149Y013011D01*
X007136Y012988D01*
X007120Y012968D01*
X007100Y012950D01*
X007078Y012935D01*
X007055Y012923D01*
X007029Y012915D01*
X007003Y012911D01*
X006977Y012911D01*
X006951Y012915D01*
X006925Y012923D01*
X006901Y012935D01*
X006880Y012950D01*
X006860Y012968D01*
X006844Y012988D01*
X006831Y013011D01*
X006821Y013036D01*
X006815Y013062D01*
X006813Y013088D01*
D11*
X008377Y013538D02*
X008805Y013538D01*
X008805Y012898D01*
X008805Y013218D02*
X008591Y013218D01*
X009022Y013538D02*
X009449Y013538D01*
X009449Y012898D01*
X009667Y013004D02*
X009667Y013432D01*
X009773Y013538D01*
X009987Y013538D01*
X010094Y013432D01*
X010094Y013004D01*
X009987Y012898D01*
X009773Y012898D01*
X009667Y013004D01*
X009449Y013218D02*
X009236Y013218D01*
X004389Y013004D02*
X004282Y012898D01*
X004069Y012898D01*
X003962Y013004D01*
X003962Y013432D01*
X004069Y013538D01*
X004282Y013538D01*
X004389Y013432D01*
X004389Y013004D01*
X003744Y012898D02*
X003744Y013538D01*
X003317Y012898D01*
X003317Y013538D01*
D12*
X003619Y011954D02*
X003619Y011494D01*
X003466Y011494D02*
X003773Y011494D01*
X003926Y011494D02*
X003926Y011954D01*
X003773Y011801D02*
X003619Y011954D01*
X004080Y011647D02*
X003926Y011494D01*
X004080Y011647D02*
X004233Y011494D01*
X004233Y011954D01*
X004387Y011878D02*
X004463Y011954D01*
X004617Y011954D01*
X004693Y011878D01*
X004693Y011801D01*
X004617Y011724D01*
X004463Y011724D01*
X004387Y011647D01*
X004387Y011571D01*
X004463Y011494D01*
X004617Y011494D01*
X004693Y011571D01*
X014289Y010758D02*
X014596Y010758D01*
X014442Y010758D02*
X014442Y011218D01*
X014596Y011065D01*
X014749Y011141D02*
X014749Y010988D01*
X014826Y010911D01*
X015056Y010911D01*
X014826Y011218D02*
X014749Y011141D01*
X014826Y011218D02*
X015056Y011218D01*
X015056Y010758D01*
X005131Y004175D02*
X004901Y004175D01*
X004824Y004099D01*
X004824Y003945D01*
X004901Y003868D01*
X005131Y003868D01*
X005131Y003715D02*
X005131Y004175D01*
X004978Y003868D02*
X004824Y003715D01*
X004671Y003715D02*
X004364Y003715D01*
X004517Y003715D02*
X004517Y004175D01*
X004671Y004022D01*
D13*
X007675Y004038D02*
X007583Y004135D01*
X007495Y004235D01*
X007409Y004338D01*
X007326Y004444D01*
X007246Y004551D01*
X007170Y004661D01*
X007097Y004774D01*
X007027Y004888D01*
X006961Y005004D01*
X006898Y005123D01*
X006839Y005243D01*
X006783Y005365D01*
X006731Y005488D01*
X006682Y005613D01*
X006638Y005739D01*
X006597Y005867D01*
X006560Y005996D01*
X006526Y006125D01*
X006497Y006256D01*
X006471Y006387D01*
X006449Y006520D01*
X006432Y006652D01*
X006418Y006786D01*
X006408Y006919D01*
X006402Y007053D01*
X006400Y007187D01*
X006402Y007321D01*
X006408Y007455D01*
X006418Y007588D01*
X006432Y007722D01*
X006449Y007854D01*
X006471Y007987D01*
X006497Y008118D01*
X006526Y008249D01*
X006560Y008378D01*
X006597Y008507D01*
X006638Y008635D01*
X006682Y008761D01*
X006731Y008886D01*
X006783Y009009D01*
X006839Y009131D01*
X006898Y009251D01*
X006961Y009370D01*
X007027Y009486D01*
X007097Y009600D01*
X007170Y009713D01*
X007246Y009823D01*
X007326Y009930D01*
X007409Y010036D01*
X007495Y010139D01*
X007583Y010239D01*
X007675Y010336D01*
X007639Y012498D02*
X005159Y012498D01*
X005159Y013679D01*
X007639Y013679D01*
X007639Y012498D01*
X014179Y010336D02*
X014271Y010239D01*
X014359Y010139D01*
X014445Y010036D01*
X014528Y009930D01*
X014608Y009823D01*
X014684Y009713D01*
X014757Y009600D01*
X014827Y009486D01*
X014893Y009370D01*
X014956Y009251D01*
X015015Y009131D01*
X015071Y009009D01*
X015123Y008886D01*
X015172Y008761D01*
X015216Y008635D01*
X015257Y008507D01*
X015294Y008378D01*
X015328Y008249D01*
X015357Y008118D01*
X015383Y007987D01*
X015405Y007854D01*
X015422Y007722D01*
X015436Y007588D01*
X015446Y007455D01*
X015452Y007321D01*
X015454Y007187D01*
X015452Y007053D01*
X015446Y006919D01*
X015436Y006786D01*
X015422Y006652D01*
X015405Y006520D01*
X015383Y006387D01*
X015357Y006256D01*
X015328Y006125D01*
X015294Y005996D01*
X015257Y005867D01*
X015216Y005739D01*
X015172Y005613D01*
X015123Y005488D01*
X015071Y005365D01*
X015015Y005243D01*
X014956Y005123D01*
X014893Y005004D01*
X014827Y004888D01*
X014757Y004774D01*
X014684Y004661D01*
X014608Y004551D01*
X014528Y004444D01*
X014445Y004338D01*
X014359Y004235D01*
X014271Y004135D01*
X014179Y004038D01*
X008068Y004038D02*
X007976Y004135D01*
X007888Y004235D01*
X007802Y004338D01*
X007719Y004444D01*
X007639Y004551D01*
X007563Y004661D01*
X007490Y004774D01*
X007420Y004888D01*
X007354Y005004D01*
X007291Y005123D01*
X007232Y005243D01*
X007176Y005365D01*
X007124Y005488D01*
X007075Y005613D01*
X007031Y005739D01*
X006990Y005867D01*
X006953Y005996D01*
X006919Y006125D01*
X006890Y006256D01*
X006864Y006387D01*
X006842Y006520D01*
X006825Y006652D01*
X006811Y006786D01*
X006801Y006919D01*
X006795Y007053D01*
X006793Y007187D01*
X006795Y007321D01*
X006801Y007455D01*
X006811Y007588D01*
X006825Y007722D01*
X006842Y007854D01*
X006864Y007987D01*
X006890Y008118D01*
X006919Y008249D01*
X006953Y008378D01*
X006990Y008507D01*
X007031Y008635D01*
X007075Y008761D01*
X007124Y008886D01*
X007176Y009009D01*
X007232Y009131D01*
X007291Y009251D01*
X007354Y009370D01*
X007420Y009486D01*
X007490Y009600D01*
X007563Y009713D01*
X007639Y009823D01*
X007719Y009930D01*
X007802Y010036D01*
X007888Y010139D01*
X007976Y010239D01*
X008068Y010336D01*
M02*
