G75*
G70*
%OFA0B0*%
%FSLAX24Y24*%
%IPPOS*%
%LPD*%
%AMOC8*
5,1,8,0,0,1.08239X$1,22.5*
%
%ADD10C,0.0060*%
%ADD11R,0.0160X0.0340*%
%ADD12C,0.0040*%
%ADD13C,0.0050*%
D10*
X005442Y004684D02*
X005782Y004684D01*
X005782Y004965D02*
X005442Y004965D01*
D11*
X005362Y004824D03*
X005862Y004824D03*
D12*
X004671Y003715D02*
X004364Y003715D01*
X004517Y003715D02*
X004517Y004175D01*
X004671Y004022D01*
X004824Y004099D02*
X004824Y003945D01*
X004901Y003868D01*
X005131Y003868D01*
X005131Y003715D02*
X005131Y004175D01*
X004901Y004175D01*
X004824Y004099D01*
X004978Y003868D02*
X004824Y003715D01*
X014289Y010758D02*
X014596Y010758D01*
X014442Y010758D02*
X014442Y011218D01*
X014596Y011065D01*
X014749Y011141D02*
X014749Y010988D01*
X014826Y010911D01*
X015056Y010911D01*
X014826Y011218D02*
X014749Y011141D01*
X014826Y011218D02*
X015056Y011218D01*
X015056Y010758D01*
X004693Y011571D02*
X004617Y011494D01*
X004463Y011494D01*
X004387Y011571D01*
X004387Y011647D01*
X004463Y011724D01*
X004617Y011724D01*
X004693Y011801D01*
X004693Y011878D01*
X004617Y011954D01*
X004463Y011954D01*
X004387Y011878D01*
X004233Y011954D02*
X004233Y011494D01*
X004080Y011647D01*
X003926Y011494D01*
X003926Y011954D01*
X003773Y011801D02*
X003619Y011954D01*
X003619Y011494D01*
X003466Y011494D02*
X003773Y011494D01*
D13*
X005159Y012498D02*
X005159Y013679D01*
X007639Y013679D01*
X007639Y012498D01*
X005159Y012498D01*
X007675Y010336D02*
X007528Y010177D01*
X007388Y010010D01*
X007256Y009836D01*
X007133Y009657D01*
X007019Y009472D01*
X006913Y009281D01*
X006817Y009086D01*
X006731Y008886D01*
X006654Y008682D01*
X006587Y008475D01*
X006530Y008265D01*
X006483Y008052D01*
X006447Y007838D01*
X006421Y007622D01*
X006405Y007405D01*
X006400Y007187D01*
X006405Y006969D01*
X006421Y006752D01*
X006447Y006536D01*
X006483Y006322D01*
X006530Y006109D01*
X006587Y005899D01*
X006654Y005692D01*
X006731Y005488D01*
X006817Y005288D01*
X006913Y005093D01*
X007019Y004902D01*
X007133Y004717D01*
X007256Y004538D01*
X007388Y004364D01*
X007528Y004197D01*
X007675Y004038D01*
X014179Y004038D02*
X014326Y004197D01*
X014466Y004364D01*
X014598Y004538D01*
X014721Y004717D01*
X014835Y004902D01*
X014941Y005093D01*
X015037Y005288D01*
X015123Y005488D01*
X015200Y005692D01*
X015267Y005899D01*
X015324Y006109D01*
X015371Y006322D01*
X015407Y006536D01*
X015433Y006752D01*
X015449Y006969D01*
X015454Y007187D01*
X015449Y007405D01*
X015433Y007622D01*
X015407Y007838D01*
X015371Y008052D01*
X015324Y008265D01*
X015267Y008475D01*
X015200Y008682D01*
X015123Y008886D01*
X015037Y009086D01*
X014941Y009281D01*
X014835Y009472D01*
X014721Y009657D01*
X014598Y009836D01*
X014466Y010010D01*
X014326Y010177D01*
X014179Y010336D01*
X008068Y010336D02*
X007921Y010177D01*
X007781Y010010D01*
X007649Y009836D01*
X007526Y009657D01*
X007412Y009472D01*
X007306Y009281D01*
X007210Y009086D01*
X007124Y008886D01*
X007047Y008682D01*
X006980Y008475D01*
X006923Y008265D01*
X006876Y008052D01*
X006840Y007838D01*
X006814Y007622D01*
X006798Y007405D01*
X006793Y007187D01*
X006798Y006969D01*
X006814Y006752D01*
X006840Y006536D01*
X006876Y006322D01*
X006923Y006109D01*
X006980Y005899D01*
X007047Y005692D01*
X007124Y005488D01*
X007210Y005288D01*
X007306Y005093D01*
X007412Y004902D01*
X007526Y004717D01*
X007649Y004538D01*
X007781Y004364D01*
X007921Y004197D01*
X008068Y004038D01*
M02*
