G75*
G70*
%OFA0B0*%
%FSLAX24Y24*%
%IPPOS*%
%LPD*%
%AMOC8*
5,1,8,0,0,1.08239X$1,22.5*
%
%ADD10R,0.0433X0.0394*%
%ADD11R,0.1299X0.0512*%
%ADD12R,0.1299X0.0197*%
%ADD13R,0.0197X0.0157*%
%ADD14C,0.0376*%
%ADD15C,0.0160*%
%ADD16C,0.1660*%
D10*
X004824Y002915D03*
X004824Y003584D03*
X005612Y001419D03*
X005612Y000750D03*
X009746Y002718D03*
X009746Y003387D03*
X010927Y002009D03*
X010927Y001340D03*
X012108Y002718D03*
X012108Y003387D03*
X016242Y001419D03*
X016242Y000750D03*
X017029Y002915D03*
X017029Y003584D03*
X017817Y006852D03*
X017817Y007521D03*
X004037Y007521D03*
X004037Y006852D03*
D11*
X005029Y005415D03*
X009155Y005415D03*
X012698Y005415D03*
X016832Y005415D03*
X014765Y002462D03*
X007088Y002462D03*
X004037Y009155D03*
X010927Y009155D03*
X017817Y009155D03*
D12*
X017817Y008604D03*
X017817Y009706D03*
X016832Y005966D03*
X016832Y004864D03*
X014765Y003013D03*
X014765Y001911D03*
X012698Y004864D03*
X012698Y005966D03*
X009155Y005966D03*
X009155Y004864D03*
X007088Y003013D03*
X007088Y001911D03*
X005029Y004864D03*
X005029Y005966D03*
X004037Y008604D03*
X004037Y009706D03*
X010927Y009706D03*
X010927Y008604D03*
D13*
X010927Y008427D03*
X010927Y009883D03*
X012698Y006143D03*
X012698Y004687D03*
X014765Y003191D03*
X014765Y001734D03*
X016832Y004687D03*
X016832Y006143D03*
X017817Y008427D03*
X017817Y009883D03*
X009155Y006143D03*
X009155Y004687D03*
X007088Y003191D03*
X007088Y001734D03*
X005029Y004687D03*
X005029Y006143D03*
X004037Y008427D03*
X004037Y009883D03*
D14*
X010261Y011915D03*
X011600Y011915D03*
D15*
X004824Y001537D02*
X005612Y000750D01*
X007777Y000750D01*
X009746Y002718D01*
X009746Y002521D01*
X010927Y001340D01*
X012108Y002521D01*
X013880Y000750D01*
X016242Y000750D01*
X017029Y001537D01*
X017029Y002915D01*
X017817Y003702D01*
X017817Y006852D01*
X018269Y006852D01*
X019194Y007777D01*
X019194Y009943D01*
X017226Y011911D01*
X011604Y011911D01*
X011600Y011915D01*
X010927Y011250D02*
X010261Y011915D01*
X010927Y011250D02*
X010927Y009883D01*
X010927Y009706D01*
X012037Y009706D01*
X012698Y009045D01*
X013360Y009706D01*
X017817Y009706D01*
X017817Y009883D01*
X017817Y008604D02*
X017817Y008427D01*
X017817Y007521D01*
X016832Y006143D02*
X016832Y005966D01*
X015895Y005966D01*
X014765Y004836D01*
X013631Y005970D01*
X012702Y005970D01*
X012698Y005966D01*
X012698Y009045D01*
X010927Y008604D02*
X010927Y008427D01*
X010927Y002009D01*
X012108Y002521D02*
X012108Y002718D01*
X012108Y003387D02*
X012108Y004096D01*
X012698Y004687D01*
X012698Y004864D01*
X012698Y005966D02*
X012698Y006143D01*
X014765Y004836D02*
X014765Y003191D01*
X014765Y003013D01*
X014765Y001911D02*
X015836Y001911D01*
X016242Y001506D01*
X016242Y001419D01*
X014765Y001734D02*
X014765Y001911D01*
X017029Y003584D02*
X017029Y004490D01*
X016832Y004687D01*
X016832Y004864D01*
X009746Y004096D02*
X009746Y003387D01*
X009746Y004096D02*
X009155Y004687D01*
X009155Y004864D01*
X009155Y005966D02*
X008230Y005966D01*
X007088Y004824D01*
X007088Y003191D01*
X007088Y003013D01*
X007088Y001911D02*
X006104Y001911D01*
X005612Y001419D01*
X004824Y001537D02*
X004824Y002915D01*
X004037Y003702D01*
X004037Y006852D01*
X004037Y007521D02*
X004037Y008427D01*
X004037Y008604D01*
X004037Y009706D02*
X008458Y009706D01*
X009155Y009009D01*
X009155Y009100D01*
X009761Y009706D01*
X010927Y009706D01*
X009155Y009009D02*
X009155Y006143D01*
X009155Y005966D01*
X007088Y004824D02*
X005946Y005966D01*
X005029Y005966D01*
X005029Y006143D01*
X005029Y004864D02*
X005029Y004687D01*
X004824Y004482D01*
X004824Y003584D01*
X007088Y001911D02*
X007088Y001734D01*
X004037Y009706D02*
X004037Y009883D01*
D16*
X002069Y012305D03*
X019785Y012305D03*
M02*
