G75*
G70*
%OFA0B0*%
%FSLAX24Y24*%
%IPPOS*%
%LPD*%
%AMOC8*
5,1,8,0,0,1.08239X$1,22.5*
%
%ADD10C,0.0060*%
%ADD11R,0.0160X0.0340*%
%ADD12C,0.0040*%
%ADD13C,0.0050*%
D10*
X004851Y007440D02*
X005191Y007440D01*
X005191Y007720D02*
X004851Y007720D01*
D11*
X004771Y007580D03*
X005271Y007580D03*
D12*
X006065Y007876D02*
X006371Y007876D01*
X006218Y007876D02*
X006218Y008337D01*
X006371Y008183D01*
X006525Y008106D02*
X006602Y008030D01*
X006832Y008030D01*
X006678Y008030D02*
X006525Y007876D01*
X006525Y008106D02*
X006525Y008260D01*
X006602Y008337D01*
X006832Y008337D01*
X006832Y007876D01*
X007174Y008856D02*
X007481Y008856D01*
X007328Y008856D02*
X007328Y009317D01*
X007481Y009163D01*
X007635Y009086D02*
X007712Y009010D01*
X007942Y009010D01*
X007942Y008856D02*
X007942Y009317D01*
X007712Y009317D01*
X007635Y009240D01*
X007635Y009086D01*
D13*
X007675Y007973D02*
X007528Y007814D01*
X007388Y007647D01*
X007256Y007473D01*
X007133Y007294D01*
X007019Y007109D01*
X006913Y006918D01*
X006817Y006723D01*
X006731Y006523D01*
X006654Y006319D01*
X006587Y006112D01*
X006530Y005902D01*
X006483Y005689D01*
X006447Y005475D01*
X006421Y005259D01*
X006405Y005042D01*
X006400Y004824D01*
X006405Y004606D01*
X006421Y004389D01*
X006447Y004173D01*
X006483Y003959D01*
X006530Y003746D01*
X006587Y003536D01*
X006654Y003329D01*
X006731Y003125D01*
X006817Y002925D01*
X006913Y002730D01*
X007019Y002539D01*
X007133Y002354D01*
X007256Y002175D01*
X007388Y002001D01*
X007528Y001834D01*
X007675Y001675D01*
X014179Y001675D02*
X014326Y001834D01*
X014466Y002001D01*
X014598Y002175D01*
X014721Y002354D01*
X014835Y002539D01*
X014941Y002730D01*
X015037Y002925D01*
X015123Y003125D01*
X015200Y003329D01*
X015267Y003536D01*
X015324Y003746D01*
X015371Y003959D01*
X015407Y004173D01*
X015433Y004389D01*
X015449Y004606D01*
X015454Y004824D01*
X015449Y005042D01*
X015433Y005259D01*
X015407Y005475D01*
X015371Y005689D01*
X015324Y005902D01*
X015267Y006112D01*
X015200Y006319D01*
X015123Y006523D01*
X015037Y006723D01*
X014941Y006918D01*
X014835Y007109D01*
X014721Y007294D01*
X014598Y007473D01*
X014466Y007647D01*
X014326Y007814D01*
X014179Y007973D01*
X008068Y007973D02*
X007921Y007814D01*
X007781Y007647D01*
X007649Y007473D01*
X007526Y007294D01*
X007412Y007109D01*
X007306Y006918D01*
X007210Y006723D01*
X007124Y006523D01*
X007047Y006319D01*
X006980Y006112D01*
X006923Y005902D01*
X006876Y005689D01*
X006840Y005475D01*
X006814Y005259D01*
X006798Y005042D01*
X006793Y004824D01*
X006798Y004606D01*
X006814Y004389D01*
X006840Y004173D01*
X006876Y003959D01*
X006923Y003746D01*
X006980Y003536D01*
X007047Y003329D01*
X007124Y003125D01*
X007210Y002925D01*
X007306Y002730D01*
X007412Y002539D01*
X007526Y002354D01*
X007649Y002175D01*
X007781Y002001D01*
X007921Y001834D01*
X008068Y001675D01*
M02*
