G75*
G70*
%OFA0B0*%
%FSLAX24Y24*%
%IPPOS*%
%LPD*%
%AMOC8*
5,1,8,0,0,1.08239X$1,22.5*
%
%ADD10R,0.0394X0.0433*%
%ADD11R,0.1260X0.1654*%
%ADD12C,0.0376*%
%ADD13R,0.0276X0.0591*%
%ADD14R,0.0394X0.0315*%
%ADD15C,0.0160*%
%ADD16C,0.1660*%
D10*
X005277Y004824D03*
X005946Y004824D03*
D11*
X005159Y007187D03*
X016694Y007187D03*
D12*
X011600Y011915D03*
X010261Y011915D03*
D13*
X007285Y012399D03*
X006694Y012399D03*
X005513Y012399D03*
D14*
X004962Y012655D03*
X004962Y013521D03*
X007836Y013521D03*
X007836Y012655D03*
D15*
X005277Y004683D02*
X006002Y003958D01*
X009372Y003958D01*
X010328Y004915D01*
X010328Y011848D01*
X010261Y011915D01*
X011096Y012466D02*
X009037Y012466D01*
X008494Y011923D01*
X007761Y011923D01*
X007285Y012399D01*
X006694Y012399D02*
X006694Y005572D01*
X005946Y004824D01*
X005277Y004824D02*
X005277Y004683D01*
X005159Y007187D02*
X005159Y012045D01*
X005513Y012399D01*
X011096Y012466D02*
X011600Y011962D01*
X011600Y011915D01*
X011604Y011911D01*
X015757Y011911D01*
X016694Y010974D01*
X016694Y007187D01*
D16*
X019785Y012305D03*
X002069Y012305D03*
M02*
