G75*
G70*
%OFA0B0*%
%FSLAX24Y24*%
%IPPOS*%
%LPD*%
%AMOC8*
5,1,8,0,0,1.08239X$1,22.5*
%
%ADD10R,0.0493X0.0454*%
%ADD11R,0.1359X0.0572*%
%ADD12R,0.1359X0.0257*%
%ADD13R,0.0257X0.0217*%
%ADD14C,0.0436*%
%ADD15C,0.0414*%
%ADD16C,0.1720*%
D10*
X004824Y002915D03*
X004824Y003584D03*
X005612Y001419D03*
X005612Y000750D03*
X009746Y002718D03*
X009746Y003387D03*
X010927Y002009D03*
X010927Y001340D03*
X012108Y002718D03*
X012108Y003387D03*
X016242Y001419D03*
X016242Y000750D03*
X017029Y002915D03*
X017029Y003584D03*
X017817Y006852D03*
X017817Y007521D03*
X004037Y007521D03*
X004037Y006852D03*
D11*
X005029Y005415D03*
X009155Y005415D03*
X012698Y005415D03*
X016832Y005415D03*
X014765Y002462D03*
X007088Y002462D03*
X004037Y009155D03*
X010927Y009155D03*
X017817Y009155D03*
D12*
X017817Y008604D03*
X017817Y009706D03*
X016832Y005966D03*
X016832Y004864D03*
X014765Y003013D03*
X014765Y001911D03*
X012698Y004864D03*
X012698Y005966D03*
X009155Y005966D03*
X009155Y004864D03*
X007088Y003013D03*
X007088Y001911D03*
X005029Y004864D03*
X005029Y005966D03*
X004037Y008604D03*
X004037Y009706D03*
X010927Y009706D03*
X010927Y008604D03*
D13*
X010927Y008427D03*
X010927Y009883D03*
X012698Y006143D03*
X012698Y004687D03*
X014765Y003191D03*
X014765Y001734D03*
X016832Y004687D03*
X016832Y006143D03*
X017817Y008427D03*
X017817Y009883D03*
X009155Y006143D03*
X009155Y004687D03*
X007088Y003191D03*
X007088Y001734D03*
X005029Y004687D03*
X005029Y006143D03*
X004037Y008427D03*
X004037Y009883D03*
D14*
X010261Y011915D03*
X011600Y011915D03*
D15*
X006990Y013088D03*
X005809Y013088D03*
D16*
X002069Y012305D03*
X019785Y012305D03*
M02*
