G75*
G70*
%OFA0B0*%
%FSLAX24Y24*%
%IPPOS*%
%LPD*%
%AMOC8*
5,1,8,0,0,1.08239X$1,22.5*
%
%ADD10C,0.0000*%
D10*
X000100Y000100D02*
X000112Y017836D01*
X010738Y017813D01*
X010738Y000100D01*
X000100Y000100D01*
X001557Y005691D02*
X001559Y005741D01*
X001565Y005791D01*
X001575Y005840D01*
X001589Y005888D01*
X001606Y005935D01*
X001627Y005980D01*
X001652Y006024D01*
X001680Y006065D01*
X001712Y006104D01*
X001746Y006141D01*
X001783Y006175D01*
X001823Y006205D01*
X001865Y006232D01*
X001909Y006256D01*
X001955Y006277D01*
X002002Y006293D01*
X002050Y006306D01*
X002100Y006315D01*
X002149Y006320D01*
X002200Y006321D01*
X002250Y006318D01*
X002299Y006311D01*
X002348Y006300D01*
X002396Y006285D01*
X002442Y006267D01*
X002487Y006245D01*
X002530Y006219D01*
X002571Y006190D01*
X002610Y006158D01*
X002646Y006123D01*
X002678Y006085D01*
X002708Y006045D01*
X002735Y006002D01*
X002758Y005958D01*
X002777Y005912D01*
X002793Y005864D01*
X002805Y005815D01*
X002813Y005766D01*
X002817Y005716D01*
X002817Y005666D01*
X002813Y005616D01*
X002805Y005567D01*
X002793Y005518D01*
X002777Y005470D01*
X002758Y005424D01*
X002735Y005380D01*
X002708Y005337D01*
X002678Y005297D01*
X002646Y005259D01*
X002610Y005224D01*
X002571Y005192D01*
X002530Y005163D01*
X002487Y005137D01*
X002442Y005115D01*
X002396Y005097D01*
X002348Y005082D01*
X002299Y005071D01*
X002250Y005064D01*
X002200Y005061D01*
X002149Y005062D01*
X002100Y005067D01*
X002050Y005076D01*
X002002Y005089D01*
X001955Y005105D01*
X001909Y005126D01*
X001865Y005150D01*
X001823Y005177D01*
X001783Y005207D01*
X001746Y005241D01*
X001712Y005278D01*
X001680Y005317D01*
X001652Y005358D01*
X001627Y005402D01*
X001606Y005447D01*
X001589Y005494D01*
X001575Y005542D01*
X001565Y005591D01*
X001559Y005641D01*
X001557Y005691D01*
M02*
