G75*
G70*
%OFA0B0*%
%FSLAX24Y24*%
%IPPOS*%
%LPD*%
%AMOC8*
5,1,8,0,0,1.08239X$1,22.5*
%
%ADD10R,0.0512X0.0591*%
%ADD11OC8,0.0520*%
%ADD12R,0.0740X0.0740*%
%ADD13C,0.0740*%
%ADD14C,0.0515*%
%ADD15C,0.0906*%
%ADD16C,0.5039*%
%ADD17C,0.0160*%
%ADD18C,0.0396*%
D10*
X002750Y002856D03*
X003419Y002856D03*
X004265Y004848D03*
X004935Y004848D03*
X005021Y006769D03*
X004352Y006769D03*
D11*
X006836Y002868D03*
X007836Y001868D03*
X005836Y001868D03*
D12*
X000895Y000895D03*
D13*
X001895Y000895D03*
X002895Y000895D03*
X003895Y000895D03*
D14*
X008661Y004191D02*
X009176Y004191D01*
X009176Y005191D02*
X008661Y005191D01*
X008661Y006191D02*
X009176Y006191D01*
X009176Y007191D02*
X008661Y007191D01*
D15*
X005730Y008683D03*
X004509Y008683D03*
X001045Y012187D03*
X001045Y013407D03*
X004509Y016872D03*
X005730Y016872D03*
X009234Y013407D03*
X009234Y012187D03*
D16*
X005139Y012777D03*
D17*
X005730Y013486D01*
X005730Y016872D01*
X002895Y008250D02*
X004352Y006793D01*
X004352Y006769D01*
X004352Y005848D01*
X005927Y005848D01*
X006269Y006191D01*
X008919Y006191D01*
X008919Y007191D02*
X005443Y007191D01*
X005021Y006769D01*
X004352Y005848D02*
X004352Y004935D01*
X004265Y004848D01*
X004218Y004848D01*
X002738Y003368D01*
X002738Y002868D01*
X002750Y002856D01*
X002750Y002750D01*
X000895Y000895D01*
X003419Y002856D02*
X004128Y003565D01*
X005100Y003565D01*
X005726Y004191D01*
X008919Y004191D01*
X008931Y005179D02*
X008919Y005191D01*
X005277Y005191D01*
X004935Y004848D01*
X008931Y005179D02*
X009391Y005179D01*
X009982Y004588D01*
X009982Y003998D01*
D18*
X009982Y003998D03*
X002895Y008250D03*
M02*
