G75*
G70*
%OFA0B0*%
%FSLAX24Y24*%
%IPPOS*%
%LPD*%
%AMOC8*
5,1,8,0,0,1.08239X$1,22.5*
%
%ADD10C,0.0080*%
%ADD11C,0.0050*%
D10*
X000395Y000645D02*
X000645Y000395D01*
X001145Y000395D01*
X001395Y000645D01*
X001645Y000395D01*
X002145Y000395D01*
X002395Y000645D01*
X002645Y000395D01*
X003145Y000395D01*
X003395Y000645D01*
X003645Y000395D01*
X004145Y000395D01*
X004395Y000645D01*
X004395Y001145D01*
X004145Y001395D01*
X003645Y001395D01*
X003395Y001145D01*
X003145Y001395D01*
X002645Y001395D01*
X002395Y001145D01*
X002145Y001395D01*
X001645Y001395D01*
X001395Y001145D01*
X001145Y001395D01*
X000645Y001395D01*
X000395Y001145D01*
X000395Y000645D01*
D11*
X000730Y003683D02*
X000730Y007698D01*
X003683Y007698D01*
X003683Y003683D01*
X006950Y003683D01*
X006950Y004191D01*
X006950Y005191D01*
X006950Y006191D01*
X006950Y007191D01*
X006950Y007698D01*
X003683Y007698D01*
X003328Y008604D02*
X006950Y008604D01*
X008092Y009824D01*
X008092Y015730D01*
X006950Y016950D01*
X003328Y016950D01*
X003683Y003683D02*
X000730Y003683D01*
M02*
