G75*
G70*
%OFA0B0*%
%FSLAX24Y24*%
%IPPOS*%
%LPD*%
%AMOC8*
5,1,8,0,0,1.08239X$1,22.5*
%
%ADD10C,0.0030*%
%ADD11R,0.0512X0.0591*%
%ADD12OC8,0.0520*%
%ADD13R,0.0740X0.0740*%
%ADD14C,0.0740*%
%ADD15C,0.0515*%
%ADD16C,0.0906*%
%ADD17C,0.7008*%
%ADD18C,0.0160*%
%ADD19C,0.0396*%
D10*
X007164Y008915D02*
X007226Y008915D01*
X007349Y008791D01*
X007471Y008791D02*
X007471Y008853D01*
X007532Y008915D01*
X007656Y008915D01*
X007718Y008853D01*
X007718Y008729D01*
X007656Y008668D01*
X007532Y008668D01*
X007471Y008791D02*
X007718Y008791D01*
X007839Y008729D02*
X007839Y008915D01*
X007839Y008729D02*
X007901Y008668D01*
X007963Y008729D01*
X008024Y008668D01*
X008086Y008729D01*
X008086Y008915D01*
X008207Y008853D02*
X008207Y008729D01*
X008269Y008668D01*
X008393Y008668D01*
X008454Y008729D01*
X008454Y008853D01*
X008393Y008915D01*
X008269Y008915D01*
X008207Y008853D01*
X008208Y009268D02*
X008085Y009268D01*
X008208Y009268D02*
X008270Y009329D01*
X008270Y009453D01*
X008208Y009515D01*
X008085Y009515D01*
X008023Y009453D01*
X008023Y009391D01*
X008270Y009391D01*
X008392Y009391D02*
X008638Y009391D01*
X008638Y009329D02*
X008638Y009453D01*
X008577Y009515D01*
X008453Y009515D01*
X008392Y009453D01*
X008392Y009391D01*
X008453Y009268D02*
X008577Y009268D01*
X008638Y009329D01*
X008760Y009268D02*
X009007Y009268D01*
X009007Y009638D01*
X008823Y009038D02*
X008637Y009038D01*
X008576Y008976D01*
X008576Y008853D01*
X008637Y008791D01*
X008823Y008791D01*
X008823Y008668D02*
X008823Y009038D01*
X008944Y008915D02*
X008944Y008668D01*
X009129Y008668D01*
X009191Y008729D01*
X009191Y008915D01*
X009312Y008915D02*
X009497Y008915D01*
X009559Y008853D01*
X009559Y008729D01*
X009497Y008668D01*
X009312Y008668D01*
X009312Y008438D02*
X009559Y008068D01*
X009681Y008129D02*
X009742Y008068D01*
X009866Y008068D01*
X009928Y008129D01*
X009928Y008191D01*
X009866Y008253D01*
X009742Y008253D01*
X009681Y008191D01*
X009681Y008129D01*
X009742Y008253D02*
X009681Y008315D01*
X009681Y008376D01*
X009742Y008438D01*
X009866Y008438D01*
X009928Y008376D01*
X009928Y008315D01*
X009866Y008253D01*
X009928Y008668D02*
X009928Y008915D01*
X009866Y008915D01*
X009804Y008853D01*
X009742Y008915D01*
X009681Y008853D01*
X009681Y008668D01*
X009804Y008668D02*
X009804Y008853D01*
X009928Y009268D02*
X009928Y009638D01*
X009681Y009638D01*
X009804Y009453D02*
X009928Y009453D01*
X009559Y009329D02*
X009497Y009329D01*
X009497Y009268D01*
X009559Y009268D01*
X009559Y009329D01*
X009067Y008438D02*
X009191Y008315D01*
X009067Y008438D02*
X009067Y008068D01*
X008944Y008068D02*
X009191Y008068D01*
X008823Y008068D02*
X008823Y008129D01*
X008576Y008376D01*
X008576Y008438D01*
X008823Y008438D01*
X008454Y008068D02*
X008207Y008438D01*
X008086Y008315D02*
X007963Y008438D01*
X007963Y008068D01*
X008086Y008068D02*
X007839Y008068D01*
X007718Y008129D02*
X007656Y008068D01*
X007532Y008068D01*
X007471Y008129D01*
X007471Y008191D01*
X007532Y008253D01*
X007594Y008253D01*
X007532Y008253D02*
X007471Y008315D01*
X007471Y008376D01*
X007532Y008438D01*
X007656Y008438D01*
X007718Y008376D01*
X007349Y008668D02*
X007349Y008915D01*
D11*
X005021Y006769D03*
X004352Y006769D03*
X004265Y004848D03*
X004935Y004848D03*
X003419Y002856D03*
X002750Y002856D03*
D12*
X005836Y001868D03*
X006836Y002868D03*
X007836Y001868D03*
D13*
X000895Y000895D03*
D14*
X001895Y000895D03*
X002895Y000895D03*
X003895Y000895D03*
D15*
X008661Y004191D02*
X009176Y004191D01*
X009176Y005191D02*
X008661Y005191D01*
X008661Y006191D02*
X009176Y006191D01*
X009176Y007191D02*
X008661Y007191D01*
D16*
X005848Y008643D03*
X004628Y008643D03*
X001124Y012108D03*
X001124Y013328D03*
X004628Y016832D03*
X005848Y016832D03*
X009313Y013328D03*
X009313Y012108D03*
D17*
X005218Y012738D03*
D18*
X005139Y012147D01*
X004628Y008643D01*
X005443Y007191D02*
X005021Y006769D01*
X005049Y006191D02*
X004352Y005494D01*
X004352Y004935D01*
X004265Y004848D01*
X004218Y004848D01*
X002738Y003368D01*
X002738Y002868D01*
X002750Y002856D01*
X002750Y002750D01*
X000895Y000895D01*
X003419Y002856D02*
X004754Y004191D01*
X008919Y004191D01*
X008931Y005179D02*
X008919Y005191D01*
X005277Y005191D01*
X004935Y004848D01*
X004352Y005494D02*
X004352Y006769D01*
X001966Y009155D01*
X001950Y009155D01*
X005049Y006191D02*
X008919Y006191D01*
X008919Y007191D02*
X005443Y007191D01*
X008931Y005179D02*
X009391Y005179D01*
X009982Y004588D01*
X009982Y003998D01*
D19*
X009982Y003998D03*
X001950Y009155D03*
M02*
