%
M48
M72
T01C0.0236
T02C0.0320
T03C0.0394
T04C0.0400
T05C0.1260
%
T01
X2895Y8250
T02
X7135Y1750
X8135Y2750
X9135Y1750
T03
X8919Y4191
X8919Y5191
X8919Y6191
X8919Y7191
X9234Y12187
X9234Y13407
X5730Y16872
X4509Y16872
X1045Y13407
X1045Y12187
X4509Y8683
X5730Y8683
T04
X895Y895
X1895Y895
X2895Y895
X3895Y895
T05
X2187Y5691
M30
