G75*
G70*
%OFA0B0*%
%FSLAX24Y24*%
%IPPOS*%
%LPD*%
%AMOC8*
5,1,8,0,0,1.08239X$1,22.5*
%
%ADD10C,0.0060*%
%ADD11C,0.0120*%
%ADD12C,0.0050*%
D10*
X005486Y000618D02*
X005486Y001268D01*
X005486Y001768D02*
X005486Y003118D01*
X005586Y003218D01*
X008086Y003218D01*
X008186Y003118D01*
X008186Y001768D01*
X008186Y001268D02*
X008186Y000618D01*
X008086Y000518D01*
X007836Y000518D01*
X007086Y000518D01*
X007236Y000668D02*
X007836Y000668D01*
X007836Y000518D01*
X006986Y001268D02*
X006986Y001568D01*
X006686Y001568D01*
X006686Y001718D01*
X006536Y001868D01*
X006236Y001868D01*
X006236Y002168D01*
X006536Y002168D01*
X006686Y002318D01*
X006686Y002468D01*
X006686Y002768D01*
X006986Y002768D01*
X006986Y002468D01*
X006986Y002318D01*
X007136Y002168D01*
X007436Y002168D01*
X007436Y001868D01*
X007136Y001868D01*
X006986Y001718D01*
X006986Y001568D01*
X006986Y001268D02*
X006686Y001268D01*
X006686Y001568D01*
X006686Y002468D02*
X006986Y002468D01*
X006436Y000668D02*
X005836Y000668D01*
X005836Y000518D01*
X005586Y000518D01*
X005486Y000618D01*
X005836Y000518D02*
X006586Y000518D01*
D11*
X005896Y002018D02*
X005746Y002018D01*
X006136Y002668D02*
X006036Y002768D01*
X006836Y002938D02*
X006836Y003088D01*
X007586Y002668D02*
X007686Y002768D01*
X007776Y002018D02*
X007926Y002018D01*
D12*
X007848Y001133D02*
X007848Y000793D01*
X007961Y000793D02*
X007734Y000793D01*
X007961Y001020D02*
X007848Y001133D01*
X005861Y001076D02*
X005805Y001133D01*
X005691Y001133D01*
X005634Y001076D01*
X005634Y001020D01*
X005691Y000963D01*
X005634Y000906D01*
X005634Y000849D01*
X005691Y000793D01*
X005805Y000793D01*
X005861Y000849D01*
X005748Y000963D02*
X005691Y000963D01*
X009391Y010927D02*
X009391Y014549D01*
X008171Y015691D01*
X002265Y015691D01*
X001045Y014549D01*
X001045Y010927D01*
M02*
