G75*
G70*
%OFA0B0*%
%FSLAX24Y24*%
%IPPOS*%
%LPD*%
%AMOC8*
5,1,8,0,0,1.08239X$1,22.5*
%
%ADD10C,0.0030*%
%ADD11C,0.0060*%
%ADD12C,0.0120*%
%ADD13C,0.0050*%
D10*
X007204Y008915D02*
X007265Y008915D01*
X007389Y008791D01*
X007510Y008791D02*
X007757Y008791D01*
X007757Y008729D02*
X007757Y008853D01*
X007695Y008915D01*
X007572Y008915D01*
X007510Y008853D01*
X007510Y008791D01*
X007572Y008668D02*
X007695Y008668D01*
X007757Y008729D01*
X007878Y008729D02*
X007878Y008915D01*
X007878Y008729D02*
X007940Y008668D01*
X008002Y008729D01*
X008064Y008668D01*
X008125Y008729D01*
X008125Y008915D01*
X008247Y008853D02*
X008247Y008729D01*
X008308Y008668D01*
X008432Y008668D01*
X008494Y008729D01*
X008494Y008853D01*
X008432Y008915D01*
X008308Y008915D01*
X008247Y008853D01*
X008248Y009268D02*
X008124Y009268D01*
X008063Y009391D02*
X008309Y009391D01*
X008309Y009329D02*
X008309Y009453D01*
X008248Y009515D01*
X008124Y009515D01*
X008063Y009453D01*
X008063Y009391D01*
X008248Y009268D02*
X008309Y009329D01*
X008431Y009391D02*
X008678Y009391D01*
X008678Y009329D02*
X008678Y009453D01*
X008616Y009515D01*
X008493Y009515D01*
X008431Y009453D01*
X008431Y009391D01*
X008493Y009268D02*
X008616Y009268D01*
X008678Y009329D01*
X008799Y009268D02*
X009046Y009268D01*
X009046Y009638D01*
X008862Y009038D02*
X008677Y009038D01*
X008615Y008976D01*
X008615Y008853D01*
X008677Y008791D01*
X008862Y008791D01*
X008862Y008668D02*
X008862Y009038D01*
X008983Y008915D02*
X008983Y008668D01*
X009169Y008668D01*
X009230Y008729D01*
X009230Y008915D01*
X009352Y008915D02*
X009537Y008915D01*
X009599Y008853D01*
X009599Y008729D01*
X009537Y008668D01*
X009352Y008668D01*
X009352Y008438D02*
X009599Y008068D01*
X009720Y008129D02*
X009782Y008068D01*
X009905Y008068D01*
X009967Y008129D01*
X009967Y008191D01*
X009905Y008253D01*
X009782Y008253D01*
X009720Y008191D01*
X009720Y008129D01*
X009782Y008253D02*
X009720Y008315D01*
X009720Y008376D01*
X009782Y008438D01*
X009905Y008438D01*
X009967Y008376D01*
X009967Y008315D01*
X009905Y008253D01*
X009843Y008668D02*
X009843Y008853D01*
X009782Y008915D01*
X009720Y008853D01*
X009720Y008668D01*
X009843Y008853D02*
X009905Y008915D01*
X009967Y008915D01*
X009967Y008668D01*
X009967Y009268D02*
X009967Y009638D01*
X009720Y009638D01*
X009843Y009453D02*
X009967Y009453D01*
X009599Y009329D02*
X009599Y009268D01*
X009537Y009268D01*
X009537Y009329D01*
X009599Y009329D01*
X009169Y008438D02*
X009045Y008438D01*
X008983Y008376D01*
X008983Y008315D01*
X009230Y008068D01*
X008983Y008068D01*
X008862Y008129D02*
X008800Y008068D01*
X008677Y008068D01*
X008615Y008129D01*
X008615Y008253D01*
X008677Y008315D01*
X008739Y008315D01*
X008862Y008253D01*
X008862Y008438D01*
X008615Y008438D01*
X008247Y008438D02*
X008494Y008068D01*
X008125Y008068D02*
X007878Y008068D01*
X008002Y008068D02*
X008002Y008438D01*
X008125Y008315D01*
X007757Y008376D02*
X007695Y008438D01*
X007572Y008438D01*
X007510Y008376D01*
X007510Y008315D01*
X007572Y008253D01*
X007510Y008191D01*
X007510Y008129D01*
X007572Y008068D01*
X007695Y008068D01*
X007757Y008129D01*
X007634Y008253D02*
X007572Y008253D01*
X007389Y008668D02*
X007389Y008915D01*
X009169Y008438D02*
X009230Y008376D01*
D11*
X005486Y001268D02*
X005486Y000618D01*
X005586Y000518D01*
X005836Y000518D01*
X006586Y000518D01*
X006436Y000668D02*
X005836Y000668D01*
X005836Y000518D01*
X005486Y001768D02*
X005486Y003118D01*
X005586Y003218D01*
X008086Y003218D01*
X008186Y003118D01*
X008186Y001768D01*
X008186Y001268D02*
X008186Y000618D01*
X008086Y000518D01*
X007836Y000518D01*
X007086Y000518D01*
X007236Y000668D02*
X007836Y000668D01*
X007836Y000518D01*
X006986Y001268D02*
X006986Y001568D01*
X006686Y001568D01*
X006686Y001718D01*
X006536Y001868D01*
X006236Y001868D01*
X006236Y002168D01*
X006536Y002168D01*
X006686Y002318D01*
X006686Y002468D01*
X006686Y002768D01*
X006986Y002768D01*
X006986Y002468D01*
X006986Y002318D01*
X007136Y002168D01*
X007436Y002168D01*
X007436Y001868D01*
X007136Y001868D01*
X006986Y001718D01*
X006986Y001568D01*
X006986Y001268D02*
X006686Y001268D01*
X006686Y001568D01*
X006686Y002468D02*
X006986Y002468D01*
D12*
X006836Y002938D02*
X006836Y003088D01*
X007586Y002668D02*
X007686Y002768D01*
X007776Y002018D02*
X007926Y002018D01*
X006136Y002668D02*
X006036Y002768D01*
X005896Y002018D02*
X005746Y002018D01*
D13*
X005691Y001133D02*
X005634Y001076D01*
X005634Y001020D01*
X005691Y000963D01*
X005634Y000906D01*
X005634Y000849D01*
X005691Y000793D01*
X005805Y000793D01*
X005861Y000849D01*
X005748Y000963D02*
X005691Y000963D01*
X005691Y001133D02*
X005805Y001133D01*
X005861Y001076D01*
X007734Y000793D02*
X007961Y000793D01*
X007848Y000793D02*
X007848Y001133D01*
X007961Y001020D01*
X008092Y009824D02*
X009313Y010966D01*
X009313Y014588D01*
X008092Y009824D02*
X002187Y009824D01*
X000966Y010966D01*
X000966Y014588D01*
M02*
