%
M48
M72
T01C0.0236
T02C0.0315
T03C0.0320
T04C0.0394
T05C0.0400
T06C0.1260
%
T01
X2895Y8250
X9982Y3998
T02
X8919Y4191
X8919Y5191
X8919Y6191
X8919Y7191
T03
X6836Y2868
X7836Y1868
X5836Y1868
T04
X5730Y8683
X4509Y8683
X1045Y12187
X1045Y13407
X4509Y16872
X5730Y16872
X9234Y13407
X9234Y12187
T05
X895Y895
X1895Y895
X2895Y895
X3895Y895
T06
X2187Y5691
M30
