G75*
G70*
%OFA0B0*%
%FSLAX24Y24*%
%IPPOS*%
%LPD*%
%AMOC8*
5,1,8,0,0,1.08239X$1,22.5*
%
%ADD10C,0.0000*%
%ADD11OC8,0.0520*%
%ADD12R,0.0740X0.0740*%
%ADD13C,0.0740*%
%ADD14C,0.0594*%
%ADD15C,0.5039*%
%ADD16C,0.0906*%
%ADD17C,0.0160*%
%ADD18C,0.0396*%
D10*
X000100Y000100D02*
X000112Y017836D01*
X010738Y017813D01*
X010738Y000100D01*
X000100Y000100D01*
X001557Y005691D02*
X001559Y005741D01*
X001565Y005791D01*
X001575Y005840D01*
X001589Y005888D01*
X001606Y005935D01*
X001627Y005980D01*
X001652Y006024D01*
X001680Y006065D01*
X001712Y006104D01*
X001746Y006141D01*
X001783Y006175D01*
X001823Y006205D01*
X001865Y006232D01*
X001909Y006256D01*
X001955Y006277D01*
X002002Y006293D01*
X002050Y006306D01*
X002100Y006315D01*
X002149Y006320D01*
X002200Y006321D01*
X002250Y006318D01*
X002299Y006311D01*
X002348Y006300D01*
X002396Y006285D01*
X002442Y006267D01*
X002487Y006245D01*
X002530Y006219D01*
X002571Y006190D01*
X002610Y006158D01*
X002646Y006123D01*
X002678Y006085D01*
X002708Y006045D01*
X002735Y006002D01*
X002758Y005958D01*
X002777Y005912D01*
X002793Y005864D01*
X002805Y005815D01*
X002813Y005766D01*
X002817Y005716D01*
X002817Y005666D01*
X002813Y005616D01*
X002805Y005567D01*
X002793Y005518D01*
X002777Y005470D01*
X002758Y005424D01*
X002735Y005380D01*
X002708Y005337D01*
X002678Y005297D01*
X002646Y005259D01*
X002610Y005224D01*
X002571Y005192D01*
X002530Y005163D01*
X002487Y005137D01*
X002442Y005115D01*
X002396Y005097D01*
X002348Y005082D01*
X002299Y005071D01*
X002250Y005064D01*
X002200Y005061D01*
X002149Y005062D01*
X002100Y005067D01*
X002050Y005076D01*
X002002Y005089D01*
X001955Y005105D01*
X001909Y005126D01*
X001865Y005150D01*
X001823Y005177D01*
X001783Y005207D01*
X001746Y005241D01*
X001712Y005278D01*
X001680Y005317D01*
X001652Y005358D01*
X001627Y005402D01*
X001606Y005447D01*
X001589Y005494D01*
X001575Y005542D01*
X001565Y005591D01*
X001559Y005641D01*
X001557Y005691D01*
D11*
X007135Y001750D03*
X008135Y002750D03*
X009135Y001750D03*
D12*
X000895Y000895D03*
D13*
X001895Y000895D03*
X002895Y000895D03*
X003895Y000895D03*
D14*
X008622Y004191D02*
X009216Y004191D01*
X009216Y005191D02*
X008622Y005191D01*
X008622Y006191D02*
X009216Y006191D01*
X009216Y007191D02*
X008622Y007191D01*
D15*
X005139Y012777D03*
D16*
X005730Y008683D03*
X004509Y008683D03*
X001045Y012187D03*
X001045Y013407D03*
X004509Y016872D03*
X005730Y016872D03*
X009234Y013407D03*
X009234Y012187D03*
D17*
X009234Y008328D01*
X010061Y007502D01*
X010061Y005061D01*
X009194Y004194D01*
X008923Y004194D01*
X008919Y004191D01*
X007738Y003147D02*
X008135Y002750D01*
X007738Y003147D02*
X007738Y006320D01*
X008608Y007191D01*
X008919Y007191D01*
X009135Y001750D02*
X007998Y000612D01*
X005494Y000612D01*
X004155Y001950D01*
X002935Y001950D01*
X001895Y000911D01*
X001895Y000895D01*
X002895Y008250D02*
X002895Y010651D01*
X005139Y012777D01*
D18*
X002895Y008250D03*
M02*
