G75*
G70*
%OFA0B0*%
%FSLAX24Y24*%
%IPPOS*%
%LPD*%
%AMOC8*
5,1,8,0,0,1.08239X$1,22.5*
%
%ADD10C,0.0030*%
%ADD11C,0.0050*%
D10*
X007204Y008915D02*
X007265Y008915D01*
X007389Y008791D01*
X007510Y008791D02*
X007757Y008791D01*
X007757Y008729D02*
X007757Y008853D01*
X007695Y008915D01*
X007572Y008915D01*
X007510Y008853D01*
X007510Y008791D01*
X007572Y008668D02*
X007695Y008668D01*
X007757Y008729D01*
X007878Y008729D02*
X007878Y008915D01*
X007878Y008729D02*
X007940Y008668D01*
X008002Y008729D01*
X008064Y008668D01*
X008125Y008729D01*
X008125Y008915D01*
X008247Y008853D02*
X008247Y008729D01*
X008308Y008668D01*
X008432Y008668D01*
X008494Y008729D01*
X008494Y008853D01*
X008432Y008915D01*
X008308Y008915D01*
X008247Y008853D01*
X008248Y009268D02*
X008124Y009268D01*
X008063Y009391D02*
X008309Y009391D01*
X008309Y009329D02*
X008309Y009453D01*
X008248Y009515D01*
X008124Y009515D01*
X008063Y009453D01*
X008063Y009391D01*
X008248Y009268D02*
X008309Y009329D01*
X008431Y009391D02*
X008678Y009391D01*
X008678Y009329D02*
X008678Y009453D01*
X008616Y009515D01*
X008493Y009515D01*
X008431Y009453D01*
X008431Y009391D01*
X008493Y009268D02*
X008616Y009268D01*
X008678Y009329D01*
X008799Y009268D02*
X009046Y009268D01*
X009046Y009638D01*
X008862Y009038D02*
X008677Y009038D01*
X008615Y008976D01*
X008615Y008853D01*
X008677Y008791D01*
X008862Y008791D01*
X008862Y008668D02*
X008862Y009038D01*
X008983Y008915D02*
X008983Y008668D01*
X009169Y008668D01*
X009230Y008729D01*
X009230Y008915D01*
X009352Y008915D02*
X009537Y008915D01*
X009599Y008853D01*
X009599Y008729D01*
X009537Y008668D01*
X009352Y008668D01*
X009352Y008438D02*
X009599Y008068D01*
X009720Y008129D02*
X009782Y008068D01*
X009905Y008068D01*
X009967Y008129D01*
X009967Y008191D01*
X009905Y008253D01*
X009782Y008253D01*
X009720Y008191D01*
X009720Y008129D01*
X009782Y008253D02*
X009720Y008315D01*
X009720Y008376D01*
X009782Y008438D01*
X009905Y008438D01*
X009967Y008376D01*
X009967Y008315D01*
X009905Y008253D01*
X009843Y008668D02*
X009843Y008853D01*
X009782Y008915D01*
X009720Y008853D01*
X009720Y008668D01*
X009843Y008853D02*
X009905Y008915D01*
X009967Y008915D01*
X009967Y008668D01*
X009967Y009268D02*
X009967Y009638D01*
X009720Y009638D01*
X009843Y009453D02*
X009967Y009453D01*
X009599Y009329D02*
X009599Y009268D01*
X009537Y009268D01*
X009537Y009329D01*
X009599Y009329D01*
X009169Y008438D02*
X009045Y008438D01*
X008983Y008376D01*
X008983Y008315D01*
X009045Y008253D01*
X008983Y008191D01*
X008983Y008129D01*
X009045Y008068D01*
X009169Y008068D01*
X009230Y008129D01*
X009107Y008253D02*
X009045Y008253D01*
X009230Y008376D02*
X009169Y008438D01*
X008862Y008315D02*
X008739Y008438D01*
X008739Y008068D01*
X008862Y008068D02*
X008615Y008068D01*
X008494Y008068D02*
X008247Y008438D01*
X008125Y008315D02*
X008002Y008438D01*
X008002Y008068D01*
X008125Y008068D02*
X007878Y008068D01*
X007757Y008129D02*
X007695Y008068D01*
X007572Y008068D01*
X007510Y008129D01*
X007510Y008191D01*
X007572Y008253D01*
X007634Y008253D01*
X007572Y008253D02*
X007510Y008315D01*
X007510Y008376D01*
X007572Y008438D01*
X007695Y008438D01*
X007757Y008376D01*
X007389Y008668D02*
X007389Y008915D01*
D11*
X002187Y009824D02*
X000966Y010966D01*
X000966Y014588D01*
X002187Y009824D02*
X008092Y009824D01*
X009313Y010966D01*
X009313Y014588D01*
M02*
