G75*
%MOIN*%
%OFA0B0*%
%FSLAX25Y25*%
%IPPOS*%
%LPD*%
%AMOC8*
5,1,8,0,0,1.08239X$1,22.5*
%
%ADD10C,0.00800*%
%ADD11C,0.00500*%
%ADD12C,0.00400*%
D10*
X0006374Y0054071D02*
X0011374Y0054071D01*
X0013874Y0056571D01*
X0016374Y0054071D01*
X0021374Y0054071D01*
X0023874Y0056571D01*
X0026374Y0054071D01*
X0031374Y0054071D01*
X0033874Y0056571D01*
X0036374Y0054071D01*
X0041374Y0054071D01*
X0043874Y0056571D01*
X0043874Y0061571D01*
X0041374Y0064071D01*
X0036374Y0064071D01*
X0033874Y0061571D01*
X0031374Y0064071D01*
X0026374Y0064071D01*
X0023874Y0061571D01*
X0021374Y0064071D01*
X0016374Y0064071D01*
X0013874Y0061571D01*
X0011374Y0064071D01*
X0006374Y0064071D01*
X0003874Y0061571D01*
X0003874Y0056571D01*
X0006374Y0054071D01*
D11*
X0002969Y0046866D02*
X0014780Y0046866D01*
X0014780Y0022063D01*
X0002969Y0022063D01*
X0002969Y0046866D01*
X0034533Y0048295D02*
X0035283Y0047544D01*
X0036034Y0047544D01*
X0036785Y0048295D01*
X0036785Y0052048D01*
X0037535Y0052048D02*
X0036034Y0052048D01*
X0039137Y0052048D02*
X0041389Y0052048D01*
X0042139Y0051298D01*
X0042139Y0049796D01*
X0041389Y0049046D01*
X0039137Y0049046D01*
X0039137Y0047544D02*
X0039137Y0052048D01*
X0043741Y0050547D02*
X0045242Y0052048D01*
X0045242Y0047544D01*
X0043741Y0047544D02*
X0046743Y0047544D01*
D12*
X0003720Y0004841D02*
X0004487Y0004074D01*
X0006022Y0004074D01*
X0006789Y0004841D01*
X0006789Y0008678D01*
X0008324Y0007911D02*
X0008324Y0007143D01*
X0009091Y0006376D01*
X0010626Y0006376D01*
X0011393Y0005609D01*
X0011393Y0004841D01*
X0010626Y0004074D01*
X0009091Y0004074D01*
X0008324Y0004841D01*
X0008324Y0007911D02*
X0009091Y0008678D01*
X0010626Y0008678D01*
X0011393Y0007911D01*
X0012928Y0008678D02*
X0015229Y0008678D01*
X0015997Y0007911D01*
X0015997Y0007143D01*
X0015229Y0006376D01*
X0012928Y0006376D01*
X0012928Y0004074D02*
X0012928Y0008678D01*
X0015229Y0006376D02*
X0015997Y0005609D01*
X0015997Y0004841D01*
X0015229Y0004074D01*
X0012928Y0004074D01*
X0017531Y0004074D02*
X0020601Y0004074D01*
X0019066Y0004074D02*
X0019066Y0008678D01*
X0017531Y0007143D01*
X0015564Y0011909D02*
X0012494Y0011909D01*
X0010960Y0011909D02*
X0010960Y0016513D01*
X0012494Y0014978D02*
X0014029Y0016513D01*
X0014029Y0011909D01*
X0010960Y0011909D02*
X0009425Y0013443D01*
X0007891Y0011909D01*
X0007891Y0016513D01*
X0006356Y0015745D02*
X0005589Y0016513D01*
X0004054Y0016513D01*
X0003287Y0015745D01*
X0003287Y0014978D01*
X0004054Y0014211D01*
X0005589Y0014211D01*
X0006356Y0013443D01*
X0006356Y0012676D01*
X0005589Y0011909D01*
X0004054Y0011909D01*
X0003287Y0012676D01*
X0003720Y0008678D02*
X0003720Y0004841D01*
M02*
