G75*
%MOIN*%
%OFA0B0*%
%FSLAX25Y25*%
%IPPOS*%
%LPD*%
%AMOC8*
5,1,8,0,0,1.08239X$1,22.5*
%
%ADD10C,0.00000*%
D10*
X0001000Y0001000D02*
X0001000Y0066945D01*
X0050213Y0066945D01*
X0050213Y0001000D01*
X0001000Y0001000D01*
X0007102Y0028559D02*
X0007104Y0028643D01*
X0007110Y0028726D01*
X0007120Y0028809D01*
X0007134Y0028892D01*
X0007151Y0028974D01*
X0007173Y0029055D01*
X0007198Y0029134D01*
X0007227Y0029213D01*
X0007260Y0029290D01*
X0007296Y0029365D01*
X0007336Y0029439D01*
X0007379Y0029511D01*
X0007426Y0029580D01*
X0007476Y0029647D01*
X0007529Y0029712D01*
X0007585Y0029774D01*
X0007643Y0029834D01*
X0007705Y0029891D01*
X0007769Y0029944D01*
X0007836Y0029995D01*
X0007905Y0030042D01*
X0007976Y0030087D01*
X0008049Y0030127D01*
X0008124Y0030164D01*
X0008201Y0030198D01*
X0008279Y0030228D01*
X0008358Y0030254D01*
X0008439Y0030277D01*
X0008521Y0030295D01*
X0008603Y0030310D01*
X0008686Y0030321D01*
X0008769Y0030328D01*
X0008853Y0030331D01*
X0008937Y0030330D01*
X0009020Y0030325D01*
X0009104Y0030316D01*
X0009186Y0030303D01*
X0009268Y0030287D01*
X0009349Y0030266D01*
X0009430Y0030242D01*
X0009508Y0030214D01*
X0009586Y0030182D01*
X0009662Y0030146D01*
X0009736Y0030107D01*
X0009808Y0030065D01*
X0009878Y0030019D01*
X0009946Y0029970D01*
X0010011Y0029918D01*
X0010074Y0029863D01*
X0010134Y0029805D01*
X0010192Y0029744D01*
X0010246Y0029680D01*
X0010298Y0029614D01*
X0010346Y0029546D01*
X0010391Y0029475D01*
X0010432Y0029402D01*
X0010471Y0029328D01*
X0010505Y0029252D01*
X0010536Y0029174D01*
X0010563Y0029095D01*
X0010587Y0029014D01*
X0010606Y0028933D01*
X0010622Y0028851D01*
X0010634Y0028768D01*
X0010642Y0028684D01*
X0010646Y0028601D01*
X0010646Y0028517D01*
X0010642Y0028434D01*
X0010634Y0028350D01*
X0010622Y0028267D01*
X0010606Y0028185D01*
X0010587Y0028104D01*
X0010563Y0028023D01*
X0010536Y0027944D01*
X0010505Y0027866D01*
X0010471Y0027790D01*
X0010432Y0027716D01*
X0010391Y0027643D01*
X0010346Y0027572D01*
X0010298Y0027504D01*
X0010246Y0027438D01*
X0010192Y0027374D01*
X0010134Y0027313D01*
X0010074Y0027255D01*
X0010011Y0027200D01*
X0009946Y0027148D01*
X0009878Y0027099D01*
X0009808Y0027053D01*
X0009736Y0027011D01*
X0009662Y0026972D01*
X0009586Y0026936D01*
X0009508Y0026904D01*
X0009430Y0026876D01*
X0009349Y0026852D01*
X0009268Y0026831D01*
X0009186Y0026815D01*
X0009104Y0026802D01*
X0009020Y0026793D01*
X0008937Y0026788D01*
X0008853Y0026787D01*
X0008769Y0026790D01*
X0008686Y0026797D01*
X0008603Y0026808D01*
X0008521Y0026823D01*
X0008439Y0026841D01*
X0008358Y0026864D01*
X0008279Y0026890D01*
X0008201Y0026920D01*
X0008124Y0026954D01*
X0008049Y0026991D01*
X0007976Y0027031D01*
X0007905Y0027076D01*
X0007836Y0027123D01*
X0007769Y0027174D01*
X0007705Y0027227D01*
X0007643Y0027284D01*
X0007585Y0027344D01*
X0007529Y0027406D01*
X0007476Y0027471D01*
X0007426Y0027538D01*
X0007379Y0027607D01*
X0007336Y0027679D01*
X0007296Y0027753D01*
X0007260Y0027828D01*
X0007227Y0027905D01*
X0007198Y0027984D01*
X0007173Y0028063D01*
X0007151Y0028144D01*
X0007134Y0028226D01*
X0007120Y0028309D01*
X0007110Y0028392D01*
X0007104Y0028475D01*
X0007102Y0028559D01*
X0007102Y0040370D02*
X0007104Y0040454D01*
X0007110Y0040537D01*
X0007120Y0040620D01*
X0007134Y0040703D01*
X0007151Y0040785D01*
X0007173Y0040866D01*
X0007198Y0040945D01*
X0007227Y0041024D01*
X0007260Y0041101D01*
X0007296Y0041176D01*
X0007336Y0041250D01*
X0007379Y0041322D01*
X0007426Y0041391D01*
X0007476Y0041458D01*
X0007529Y0041523D01*
X0007585Y0041585D01*
X0007643Y0041645D01*
X0007705Y0041702D01*
X0007769Y0041755D01*
X0007836Y0041806D01*
X0007905Y0041853D01*
X0007976Y0041898D01*
X0008049Y0041938D01*
X0008124Y0041975D01*
X0008201Y0042009D01*
X0008279Y0042039D01*
X0008358Y0042065D01*
X0008439Y0042088D01*
X0008521Y0042106D01*
X0008603Y0042121D01*
X0008686Y0042132D01*
X0008769Y0042139D01*
X0008853Y0042142D01*
X0008937Y0042141D01*
X0009020Y0042136D01*
X0009104Y0042127D01*
X0009186Y0042114D01*
X0009268Y0042098D01*
X0009349Y0042077D01*
X0009430Y0042053D01*
X0009508Y0042025D01*
X0009586Y0041993D01*
X0009662Y0041957D01*
X0009736Y0041918D01*
X0009808Y0041876D01*
X0009878Y0041830D01*
X0009946Y0041781D01*
X0010011Y0041729D01*
X0010074Y0041674D01*
X0010134Y0041616D01*
X0010192Y0041555D01*
X0010246Y0041491D01*
X0010298Y0041425D01*
X0010346Y0041357D01*
X0010391Y0041286D01*
X0010432Y0041213D01*
X0010471Y0041139D01*
X0010505Y0041063D01*
X0010536Y0040985D01*
X0010563Y0040906D01*
X0010587Y0040825D01*
X0010606Y0040744D01*
X0010622Y0040662D01*
X0010634Y0040579D01*
X0010642Y0040495D01*
X0010646Y0040412D01*
X0010646Y0040328D01*
X0010642Y0040245D01*
X0010634Y0040161D01*
X0010622Y0040078D01*
X0010606Y0039996D01*
X0010587Y0039915D01*
X0010563Y0039834D01*
X0010536Y0039755D01*
X0010505Y0039677D01*
X0010471Y0039601D01*
X0010432Y0039527D01*
X0010391Y0039454D01*
X0010346Y0039383D01*
X0010298Y0039315D01*
X0010246Y0039249D01*
X0010192Y0039185D01*
X0010134Y0039124D01*
X0010074Y0039066D01*
X0010011Y0039011D01*
X0009946Y0038959D01*
X0009878Y0038910D01*
X0009808Y0038864D01*
X0009736Y0038822D01*
X0009662Y0038783D01*
X0009586Y0038747D01*
X0009508Y0038715D01*
X0009430Y0038687D01*
X0009349Y0038663D01*
X0009268Y0038642D01*
X0009186Y0038626D01*
X0009104Y0038613D01*
X0009020Y0038604D01*
X0008937Y0038599D01*
X0008853Y0038598D01*
X0008769Y0038601D01*
X0008686Y0038608D01*
X0008603Y0038619D01*
X0008521Y0038634D01*
X0008439Y0038652D01*
X0008358Y0038675D01*
X0008279Y0038701D01*
X0008201Y0038731D01*
X0008124Y0038765D01*
X0008049Y0038802D01*
X0007976Y0038842D01*
X0007905Y0038887D01*
X0007836Y0038934D01*
X0007769Y0038985D01*
X0007705Y0039038D01*
X0007643Y0039095D01*
X0007585Y0039155D01*
X0007529Y0039217D01*
X0007476Y0039282D01*
X0007426Y0039349D01*
X0007379Y0039418D01*
X0007336Y0039490D01*
X0007296Y0039564D01*
X0007260Y0039639D01*
X0007227Y0039716D01*
X0007198Y0039795D01*
X0007173Y0039874D01*
X0007151Y0039955D01*
X0007134Y0040037D01*
X0007120Y0040120D01*
X0007110Y0040203D01*
X0007104Y0040286D01*
X0007102Y0040370D01*
M02*
