G75*
%MOIN*%
%OFA0B0*%
%FSLAX25Y25*%
%IPPOS*%
%LPD*%
%AMOC8*
5,1,8,0,0,1.08239X$1,22.5*
%
%ADD10C,0.00200*%
%ADD11C,0.02200*%
%ADD12C,0.00500*%
%ADD13C,0.00300*%
%ADD14C,0.00800*%
D10*
X0002909Y0013895D02*
X0002175Y0014629D01*
X0002175Y0016097D01*
X0003643Y0016097D02*
X0003643Y0014629D01*
X0002909Y0013895D01*
X0004385Y0014262D02*
X0004752Y0013895D01*
X0005486Y0013895D01*
X0005853Y0014262D01*
X0005119Y0014996D02*
X0004752Y0014996D01*
X0004385Y0014629D01*
X0004385Y0014262D01*
X0004752Y0014996D02*
X0004385Y0015363D01*
X0004385Y0015730D01*
X0004752Y0016097D01*
X0005486Y0016097D01*
X0005853Y0015730D01*
X0024158Y0011763D02*
X0025626Y0011763D01*
X0026368Y0012130D02*
X0026735Y0011763D01*
X0027469Y0011763D01*
X0027836Y0012130D01*
X0027836Y0013598D01*
X0027469Y0013965D01*
X0026735Y0013965D01*
X0026368Y0013598D01*
X0025626Y0013231D02*
X0024892Y0013965D01*
X0024892Y0011763D01*
X0031935Y0050124D02*
X0033403Y0050124D01*
X0032669Y0050124D02*
X0032669Y0052325D01*
X0033403Y0051592D01*
X0034145Y0050124D02*
X0035613Y0050124D01*
X0035613Y0052325D01*
X0026024Y0052209D02*
X0025658Y0051842D01*
X0024924Y0051842D01*
X0024557Y0052209D01*
X0023815Y0051842D02*
X0022347Y0053310D01*
X0022347Y0053677D01*
X0022714Y0054044D01*
X0023448Y0054044D01*
X0023815Y0053677D01*
X0024557Y0053677D02*
X0024924Y0054044D01*
X0025658Y0054044D01*
X0026024Y0053677D01*
X0026024Y0052209D01*
X0023815Y0051842D02*
X0022347Y0051842D01*
D11*
X0020837Y0044307D02*
X0020596Y0044307D01*
X0032488Y0018837D02*
X0032488Y0018596D01*
D12*
X0035283Y0027378D02*
X0035283Y0033677D01*
X0023866Y0033677D01*
X0023866Y0027378D01*
X0035283Y0027378D01*
X0030683Y0045291D02*
X0030685Y0045349D01*
X0030691Y0045407D01*
X0030701Y0045464D01*
X0030714Y0045521D01*
X0030732Y0045576D01*
X0030753Y0045630D01*
X0030777Y0045683D01*
X0030806Y0045734D01*
X0030837Y0045782D01*
X0030872Y0045829D01*
X0030910Y0045873D01*
X0030950Y0045914D01*
X0030994Y0045953D01*
X0031040Y0045988D01*
X0031088Y0046021D01*
X0031138Y0046050D01*
X0031191Y0046075D01*
X0031244Y0046097D01*
X0031299Y0046116D01*
X0031356Y0046130D01*
X0031413Y0046141D01*
X0031470Y0046148D01*
X0031528Y0046151D01*
X0031587Y0046150D01*
X0031644Y0046145D01*
X0031702Y0046136D01*
X0031759Y0046124D01*
X0031814Y0046107D01*
X0031869Y0046087D01*
X0031922Y0046063D01*
X0031973Y0046036D01*
X0032022Y0046005D01*
X0032069Y0045971D01*
X0032114Y0045934D01*
X0032156Y0045894D01*
X0032196Y0045851D01*
X0032232Y0045806D01*
X0032265Y0045758D01*
X0032295Y0045708D01*
X0032321Y0045657D01*
X0032344Y0045603D01*
X0032364Y0045548D01*
X0032379Y0045492D01*
X0032391Y0045436D01*
X0032399Y0045378D01*
X0032403Y0045320D01*
X0032403Y0045262D01*
X0032399Y0045204D01*
X0032391Y0045146D01*
X0032379Y0045090D01*
X0032364Y0045034D01*
X0032344Y0044979D01*
X0032321Y0044925D01*
X0032295Y0044874D01*
X0032265Y0044824D01*
X0032232Y0044776D01*
X0032196Y0044731D01*
X0032156Y0044688D01*
X0032114Y0044648D01*
X0032069Y0044611D01*
X0032022Y0044577D01*
X0031973Y0044546D01*
X0031922Y0044519D01*
X0031869Y0044495D01*
X0031814Y0044475D01*
X0031759Y0044458D01*
X0031702Y0044446D01*
X0031644Y0044437D01*
X0031587Y0044432D01*
X0031528Y0044431D01*
X0031470Y0044434D01*
X0031413Y0044441D01*
X0031356Y0044452D01*
X0031299Y0044466D01*
X0031244Y0044485D01*
X0031191Y0044507D01*
X0031138Y0044532D01*
X0031088Y0044561D01*
X0031040Y0044594D01*
X0030994Y0044629D01*
X0030950Y0044668D01*
X0030910Y0044709D01*
X0030872Y0044753D01*
X0030837Y0044800D01*
X0030806Y0044848D01*
X0030777Y0044899D01*
X0030753Y0044952D01*
X0030732Y0045006D01*
X0030714Y0045061D01*
X0030701Y0045118D01*
X0030691Y0045175D01*
X0030685Y0045233D01*
X0030683Y0045291D01*
X0031443Y0045291D02*
X0031445Y0045311D01*
X0031451Y0045329D01*
X0031460Y0045347D01*
X0031472Y0045362D01*
X0031487Y0045374D01*
X0031505Y0045383D01*
X0031523Y0045389D01*
X0031543Y0045391D01*
X0031563Y0045389D01*
X0031581Y0045383D01*
X0031599Y0045374D01*
X0031614Y0045362D01*
X0031626Y0045347D01*
X0031635Y0045329D01*
X0031641Y0045311D01*
X0031643Y0045291D01*
X0031641Y0045271D01*
X0031635Y0045253D01*
X0031626Y0045235D01*
X0031614Y0045220D01*
X0031599Y0045208D01*
X0031581Y0045199D01*
X0031563Y0045193D01*
X0031543Y0045191D01*
X0031523Y0045193D01*
X0031505Y0045199D01*
X0031487Y0045208D01*
X0031472Y0045220D01*
X0031460Y0045235D01*
X0031451Y0045253D01*
X0031445Y0045271D01*
X0031443Y0045291D01*
X0031043Y0045291D02*
X0031045Y0045335D01*
X0031051Y0045379D01*
X0031061Y0045422D01*
X0031074Y0045464D01*
X0031091Y0045505D01*
X0031112Y0045544D01*
X0031136Y0045581D01*
X0031163Y0045616D01*
X0031193Y0045648D01*
X0031226Y0045678D01*
X0031262Y0045704D01*
X0031299Y0045728D01*
X0031339Y0045747D01*
X0031380Y0045764D01*
X0031423Y0045776D01*
X0031466Y0045785D01*
X0031510Y0045790D01*
X0031554Y0045791D01*
X0031598Y0045788D01*
X0031642Y0045781D01*
X0031685Y0045770D01*
X0031727Y0045756D01*
X0031767Y0045738D01*
X0031806Y0045716D01*
X0031842Y0045692D01*
X0031876Y0045664D01*
X0031908Y0045633D01*
X0031937Y0045599D01*
X0031963Y0045563D01*
X0031985Y0045525D01*
X0032004Y0045485D01*
X0032019Y0045443D01*
X0032031Y0045401D01*
X0032039Y0045357D01*
X0032043Y0045313D01*
X0032043Y0045269D01*
X0032039Y0045225D01*
X0032031Y0045181D01*
X0032019Y0045139D01*
X0032004Y0045097D01*
X0031985Y0045057D01*
X0031963Y0045019D01*
X0031937Y0044983D01*
X0031908Y0044949D01*
X0031876Y0044918D01*
X0031842Y0044890D01*
X0031806Y0044866D01*
X0031767Y0044844D01*
X0031727Y0044826D01*
X0031685Y0044812D01*
X0031642Y0044801D01*
X0031598Y0044794D01*
X0031554Y0044791D01*
X0031510Y0044792D01*
X0031466Y0044797D01*
X0031423Y0044806D01*
X0031380Y0044818D01*
X0031339Y0044835D01*
X0031299Y0044854D01*
X0031262Y0044878D01*
X0031226Y0044904D01*
X0031193Y0044934D01*
X0031163Y0044966D01*
X0031136Y0045001D01*
X0031112Y0045038D01*
X0031091Y0045077D01*
X0031074Y0045118D01*
X0031061Y0045160D01*
X0031051Y0045203D01*
X0031045Y0045247D01*
X0031043Y0045291D01*
X0011617Y0045544D02*
X0011617Y0044043D01*
X0011617Y0044793D02*
X0007864Y0044793D01*
X0007113Y0044043D01*
X0007113Y0043292D01*
X0007864Y0042541D01*
X0008614Y0047145D02*
X0008614Y0049397D01*
X0009365Y0050148D01*
X0010866Y0050148D01*
X0011617Y0049397D01*
X0011617Y0047145D01*
X0007113Y0047145D01*
X0007113Y0051749D02*
X0010116Y0054752D01*
X0010866Y0054752D01*
X0011617Y0054001D01*
X0011617Y0052500D01*
X0010866Y0051749D01*
X0007113Y0051749D02*
X0007113Y0054752D01*
D13*
X0016029Y0034446D02*
X0016029Y0031544D01*
X0016996Y0031544D02*
X0015061Y0031544D01*
X0016996Y0033479D02*
X0016029Y0034446D01*
X0018008Y0033962D02*
X0018008Y0032995D01*
X0018492Y0032511D01*
X0019943Y0032511D01*
X0019943Y0031544D02*
X0019943Y0034446D01*
X0018492Y0034446D01*
X0018008Y0033962D01*
X0018975Y0032511D02*
X0018008Y0031544D01*
X0020954Y0032511D02*
X0020954Y0034446D01*
X0020954Y0032511D02*
X0021922Y0031544D01*
X0022889Y0032511D01*
X0022889Y0034446D01*
D14*
X0035421Y0057850D02*
X0032921Y0060350D01*
X0032921Y0065350D01*
X0035421Y0067850D01*
X0040421Y0067850D01*
X0042921Y0065350D01*
X0042921Y0060350D01*
X0040421Y0057850D01*
X0035421Y0057850D01*
X0022921Y0070350D02*
X0022921Y0075350D01*
X0020421Y0077850D01*
X0015421Y0077850D01*
X0012921Y0075350D01*
X0010421Y0077850D01*
X0005421Y0077850D01*
X0002921Y0075350D01*
X0002921Y0070350D01*
X0005421Y0067850D01*
X0010421Y0067850D01*
X0012921Y0070350D01*
X0015421Y0067850D01*
X0020421Y0067850D01*
X0022921Y0070350D01*
M02*
