G75*
%MOIN*%
%OFA0B0*%
%FSLAX25Y25*%
%IPPOS*%
%LPD*%
%AMOC8*
5,1,8,0,0,1.08239X$1,22.5*
%
%ADD10R,0.04331X0.03937*%
%ADD11R,0.03937X0.04331*%
%ADD12R,0.07400X0.07400*%
%ADD13C,0.07400*%
%ADD14R,0.01969X0.01969*%
%ADD15C,0.03762*%
%ADD16C,0.01600*%
D10*
X0029110Y0018717D03*
X0035803Y0018717D03*
X0034858Y0045291D03*
X0028165Y0045291D03*
D11*
X0020685Y0047654D03*
X0020685Y0040961D03*
D12*
X0008874Y0059071D03*
D13*
X0018874Y0059071D03*
X0028874Y0059071D03*
X0038874Y0059071D03*
D14*
X0033283Y0035055D03*
X0033283Y0026000D03*
X0029543Y0026000D03*
X0025803Y0026000D03*
X0025803Y0035055D03*
D15*
X0021630Y0025606D03*
D16*
X0009858Y0018717D02*
X0003835Y0024740D01*
X0003835Y0054031D01*
X0008874Y0059071D01*
X0020291Y0047654D01*
X0020685Y0047654D01*
X0020685Y0040961D02*
X0023835Y0040961D01*
X0028165Y0045291D01*
X0028165Y0049780D01*
X0018874Y0059071D01*
X0020685Y0040961D02*
X0025803Y0035843D01*
X0025803Y0035055D01*
X0027496Y0029386D02*
X0032024Y0029386D01*
X0033323Y0028087D01*
X0033323Y0026039D01*
X0033283Y0026000D01*
X0033283Y0021236D01*
X0035803Y0018717D01*
X0029110Y0025567D02*
X0029543Y0026000D01*
X0029110Y0025567D02*
X0029110Y0018717D01*
X0009858Y0018717D01*
X0021630Y0025606D02*
X0025409Y0025606D01*
X0025803Y0026000D01*
X0025803Y0027693D01*
X0027496Y0029386D01*
X0033283Y0035055D02*
X0033283Y0043717D01*
X0034858Y0045291D01*
M02*
