G75*
%MOIN*%
%OFA0B0*%
%FSLAX25Y25*%
%IPPOS*%
%LPD*%
%AMOC8*
5,1,8,0,0,1.08239X$1,22.5*
%
%ADD10C,0.02200*%
%ADD11C,0.00100*%
%ADD12C,0.00500*%
%ADD13C,0.00400*%
D10*
X0032457Y0018596D02*
X0032457Y0018837D01*
X0020805Y0044307D02*
X0020565Y0044307D01*
D11*
X0023907Y0012513D02*
X0024908Y0012513D01*
X0024407Y0012513D02*
X0024407Y0014014D01*
X0024908Y0013514D01*
X0025380Y0013764D02*
X0025630Y0014014D01*
X0026131Y0014014D01*
X0026381Y0013764D01*
X0026381Y0012763D01*
X0026131Y0012513D01*
X0025630Y0012513D01*
X0025380Y0012763D01*
X0033157Y0050074D02*
X0034158Y0050074D01*
X0034630Y0050074D02*
X0035631Y0050074D01*
X0035631Y0051575D01*
X0034158Y0051074D02*
X0033657Y0051575D01*
X0033657Y0050074D01*
X0019727Y0051110D02*
X0019477Y0050859D01*
X0018977Y0050859D01*
X0018726Y0051110D01*
X0018254Y0050859D02*
X0017253Y0051860D01*
X0017253Y0052111D01*
X0017503Y0052361D01*
X0018004Y0052361D01*
X0018254Y0052111D01*
X0018726Y0052111D02*
X0018977Y0052361D01*
X0019477Y0052361D01*
X0019727Y0052111D01*
X0019727Y0051110D01*
X0018254Y0050859D02*
X0017253Y0050859D01*
D12*
X0023835Y0033677D02*
X0023835Y0027378D01*
X0035252Y0027378D01*
X0035252Y0033677D01*
X0023835Y0033677D01*
X0030652Y0045291D02*
X0030654Y0045349D01*
X0030660Y0045407D01*
X0030670Y0045464D01*
X0030683Y0045521D01*
X0030701Y0045576D01*
X0030722Y0045630D01*
X0030746Y0045683D01*
X0030775Y0045734D01*
X0030806Y0045782D01*
X0030841Y0045829D01*
X0030879Y0045873D01*
X0030919Y0045914D01*
X0030963Y0045953D01*
X0031009Y0045988D01*
X0031057Y0046021D01*
X0031107Y0046050D01*
X0031160Y0046075D01*
X0031213Y0046097D01*
X0031268Y0046116D01*
X0031325Y0046130D01*
X0031382Y0046141D01*
X0031439Y0046148D01*
X0031497Y0046151D01*
X0031556Y0046150D01*
X0031613Y0046145D01*
X0031671Y0046136D01*
X0031728Y0046124D01*
X0031783Y0046107D01*
X0031838Y0046087D01*
X0031891Y0046063D01*
X0031942Y0046036D01*
X0031991Y0046005D01*
X0032038Y0045971D01*
X0032083Y0045934D01*
X0032125Y0045894D01*
X0032165Y0045851D01*
X0032201Y0045806D01*
X0032234Y0045758D01*
X0032264Y0045708D01*
X0032290Y0045657D01*
X0032313Y0045603D01*
X0032333Y0045548D01*
X0032348Y0045492D01*
X0032360Y0045436D01*
X0032368Y0045378D01*
X0032372Y0045320D01*
X0032372Y0045262D01*
X0032368Y0045204D01*
X0032360Y0045146D01*
X0032348Y0045090D01*
X0032333Y0045034D01*
X0032313Y0044979D01*
X0032290Y0044925D01*
X0032264Y0044874D01*
X0032234Y0044824D01*
X0032201Y0044776D01*
X0032165Y0044731D01*
X0032125Y0044688D01*
X0032083Y0044648D01*
X0032038Y0044611D01*
X0031991Y0044577D01*
X0031942Y0044546D01*
X0031891Y0044519D01*
X0031838Y0044495D01*
X0031783Y0044475D01*
X0031728Y0044458D01*
X0031671Y0044446D01*
X0031613Y0044437D01*
X0031556Y0044432D01*
X0031497Y0044431D01*
X0031439Y0044434D01*
X0031382Y0044441D01*
X0031325Y0044452D01*
X0031268Y0044466D01*
X0031213Y0044485D01*
X0031160Y0044507D01*
X0031107Y0044532D01*
X0031057Y0044561D01*
X0031009Y0044594D01*
X0030963Y0044629D01*
X0030919Y0044668D01*
X0030879Y0044709D01*
X0030841Y0044753D01*
X0030806Y0044800D01*
X0030775Y0044848D01*
X0030746Y0044899D01*
X0030722Y0044952D01*
X0030701Y0045006D01*
X0030683Y0045061D01*
X0030670Y0045118D01*
X0030660Y0045175D01*
X0030654Y0045233D01*
X0030652Y0045291D01*
X0031412Y0045291D02*
X0031414Y0045311D01*
X0031420Y0045329D01*
X0031429Y0045347D01*
X0031441Y0045362D01*
X0031456Y0045374D01*
X0031474Y0045383D01*
X0031492Y0045389D01*
X0031512Y0045391D01*
X0031532Y0045389D01*
X0031550Y0045383D01*
X0031568Y0045374D01*
X0031583Y0045362D01*
X0031595Y0045347D01*
X0031604Y0045329D01*
X0031610Y0045311D01*
X0031612Y0045291D01*
X0031610Y0045271D01*
X0031604Y0045253D01*
X0031595Y0045235D01*
X0031583Y0045220D01*
X0031568Y0045208D01*
X0031550Y0045199D01*
X0031532Y0045193D01*
X0031512Y0045191D01*
X0031492Y0045193D01*
X0031474Y0045199D01*
X0031456Y0045208D01*
X0031441Y0045220D01*
X0031429Y0045235D01*
X0031420Y0045253D01*
X0031414Y0045271D01*
X0031412Y0045291D01*
X0031012Y0045291D02*
X0031014Y0045335D01*
X0031020Y0045379D01*
X0031030Y0045422D01*
X0031043Y0045464D01*
X0031060Y0045505D01*
X0031081Y0045544D01*
X0031105Y0045581D01*
X0031132Y0045616D01*
X0031162Y0045648D01*
X0031195Y0045678D01*
X0031231Y0045704D01*
X0031268Y0045728D01*
X0031308Y0045747D01*
X0031349Y0045764D01*
X0031392Y0045776D01*
X0031435Y0045785D01*
X0031479Y0045790D01*
X0031523Y0045791D01*
X0031567Y0045788D01*
X0031611Y0045781D01*
X0031654Y0045770D01*
X0031696Y0045756D01*
X0031736Y0045738D01*
X0031775Y0045716D01*
X0031811Y0045692D01*
X0031845Y0045664D01*
X0031877Y0045633D01*
X0031906Y0045599D01*
X0031932Y0045563D01*
X0031954Y0045525D01*
X0031973Y0045485D01*
X0031988Y0045443D01*
X0032000Y0045401D01*
X0032008Y0045357D01*
X0032012Y0045313D01*
X0032012Y0045269D01*
X0032008Y0045225D01*
X0032000Y0045181D01*
X0031988Y0045139D01*
X0031973Y0045097D01*
X0031954Y0045057D01*
X0031932Y0045019D01*
X0031906Y0044983D01*
X0031877Y0044949D01*
X0031845Y0044918D01*
X0031811Y0044890D01*
X0031775Y0044866D01*
X0031736Y0044844D01*
X0031696Y0044826D01*
X0031654Y0044812D01*
X0031611Y0044801D01*
X0031567Y0044794D01*
X0031523Y0044791D01*
X0031479Y0044792D01*
X0031435Y0044797D01*
X0031392Y0044806D01*
X0031349Y0044818D01*
X0031308Y0044835D01*
X0031268Y0044854D01*
X0031231Y0044878D01*
X0031195Y0044904D01*
X0031162Y0044934D01*
X0031132Y0044966D01*
X0031105Y0045001D01*
X0031081Y0045038D01*
X0031060Y0045077D01*
X0031043Y0045118D01*
X0031030Y0045160D01*
X0031020Y0045203D01*
X0031014Y0045247D01*
X0031012Y0045291D01*
D13*
X0022808Y0036198D02*
X0022808Y0033128D01*
X0021273Y0031594D01*
X0019739Y0033128D01*
X0019739Y0036198D01*
X0018204Y0036198D02*
X0015902Y0036198D01*
X0015135Y0035430D01*
X0015135Y0033896D01*
X0015902Y0033128D01*
X0018204Y0033128D01*
X0018204Y0031594D02*
X0018204Y0036198D01*
X0016669Y0033128D02*
X0015135Y0031594D01*
X0013600Y0031594D02*
X0010531Y0031594D01*
X0012065Y0031594D02*
X0012065Y0036198D01*
X0013600Y0034663D01*
M02*
